*
*
G04 PADS 9.5 Build Number: 522968 generated Gerber (RS-274-X) file*
G04 PC Version=2.1*
*
%IN "switch.pcb"*%
*
%MOIN*%
*
%FSLAX35Y35*%
*
*
*
*
G04 PC Standard Apertures*
*
*
G04 Thermal Relief Aperture macro.*
%AMTER*
1,1,$1,0,0*
1,0,$1-$2,0,0*
21,0,$3,$4,0,0,45*
21,0,$3,$4,0,0,135*
%
*
*
G04 Annular Aperture macro.*
%AMANN*
1,1,$1,0,0*
1,0,$2,0,0*
%
*
*
G04 Odd Aperture macro.*
%AMODD*
1,1,$1,0,0*
1,0,$1-0.005,0,0*
%
*
*
G04 PC Custom Aperture Macros*
*
*
*
*
*
*
G04 PC Aperture Table*
*
%ADD010C,0.001*%
%ADD011C,0.01*%
%ADD016R,0.05512X0.05512*%
%ADD017C,0.05512*%
%ADD018C,0.09449*%
%ADD020C,0.07087*%
%ADD028R,0.08661X0.11811*%
%ADD029O,0.08661X0.11811*%
%ADD030C,0.19685*%
%ADD031R,0.08661X0.14961*%
%ADD033C,0.21654*%
%ADD038C,0.055*%
%ADD039C,0.015*%
%ADD059O,0.08661X0.15354*%
*
*
*
*
G04 PC Circuitry*
G04 Layer Name switch.pcb - circuitry*
%LPD*%
*
*
G04 PC Custom Flashes*
G04 Layer Name switch.pcb - flashes*
%LPD*%
*
*
G04 PC Circuitry*
G04 Layer Name switch.pcb - circuitry*
%LPD*%
*
G54D10*
G54D11*
G01X2107823Y1336024D02*
G75*
G03X2107823I-7193J0D01*
G01Y1434449D02*
G03X2107823I-7193J0D01*
G01Y1473819D02*
G03X2107823I-7193J0D01*
G01Y1572244D02*
G03X2107823I-7193J0D01*
G01X2131327Y1893110D02*
G03X2131327I-13296J0D01*
G01X2104358Y1621457D02*
G03X2104358I-6012J0D01*
G01Y1641142D02*
G03X2104358I-6012J0D01*
G01Y1660827D02*
G03X2104358I-6012J0D01*
G01Y1680512D02*
G03X2104358I-6012J0D01*
G01Y1700197D02*
G03X2104358I-6012J0D01*
G01Y1719882D02*
G03X2104358I-6012J0D01*
G01Y1739567D02*
G03X2104358I-6012J0D01*
G01Y1759252D02*
G03X2104358I-6012J0D01*
G01Y1778937D02*
G03X2104358I-6012J0D01*
G01Y1798622D02*
G03X2104358I-6012J0D01*
G01Y1818307D02*
G03X2104358I-6012J0D01*
G01Y1837992D02*
G03X2104358I-6012J0D01*
G01X1906406Y1336024D02*
G03X1906406I-7193J0D01*
G01Y1434449D02*
G03X1906406I-7193J0D01*
G01Y1473819D02*
G03X1906406I-7193J0D01*
G01X1933492Y1861614D02*
G03X1933492I-12311J0D01*
G01Y1893110D02*
G03X1933492I-12311J0D01*
G01X1906406Y1572244D02*
G03X1906406I-7193J0D01*
G01X1887823Y1621457D02*
G03X1887823I-6012J0D01*
G01Y1641142D02*
G03X1887823I-6012J0D01*
G01Y1660827D02*
G03X1887823I-6012J0D01*
G01Y1680512D02*
G03X1887823I-6012J0D01*
G01Y1700197D02*
G03X1887823I-6012J0D01*
G01Y1719882D02*
G03X1887823I-6012J0D01*
G01Y1739567D02*
G03X1887823I-6012J0D01*
G01Y1759252D02*
G03X1887823I-6012J0D01*
G01Y1778937D02*
G03X1887823I-6012J0D01*
G01Y1798622D02*
G03X1887823I-6012J0D01*
G01Y1818307D02*
G03X1887823I-6012J0D01*
G01Y1837992D02*
G03X1887823I-6012J0D01*
G01X1895106Y1893110D02*
G03X1895106I-13295J0D01*
G01X2134067Y1290961D02*
Y1909039D01*
G03X2133567Y1909539I-500J0*
G01X1866433*
G03X1865933Y1909039I0J-500*
G01Y1290961*
G03X1866433Y1290461I500J-0*
G01X1879311*
G03X1879402Y1291452I0J500*
G01X1884220D02*
G03X1879402I-2409J13076D01*
G01X1884220D02*
G03X1884311Y1290461I91J-491D01*
G01X2115532*
G03X2115622Y1291452I-0J500*
G01X2120441D02*
G03X2115622I-2410J13076D01*
G01X2120441D02*
G03X2120531Y1290461I90J-491D01*
G01X2133567*
G03X2134067Y1290961I-0J500*
G01X2107823Y1336024D02*
G03X2107823I-7193J0D01*
G01X2107811Y1396638D02*
G03X2104630I-1591J4976D01*
G01X2107811D02*
G03Y1395685I152J-477D01*
G01X2107753Y1385714D02*
G03X2107811Y1395685I-1533J4995D01*
G01X2107753Y1385714D02*
G03Y1384758I147J-478D01*
G01X2107811Y1374787D02*
G03X2107753Y1384758I-1591J4977D01*
G01X2107811Y1374787D02*
G03Y1373835I152J-476D01*
G01X2104630D02*
G03X2107811I1590J-4977D01*
G01X2104630D02*
G03Y1374787I-152J476D01*
G01X2104687Y1384758D02*
G03X2104630Y1374787I1533J-4994D01*
G01X2104687Y1384758D02*
G03Y1385714I-146J478D01*
G01X2104630Y1395685D02*
G03X2104687Y1385714I1590J-4976D01*
G01X2104630Y1395685D02*
G03Y1396638I-152J476D01*
G01X2100264Y1409803D02*
Y1404291D01*
X2097795Y1401823D02*
G03X2100264Y1404291I0J2468D01*
G01X2097795Y1401823D02*
X2097474D01*
G03X2097261Y1400870I-0J-500*
G01X2096630Y1391165D02*
G03X2097261Y1400870I-1591J4977D01*
G01X2096630Y1391165D02*
G03Y1390213I152J-476D01*
G01Y1380260D02*
G03Y1390213I-1591J4976D01*
G01Y1380260D02*
G03Y1379307I152J-477D01*
G01Y1369354D02*
G03Y1379307I-1591J4977D01*
G01Y1369354D02*
G03Y1368402I152J-476D01*
G01X2093449D02*
G03X2096630I1590J-4977D01*
G01X2093449D02*
G03Y1369354I-152J476D01*
G01Y1379307D02*
G03Y1369354I1590J-4976D01*
G01Y1379307D02*
G03Y1380260I-152J476D01*
G01Y1390213D02*
G03Y1380260I1590J-4977D01*
G01Y1390213D02*
G03Y1391165I-152J476D01*
G01X2092818Y1400870D02*
G03X2093449Y1391165I2221J-4728D01*
G01X2092818Y1400870D02*
G03X2092605Y1401823I-213J453D01*
G01X2092283*
X2089815Y1404291D02*
G03X2092283Y1401823I2468J0D01*
G01X2089815Y1404291D02*
Y1409803D01*
X2092283Y1412272D02*
G03X2089815Y1409803I0J-2469D01*
G01X2092283Y1412272D02*
X2097795D01*
X2100264Y1409803D02*
G03X2097795Y1412272I-2469J0D01*
G01X2107823Y1434449D02*
G03X2107823I-7193J0D01*
G01Y1473819D02*
G03X2107823I-7193J0D01*
G01X2107811Y1534433D02*
G03X2104630I-1591J4976D01*
G01X2107811D02*
G03Y1533480I152J-476D01*
G01X2107753Y1523509D02*
G03X2107811Y1533480I-1533J4995D01*
G01X2107753Y1523509D02*
G03Y1522554I147J-478D01*
G01X2107811Y1512583D02*
G03X2107753Y1522554I-1591J4976D01*
G01X2107811Y1512583D02*
G03Y1511630I152J-477D01*
G01X2104630D02*
G03X2107811I1590J-4976D01*
G01X2104630D02*
G03Y1512583I-152J476D01*
G01X2104687Y1522554D02*
G03X2104630Y1512583I1533J-4995D01*
G01X2104687Y1522554D02*
G03Y1523509I-146J477D01*
G01X2104630Y1533480D02*
G03X2104687Y1523509I1590J-4976D01*
G01X2104630Y1533480D02*
G03Y1534433I-152J477D01*
G01X2096630Y1539866D02*
G03X2093449I-1591J4977D01*
G01X2096630D02*
G03Y1538913I152J-476D01*
G01Y1528961D02*
G03Y1538913I-1591J4976D01*
G01Y1528961D02*
G03Y1528008I152J-477D01*
G01Y1518055D02*
G03Y1528008I-1591J4976D01*
G01Y1518055D02*
G03Y1517102I152J-476D01*
G01X2097261Y1507397D02*
G03X2096630Y1517102I-2222J4729D01*
G01X2097261Y1507397D02*
G03X2097474Y1506445I213J-452D01*
G01X2097795*
X2100264Y1503976D02*
G03X2097795Y1506445I-2469J0D01*
G01X2100264Y1503976D02*
Y1498465D01*
X2097795Y1495996D02*
G03X2100264Y1498465I0J2469D01*
G01X2097795Y1495996D02*
X2092283D01*
X2089815Y1498465D02*
G03X2092283Y1495996I2468J-0D01*
G01X2089815Y1498465D02*
Y1503976D01*
X2092283Y1506445D02*
G03X2089815Y1503976I0J-2469D01*
G01X2092283Y1506445D02*
X2092605D01*
G03X2092818Y1507397I0J500*
G01X2093449Y1517102D02*
G03X2092818Y1507397I1590J-4976D01*
G01X2093449Y1517102D02*
G03Y1518055I-152J477D01*
G01Y1528008D02*
G03Y1518055I1590J-4977D01*
G01Y1528008D02*
G03Y1528961I-152J476D01*
G01Y1538913D02*
G03Y1528961I1590J-4976D01*
G01Y1538913D02*
G03Y1539866I-152J477D01*
G01X2107823Y1572244D02*
G03X2107823I-7193J0D01*
G01X2131327Y1893110D02*
G03X2131327I-13296J0D01*
G01X2104358Y1621457D02*
G03X2104358I-6012J0D01*
G01Y1641142D02*
G03X2104358I-6012J0D01*
G01Y1660827D02*
G03X2104358I-6012J0D01*
G01Y1680512D02*
G03X2104358I-6012J0D01*
G01Y1700197D02*
G03X2104358I-6012J0D01*
G01Y1719882D02*
G03X2104358I-6012J0D01*
G01Y1739567D02*
G03X2104358I-6012J0D01*
G01Y1759252D02*
G03X2104358I-6012J0D01*
G01Y1778937D02*
G03X2104358I-6012J0D01*
G01Y1798622D02*
G03X2104358I-6012J0D01*
G01Y1818307D02*
G03X2104358I-6012J0D01*
G01Y1837992D02*
G03X2104358I-6012J0D01*
G01X2089398Y1874606D02*
Y1862795D01*
X2086929Y1860327D02*
G03X2089398Y1862795I0J2468D01*
G01X2086929Y1860327D02*
X2078268D01*
X2075799Y1862795D02*
G03X2078268Y1860327I2469J0D01*
G01X2075799Y1862795D02*
Y1874606D01*
X2078268Y1877075D02*
G03X2075799Y1874606I-0J-2469D01*
G01X2078268Y1877075D02*
X2086929D01*
X2089398Y1874606D02*
G03X2086929Y1877075I-2469J0D01*
G01X2050028Y1319882D02*
Y1316732D01*
X2036429D02*
G03X2050028I6799J0D01*
G01X2036429D02*
Y1319882D01*
X2050028D02*
G03X2036429I-6800J-0D01*
G01X2055933Y1870276D02*
Y1867126D01*
X2042335D02*
G03X2055933I6799J-0D01*
G01X2042335D02*
Y1870276D01*
X2055933D02*
G03X2042335I-6799J-0D01*
G01X2030343Y1324213D02*
Y1312402D01*
X2027874Y1309933D02*
G03X2030343Y1312402I0J2469D01*
G01X2027874Y1309933D02*
X2019213D01*
X2016744Y1312402D02*
G03X2019213Y1309933I2469J-0D01*
G01X2016744Y1312402D02*
Y1324213D01*
X2019213Y1326681D02*
G03X2016744Y1324213I-0J-2468D01*
G01X2019213Y1326681D02*
X2027874D01*
X2030343Y1324213D02*
G03X2027874Y1326681I-2469J-0D01*
G01X2020500Y1886024D02*
Y1871063D01*
X2018031Y1868594D02*
G03X2020500Y1871063I0J2469D01*
G01X2018031Y1868594D02*
X2009370D01*
X2006902Y1871063D02*
G03X2009370Y1868594I2468J-0D01*
G01X2006902Y1871063D02*
Y1886024D01*
X2009370Y1888492D02*
G03X2006902Y1886024I0J-2468D01*
G01X2009370Y1888492D02*
X2018031D01*
X2020500Y1886024D02*
G03X2018031Y1888492I-2469J-0D01*
G01X1979161Y1319882D02*
Y1316732D01*
X1965563D02*
G03X1979161I6799J0D01*
G01X1965563D02*
Y1319882D01*
X1979161D02*
G03X1965563I-6799J-0D01*
G01X1990972Y1881890D02*
Y1875197D01*
X1977374D02*
G03X1990972I6799J-0D01*
G01X1977374D02*
Y1881890D01*
X1990972D02*
G03X1977374I-6799J-0D01*
G01X1959476Y1324213D02*
Y1312402D01*
X1957008Y1309933D02*
G03X1959476Y1312402I-0J2469D01*
G01X1957008Y1309933D02*
X1948346D01*
X1945878Y1312402D02*
G03X1948346Y1309933I2468J-0D01*
G01X1945878Y1312402D02*
Y1324213D01*
X1948346Y1326681D02*
G03X1945878Y1324213I0J-2468D01*
G01X1948346Y1326681D02*
X1957008D01*
X1959476Y1324213D02*
G03X1957008Y1326681I-2468J-0D01*
G01X1906406Y1336024D02*
G03X1906406I-7193J0D01*
G01X1906394Y1402071D02*
G03X1903213I-1591J4976D01*
G01X1906394D02*
G03Y1401118I152J-477D01*
G01Y1391165D02*
G03Y1401118I-1591J4977D01*
G01Y1391165D02*
G03Y1390213I152J-476D01*
G01Y1380260D02*
G03Y1390213I-1591J4976D01*
G01Y1380260D02*
G03Y1379307I152J-477D01*
G01X1907025Y1369602D02*
G03X1906394Y1379307I-2222J4729D01*
G01X1907025Y1369602D02*
G03X1907237Y1368650I212J-452D01*
G01X1907559*
X1910028Y1366181D02*
G03X1907559Y1368650I-2469J0D01*
G01X1910028Y1366181D02*
Y1360669D01*
X1907559Y1358201D02*
G03X1910028Y1360669I0J2468D01*
G01X1907559Y1358201D02*
X1902047D01*
X1899579Y1360669D02*
G03X1902047Y1358201I2468J0D01*
G01X1899579Y1360669D02*
Y1366181D01*
X1902047Y1368650D02*
G03X1899579Y1366181I0J-2469D01*
G01X1902047Y1368650D02*
X1902369D01*
G03X1902582Y1369602I-0J500*
G01X1903213Y1379307D02*
G03X1902582Y1369602I1590J-4976D01*
G01X1903213Y1379307D02*
G03Y1380260I-152J476D01*
G01Y1390213D02*
G03Y1380260I1590J-4977D01*
G01Y1390213D02*
G03Y1391165I-152J476D01*
G01Y1401118D02*
G03Y1391165I1590J-4976D01*
G01Y1401118D02*
G03Y1402071I-152J476D01*
G01X1895212Y1396638D02*
G03X1892032I-1590J4976D01*
G01X1895212D02*
G03Y1395685I153J-477D01*
G01X1895155Y1385714D02*
G03X1895212Y1395685I-1533J4995D01*
G01X1895155Y1385714D02*
G03Y1384758I147J-478D01*
G01X1895212Y1374787D02*
G03X1895155Y1384758I-1590J4977D01*
G01X1895212Y1374787D02*
G03Y1373835I153J-476D01*
G01X1892032D02*
G03X1895212I1590J-4977D01*
G01X1892032D02*
G03Y1374787I-153J476D01*
G01X1892089Y1384758D02*
G03X1892032Y1374787I1533J-4994D01*
G01X1892089Y1384758D02*
G03Y1385714I-147J478D01*
G01X1892032Y1395685D02*
G03X1892089Y1385714I1590J-4976D01*
G01X1892032Y1395685D02*
G03Y1396638I-153J476D01*
G01X1906406Y1434449D02*
G03X1906406I-7193J0D01*
G01Y1473819D02*
G03X1906406I-7193J0D01*
G01X1910028Y1547598D02*
Y1542087D01*
X1907559Y1539618D02*
G03X1910028Y1542087I0J2469D01*
G01X1907559Y1539618D02*
X1907237D01*
G03X1907025Y1538666I0J-500*
G01X1906394Y1528961D02*
G03X1907025Y1538666I-1591J4976D01*
G01X1906394Y1528961D02*
G03Y1528008I152J-477D01*
G01Y1518055D02*
G03Y1528008I-1591J4976D01*
G01Y1518055D02*
G03Y1517102I152J-476D01*
G01Y1507150D02*
G03Y1517102I-1591J4976D01*
G01Y1507149D02*
G03Y1506197I152J-476D01*
G01X1903213D02*
G03X1906394I1590J-4977D01*
G01X1903213D02*
G03Y1507149I-152J476D01*
G01Y1517102D02*
G03Y1507150I1590J-4976D01*
G01Y1517102D02*
G03Y1518055I-152J477D01*
G01Y1528008D02*
G03Y1518055I1590J-4977D01*
G01Y1528008D02*
G03Y1528961I-152J476D01*
G01X1902582Y1538666D02*
G03X1903213Y1528961I2221J-4729D01*
G01X1902582Y1538666D02*
G03X1902369Y1539618I-213J452D01*
G01X1902047*
X1899579Y1542087D02*
G03X1902047Y1539618I2468J-0D01*
G01X1899579Y1542087D02*
Y1547598D01*
X1902047Y1550067D02*
G03X1899579Y1547598I0J-2469D01*
G01X1902047Y1550067D02*
X1907559D01*
X1910028Y1547598D02*
G03X1907559Y1550067I-2469J0D01*
G01X1933492Y1861614D02*
G03X1933492I-12311J0D01*
G01Y1893110D02*
G03X1933492I-12311J0D01*
G01X1895212Y1534433D02*
G03X1892032I-1590J4976D01*
G01X1895212D02*
G03Y1533480I153J-476D01*
G01X1895155Y1523509D02*
G03X1895212Y1533480I-1533J4995D01*
G01X1895155Y1523509D02*
G03Y1522554I147J-478D01*
G01X1895212Y1512583D02*
G03X1895155Y1522554I-1590J4976D01*
G01X1895212Y1512583D02*
G03Y1511630I153J-477D01*
G01X1892032D02*
G03X1895212I1590J-4976D01*
G01X1892032D02*
G03Y1512583I-153J476D01*
G01X1892089Y1522554D02*
G03X1892032Y1512583I1533J-4995D01*
G01X1892089Y1522554D02*
G03Y1523509I-147J477D01*
G01X1892032Y1533480D02*
G03X1892089Y1523509I1590J-4976D01*
G01X1892032Y1533480D02*
G03Y1534433I-153J477D01*
G01X1906406Y1572244D02*
G03X1906406I-7193J0D01*
G01X1887823Y1621457D02*
G03X1887823I-6012J0D01*
G01Y1641142D02*
G03X1887823I-6012J0D01*
G01Y1660827D02*
G03X1887823I-6012J0D01*
G01Y1680512D02*
G03X1887823I-6012J0D01*
G01Y1700197D02*
G03X1887823I-6012J0D01*
G01Y1719882D02*
G03X1887823I-6012J0D01*
G01Y1739567D02*
G03X1887823I-6012J0D01*
G01Y1759252D02*
G03X1887823I-6012J0D01*
G01Y1778937D02*
G03X1887823I-6012J0D01*
G01Y1798622D02*
G03X1887823I-6012J0D01*
G01Y1818307D02*
G03X1887823I-6012J0D01*
G01Y1837992D02*
G03X1887823I-6012J0D01*
G01X1895106Y1893110D02*
G03X1895106I-13295J0D01*
G01X1865933Y1908536D02*
X2134067D01*
X1865933Y1907636D02*
X2134067D01*
X1865933Y1906736D02*
X2134067D01*
X2121882Y1905836D02*
X2134067D01*
X2124108Y1904936D02*
X2134067D01*
X2125608Y1904036D02*
X2134067D01*
X2126764Y1903136D02*
X2134067D01*
X2127701Y1902236D02*
X2134067D01*
X2128477Y1901336D02*
X2134067D01*
X2129127Y1900436D02*
X2134067D01*
X2129671Y1899536D02*
X2134067D01*
X2130124Y1898636D02*
X2134067D01*
X2130496Y1897736D02*
X2134067D01*
X2130794Y1896836D02*
X2134067D01*
X2131023Y1895936D02*
X2134067D01*
X2131187Y1895036D02*
X2134067D01*
X2131287Y1894136D02*
X2134067D01*
X2131326Y1893236D02*
X2134067D01*
X2131304Y1892336D02*
X2134067D01*
X2131221Y1891436D02*
X2134067D01*
X2131075Y1890536D02*
X2134067D01*
X2130865Y1889636D02*
X2134067D01*
X2130587Y1888736D02*
X2134067D01*
X2130236Y1887836D02*
X2134067D01*
X2129806Y1886936D02*
X2134067D01*
X2129288Y1886036D02*
X2134067D01*
X2128670Y1885136D02*
X2134067D01*
X2127931Y1884236D02*
X2134067D01*
X2127044Y1883336D02*
X2134067D01*
X2125957Y1882436D02*
X2134067D01*
X2124573Y1881536D02*
X2134067D01*
X2122630Y1880636D02*
X2134067D01*
X2020500Y1879736D02*
X2134067D01*
X2020500Y1878836D02*
X2134067D01*
X2020500Y1877936D02*
X2134067D01*
X2087367Y1877036D02*
X2134067D01*
X2088867Y1876136D02*
X2134067D01*
X2089316Y1875236D02*
X2134067D01*
X2089398Y1874336D02*
X2134067D01*
X2089398Y1873436D02*
X2134067D01*
X2089398Y1872536D02*
X2134067D01*
X2089398Y1871636D02*
X2134067D01*
X2089398Y1870736D02*
X2134067D01*
X2089398Y1869836D02*
X2134067D01*
X2089398Y1868936D02*
X2134067D01*
X2089398Y1868036D02*
X2134067D01*
X2089398Y1867136D02*
X2134067D01*
X2089398Y1866236D02*
X2134067D01*
X2089398Y1865336D02*
X2134067D01*
X2089398Y1864436D02*
X2134067D01*
X2089398Y1863536D02*
X2134067D01*
X2089392Y1862636D02*
X2134067D01*
X2089159Y1861736D02*
X2134067D01*
X2088430Y1860836D02*
X2134067D01*
X1933377Y1859936D02*
X2134067D01*
X1933219Y1859036D02*
X2134067D01*
X1932991Y1858136D02*
X2134067D01*
X1932687Y1857236D02*
X2134067D01*
X1932303Y1856336D02*
X2134067D01*
X1931829Y1855436D02*
X2134067D01*
X1931254Y1854536D02*
X2134067D01*
X1930557Y1853636D02*
X2134067D01*
X1929710Y1852736D02*
X2134067D01*
X1928661Y1851836D02*
X2134067D01*
X1927307Y1850936D02*
X2134067D01*
X1925364Y1850036D02*
X2134067D01*
X1865933Y1849136D02*
X2134067D01*
X1865933Y1848236D02*
X2134067D01*
X1865933Y1847336D02*
X2134067D01*
X1865933Y1846436D02*
X2134067D01*
X1865933Y1845536D02*
X2134067D01*
X1865933Y1844636D02*
X2134067D01*
X2100122Y1843736D02*
X2134067D01*
X2101908Y1842836D02*
X2134067D01*
X2102884Y1841936D02*
X2134067D01*
X2103531Y1841036D02*
X2134067D01*
X2103963Y1840136D02*
X2134067D01*
X2104228Y1839236D02*
X2134067D01*
X2104348Y1838336D02*
X2134067D01*
X2104332Y1837436D02*
X2134067D01*
X2104179Y1836536D02*
X2134067D01*
X2103877Y1835636D02*
X2134067D01*
X2103400Y1834736D02*
X2134067D01*
X2102690Y1833836D02*
X2134067D01*
X2101598Y1832936D02*
X2134067D01*
X2099161Y1832036D02*
X2134067D01*
X1865933Y1831136D02*
X2134067D01*
X1865933Y1830236D02*
X2134067D01*
X1865933Y1829336D02*
X2134067D01*
X1865933Y1828436D02*
X2134067D01*
X1865933Y1827536D02*
X2134067D01*
X1865933Y1826636D02*
X2134067D01*
X1865933Y1825736D02*
X2134067D01*
X1865933Y1824836D02*
X2134067D01*
X2100459Y1823936D02*
X2134067D01*
X2102059Y1823036D02*
X2134067D01*
X2102982Y1822136D02*
X2134067D01*
X2103597Y1821236D02*
X2134067D01*
X2104006Y1820336D02*
X2134067D01*
X2104251Y1819436D02*
X2134067D01*
X2104354Y1818536D02*
X2134067D01*
X2104321Y1817636D02*
X2134067D01*
X2104149Y1816736D02*
X2134067D01*
X2103827Y1815836D02*
X2134067D01*
X2103324Y1814936D02*
X2134067D01*
X2102577Y1814036D02*
X2134067D01*
X2101412Y1813136D02*
X2134067D01*
X1865933Y1812236D02*
X2134067D01*
X1865933Y1811336D02*
X2134067D01*
X1865933Y1810436D02*
X2134067D01*
X1865933Y1809536D02*
X2134067D01*
X1865933Y1808636D02*
X2134067D01*
X1865933Y1807736D02*
X2134067D01*
X1865933Y1806836D02*
X2134067D01*
X1865933Y1805936D02*
X2134067D01*
X1865933Y1805036D02*
X2134067D01*
X2100743Y1804136D02*
X2134067D01*
X2102201Y1803236D02*
X2134067D01*
X2103074Y1802336D02*
X2134067D01*
X2103659Y1801436D02*
X2134067D01*
X2104046Y1800536D02*
X2134067D01*
X2104272Y1799636D02*
X2134067D01*
X2104357Y1798736D02*
X2134067D01*
X2104307Y1797836D02*
X2134067D01*
X2104117Y1796936D02*
X2134067D01*
X2103774Y1796036D02*
X2134067D01*
X2103244Y1795136D02*
X2134067D01*
X2102458Y1794236D02*
X2134067D01*
X2101209Y1793336D02*
X2134067D01*
X1865933Y1792436D02*
X2134067D01*
X1865933Y1791536D02*
X2134067D01*
X1865933Y1790636D02*
X2134067D01*
X1865933Y1789736D02*
X2134067D01*
X1865933Y1788836D02*
X2134067D01*
X1865933Y1787936D02*
X2134067D01*
X1865933Y1787036D02*
X2134067D01*
X1865933Y1786136D02*
X2134067D01*
X1865933Y1785236D02*
X2134067D01*
X2100992Y1784336D02*
X2134067D01*
X2102334Y1783436D02*
X2134067D01*
X2103162Y1782536D02*
X2134067D01*
X2103719Y1781636D02*
X2134067D01*
X2104083Y1780736D02*
X2134067D01*
X2104291Y1779836D02*
X2134067D01*
X2104358Y1778936D02*
X2134067D01*
X2104290Y1778036D02*
X2134067D01*
X2104082Y1777136D02*
X2134067D01*
X2103717Y1776236D02*
X2134067D01*
X2103160Y1775336D02*
X2134067D01*
X2102331Y1774436D02*
X2134067D01*
X2100986Y1773536D02*
X2134067D01*
X1865933Y1772636D02*
X2134067D01*
X1865933Y1771736D02*
X2134067D01*
X1865933Y1770836D02*
X2134067D01*
X1865933Y1769936D02*
X2134067D01*
X1865933Y1769036D02*
X2134067D01*
X1865933Y1768136D02*
X2134067D01*
X1865933Y1767236D02*
X2134067D01*
X1865933Y1766336D02*
X2134067D01*
X1865933Y1765436D02*
X2134067D01*
X2101214Y1764536D02*
X2134067D01*
X2102460Y1763636D02*
X2134067D01*
X2103246Y1762736D02*
X2134067D01*
X2103775Y1761836D02*
X2134067D01*
X2104118Y1760936D02*
X2134067D01*
X2104307Y1760036D02*
X2134067D01*
X2104357Y1759136D02*
X2134067D01*
X2104272Y1758236D02*
X2134067D01*
X2104045Y1757336D02*
X2134067D01*
X2103658Y1756436D02*
X2134067D01*
X2103072Y1755536D02*
X2134067D01*
X2102198Y1754636D02*
X2134067D01*
X2100737Y1753736D02*
X2134067D01*
X1865933Y1752836D02*
X2134067D01*
X1865933Y1751936D02*
X2134067D01*
X1865933Y1751036D02*
X2134067D01*
X1865933Y1750136D02*
X2134067D01*
X1865933Y1749236D02*
X2134067D01*
X1865933Y1748336D02*
X2134067D01*
X1865933Y1747436D02*
X2134067D01*
X1865933Y1746536D02*
X2134067D01*
X1865933Y1745636D02*
X2134067D01*
X2101417Y1744736D02*
X2134067D01*
X2102580Y1743836D02*
X2134067D01*
X2103326Y1742936D02*
X2134067D01*
X2103828Y1742036D02*
X2134067D01*
X2104150Y1741136D02*
X2134067D01*
X2104321Y1740236D02*
X2134067D01*
X2104354Y1739336D02*
X2134067D01*
X2104251Y1738436D02*
X2134067D01*
X2104005Y1737536D02*
X2134067D01*
X2103595Y1736636D02*
X2134067D01*
X2102979Y1735736D02*
X2134067D01*
X2102056Y1734836D02*
X2134067D01*
X2100452Y1733936D02*
X2134067D01*
X1865933Y1733036D02*
X2134067D01*
X1865933Y1732136D02*
X2134067D01*
X1865933Y1731236D02*
X2134067D01*
X1865933Y1730336D02*
X2134067D01*
X1865933Y1729436D02*
X2134067D01*
X1865933Y1728536D02*
X2134067D01*
X1865933Y1727636D02*
X2134067D01*
X1865933Y1726736D02*
X2134067D01*
X2099180Y1725836D02*
X2134067D01*
X2101602Y1724936D02*
X2134067D01*
X2102692Y1724036D02*
X2134067D01*
X2103402Y1723136D02*
X2134067D01*
X2103878Y1722236D02*
X2134067D01*
X2104180Y1721336D02*
X2134067D01*
X2104333Y1720436D02*
X2134067D01*
X2104348Y1719536D02*
X2134067D01*
X2104228Y1718636D02*
X2134067D01*
X2103962Y1717736D02*
X2134067D01*
X2103529Y1716836D02*
X2134067D01*
X2102882Y1715936D02*
X2134067D01*
X2101904Y1715036D02*
X2134067D01*
X2100114Y1714136D02*
X2134067D01*
X1865933Y1713236D02*
X2134067D01*
X1865933Y1712336D02*
X2134067D01*
X1865933Y1711436D02*
X2134067D01*
X1865933Y1710536D02*
X2134067D01*
X1865933Y1709636D02*
X2134067D01*
X1865933Y1708736D02*
X2134067D01*
X1865933Y1707836D02*
X2134067D01*
X1865933Y1706936D02*
X2134067D01*
X2099778Y1706036D02*
X2134067D01*
X2101774Y1705136D02*
X2134067D01*
X2102800Y1704236D02*
X2134067D01*
X2103474Y1703336D02*
X2134067D01*
X2103926Y1702436D02*
X2134067D01*
X2104207Y1701536D02*
X2134067D01*
X2104342Y1700636D02*
X2134067D01*
X2104341Y1699736D02*
X2134067D01*
X2104202Y1698836D02*
X2134067D01*
X2103917Y1697936D02*
X2134067D01*
X2103460Y1697036D02*
X2134067D01*
X2102779Y1696136D02*
X2134067D01*
X2101742Y1695236D02*
X2134067D01*
X2099684Y1694336D02*
X2134067D01*
X1865933Y1693436D02*
X2134067D01*
X1865933Y1692536D02*
X2134067D01*
X1865933Y1691636D02*
X2134067D01*
X1865933Y1690736D02*
X2134067D01*
X1865933Y1689836D02*
X2134067D01*
X1865933Y1688936D02*
X2134067D01*
X1865933Y1688036D02*
X2134067D01*
X1865933Y1687136D02*
X2134067D01*
X2100185Y1686236D02*
X2134067D01*
X2101934Y1685336D02*
X2134067D01*
X2102901Y1684436D02*
X2134067D01*
X2103542Y1683536D02*
X2134067D01*
X2103971Y1682636D02*
X2134067D01*
X2104232Y1681736D02*
X2134067D01*
X2104350Y1680836D02*
X2134067D01*
X2104331Y1679936D02*
X2134067D01*
X2104174Y1679036D02*
X2134067D01*
X2103869Y1678136D02*
X2134067D01*
X2103387Y1677236D02*
X2134067D01*
X2102671Y1676336D02*
X2134067D01*
X2101568Y1675436D02*
X2134067D01*
X2099001Y1674536D02*
X2134067D01*
X1865933Y1673636D02*
X2134067D01*
X1865933Y1672736D02*
X2134067D01*
X1865933Y1671836D02*
X2134067D01*
X1865933Y1670936D02*
X2134067D01*
X1865933Y1670036D02*
X2134067D01*
X1865933Y1669136D02*
X2134067D01*
X1865933Y1668236D02*
X2134067D01*
X1865933Y1667336D02*
X2134067D01*
X2100510Y1666436D02*
X2134067D01*
X2102084Y1665536D02*
X2134067D01*
X2102998Y1664636D02*
X2134067D01*
X2103608Y1663736D02*
X2134067D01*
X2104013Y1662836D02*
X2134067D01*
X2104255Y1661936D02*
X2134067D01*
X2104355Y1661036D02*
X2134067D01*
X2104318Y1660136D02*
X2134067D01*
X2104144Y1659236D02*
X2134067D01*
X2103818Y1658336D02*
X2134067D01*
X2103311Y1657436D02*
X2134067D01*
X2102557Y1656536D02*
X2134067D01*
X2101379Y1655636D02*
X2134067D01*
X1865933Y1654736D02*
X2134067D01*
X1865933Y1653836D02*
X2134067D01*
X1865933Y1652936D02*
X2134067D01*
X1865933Y1652036D02*
X2134067D01*
X1865933Y1651136D02*
X2134067D01*
X1865933Y1650236D02*
X2134067D01*
X1865933Y1649336D02*
X2134067D01*
X1865933Y1648436D02*
X2134067D01*
X1865933Y1647536D02*
X2134067D01*
X2100787Y1646636D02*
X2134067D01*
X2102224Y1645736D02*
X2134067D01*
X2103090Y1644836D02*
X2134067D01*
X2103670Y1643936D02*
X2134067D01*
X2104052Y1643036D02*
X2134067D01*
X2104276Y1642136D02*
X2134067D01*
X2104358Y1641236D02*
X2134067D01*
X2104304Y1640336D02*
X2134067D01*
X2104111Y1639436D02*
X2134067D01*
X2103764Y1638536D02*
X2134067D01*
X2103230Y1637636D02*
X2134067D01*
X2102437Y1636736D02*
X2134067D01*
X2101173Y1635836D02*
X2134067D01*
X1865933Y1634936D02*
X2134067D01*
X1865933Y1634036D02*
X2134067D01*
X1865933Y1633136D02*
X2134067D01*
X1865933Y1632236D02*
X2134067D01*
X1865933Y1631336D02*
X2134067D01*
X1865933Y1630436D02*
X2134067D01*
X1865933Y1629536D02*
X2134067D01*
X1865933Y1628636D02*
X2134067D01*
X1865933Y1627736D02*
X2134067D01*
X2101031Y1626836D02*
X2134067D01*
X2102357Y1625936D02*
X2134067D01*
X2103177Y1625036D02*
X2134067D01*
X2103728Y1624136D02*
X2134067D01*
X2104089Y1623236D02*
X2134067D01*
X2104294Y1622336D02*
X2134067D01*
X2104358Y1621436D02*
X2134067D01*
X2104287Y1620536D02*
X2134067D01*
X2104076Y1619636D02*
X2134067D01*
X2103707Y1618736D02*
X2134067D01*
X2103145Y1617836D02*
X2134067D01*
X2102309Y1616936D02*
X2134067D01*
X2100945Y1616036D02*
X2134067D01*
X1865933Y1615136D02*
X2134067D01*
X1865933Y1614236D02*
X2134067D01*
X1865933Y1613336D02*
X2134067D01*
X1865933Y1612436D02*
X2134067D01*
X1865933Y1611536D02*
X2134067D01*
X1865933Y1610636D02*
X2134067D01*
X1865933Y1609736D02*
X2134067D01*
X1865933Y1608836D02*
X2134067D01*
X1865933Y1607936D02*
X2134067D01*
X1865933Y1607036D02*
X2134067D01*
X1865933Y1606136D02*
X2134067D01*
X1865933Y1605236D02*
X2134067D01*
X1865933Y1604336D02*
X2134067D01*
X1865933Y1603436D02*
X2134067D01*
X1865933Y1602536D02*
X2134067D01*
X1865933Y1601636D02*
X2134067D01*
X1865933Y1600736D02*
X2134067D01*
X1865933Y1599836D02*
X2134067D01*
X1865933Y1598936D02*
X2134067D01*
X1865933Y1598036D02*
X2134067D01*
X1865933Y1597136D02*
X2134067D01*
X1865933Y1596236D02*
X2134067D01*
X1865933Y1595336D02*
X2134067D01*
X1865933Y1594436D02*
X2134067D01*
X1865933Y1593536D02*
X2134067D01*
X1865933Y1592636D02*
X2134067D01*
X1865933Y1591736D02*
X2134067D01*
X1865933Y1590836D02*
X2134067D01*
X1865933Y1589936D02*
X2134067D01*
X1865933Y1589036D02*
X2134067D01*
X1865933Y1588136D02*
X2134067D01*
X1865933Y1587236D02*
X2134067D01*
X1865933Y1586336D02*
X2134067D01*
X1865933Y1585436D02*
X2134067D01*
X1865933Y1584536D02*
X2134067D01*
X1865933Y1583636D02*
X2134067D01*
X1865933Y1582736D02*
X2134067D01*
X1865933Y1581836D02*
X2134067D01*
X1865933Y1580936D02*
X2134067D01*
X1865933Y1580036D02*
X2134067D01*
X2102690Y1579136D02*
X2134067D01*
X2104610Y1578236D02*
X2134067D01*
X2105711Y1577336D02*
X2134067D01*
X2106475Y1576436D02*
X2134067D01*
X2107026Y1575536D02*
X2134067D01*
X2107414Y1574636D02*
X2134067D01*
X2107666Y1573736D02*
X2134067D01*
X2107798Y1572836D02*
X2134067D01*
X2107816Y1571936D02*
X2134067D01*
X2107721Y1571036D02*
X2134067D01*
X2107507Y1570136D02*
X2134067D01*
X2107164Y1569236D02*
X2134067D01*
X2106668Y1568336D02*
X2134067D01*
X2105979Y1567436D02*
X2134067D01*
X2105006Y1566536D02*
X2134067D01*
X2103470Y1565636D02*
X2134067D01*
X1865933Y1564736D02*
X2134067D01*
X1865933Y1563836D02*
X2134067D01*
X1865933Y1562936D02*
X2134067D01*
X1865933Y1562036D02*
X2134067D01*
X1865933Y1561136D02*
X2134067D01*
X1865933Y1560236D02*
X2134067D01*
X1865933Y1559336D02*
X2134067D01*
X1865933Y1558436D02*
X2134067D01*
X1865933Y1557536D02*
X2134067D01*
X1865933Y1556636D02*
X2134067D01*
X1865933Y1555736D02*
X2134067D01*
X1865933Y1554836D02*
X2134067D01*
X1865933Y1553936D02*
X2134067D01*
X1865933Y1553036D02*
X2134067D01*
X1865933Y1552136D02*
X2134067D01*
X1865933Y1551236D02*
X2134067D01*
X1865933Y1550336D02*
X2134067D01*
X2097529Y1549436D02*
X2134067D01*
X2098735Y1548536D02*
X2134067D01*
X2099454Y1547636D02*
X2134067D01*
X2099909Y1546736D02*
X2134067D01*
X2100169Y1545836D02*
X2134067D01*
X2100263Y1544936D02*
X2134067D01*
X2108648Y1544036D02*
X2134067D01*
X2109882Y1543136D02*
X2134067D01*
X2110614Y1542236D02*
X2134067D01*
X2111077Y1541336D02*
X2134067D01*
X2111343Y1540436D02*
X2134067D01*
X2111443Y1539536D02*
X2134067D01*
X2111387Y1538636D02*
X2134067D01*
X2111170Y1537736D02*
X2134067D01*
X2110767Y1536836D02*
X2134067D01*
X2110123Y1535936D02*
X2134067D01*
X2109078Y1535036D02*
X2134067D01*
X2107496Y1534136D02*
X2134067D01*
X2108435Y1533236D02*
X2134067D01*
X2109772Y1532336D02*
X2134067D01*
X2110545Y1531436D02*
X2134067D01*
X2111034Y1530536D02*
X2134067D01*
X2111321Y1529636D02*
X2134067D01*
X2111440Y1528736D02*
X2134067D01*
X2111402Y1527836D02*
X2134067D01*
X2111204Y1526936D02*
X2134067D01*
X2110825Y1526036D02*
X2134067D01*
X2110214Y1525136D02*
X2134067D01*
X2109233Y1524236D02*
X2134067D01*
X2107503Y1523336D02*
X2134067D01*
X2108095Y1522436D02*
X2134067D01*
X2109609Y1521536D02*
X2134067D01*
X2110443Y1520636D02*
X2134067D01*
X2110970Y1519736D02*
X2134067D01*
X2111287Y1518836D02*
X2134067D01*
X2111431Y1517936D02*
X2134067D01*
X2111419Y1517036D02*
X2134067D01*
X2111247Y1516136D02*
X2134067D01*
X2110900Y1515236D02*
X2134067D01*
X2110332Y1514336D02*
X2134067D01*
X2109429Y1513436D02*
X2134067D01*
X2107707Y1512536D02*
X2134067D01*
X2107794Y1511636D02*
X2134067D01*
X2109481Y1510736D02*
X2134067D01*
X2110364Y1509836D02*
X2134067D01*
X2110920Y1508936D02*
X2134067D01*
X2111259Y1508036D02*
X2134067D01*
X2111423Y1507136D02*
X2134067D01*
X2111428Y1506236D02*
X2134067D01*
X2111276Y1505336D02*
X2134067D01*
X2110951Y1504436D02*
X2134067D01*
X2110413Y1503536D02*
X2134067D01*
X2109560Y1502636D02*
X2134067D01*
X2107984Y1501736D02*
X2134067D01*
X2100264Y1500836D02*
X2134067D01*
X2100264Y1499936D02*
X2134067D01*
X2100264Y1499036D02*
X2134067D01*
X2100242Y1498136D02*
X2134067D01*
X2099936Y1497236D02*
X2134067D01*
X2099045Y1496336D02*
X2134067D01*
X1865933Y1495436D02*
X2134067D01*
X1865933Y1494536D02*
X2134067D01*
X1865933Y1493636D02*
X2134067D01*
X1865933Y1492736D02*
X2134067D01*
X1865933Y1491836D02*
X2134067D01*
X1865933Y1490936D02*
X2134067D01*
X1865933Y1490036D02*
X2134067D01*
X1865933Y1489136D02*
X2134067D01*
X1865933Y1488236D02*
X2134067D01*
X1865933Y1487336D02*
X2134067D01*
X1865933Y1486436D02*
X2134067D01*
X1865933Y1485536D02*
X2134067D01*
X1865933Y1484636D02*
X2134067D01*
X1865933Y1483736D02*
X2134067D01*
X1865933Y1482836D02*
X2134067D01*
X1865933Y1481936D02*
X2134067D01*
X1865933Y1481036D02*
X2134067D01*
X2104070Y1480136D02*
X2134067D01*
X2105362Y1479236D02*
X2134067D01*
X2106228Y1478336D02*
X2134067D01*
X2106847Y1477436D02*
X2134067D01*
X2107290Y1476536D02*
X2134067D01*
X2107590Y1475636D02*
X2134067D01*
X2107764Y1474736D02*
X2134067D01*
X2107823Y1473836D02*
X2134067D01*
X2107768Y1472936D02*
X2134067D01*
X2107598Y1472036D02*
X2134067D01*
X2107304Y1471136D02*
X2134067D01*
X2106867Y1470236D02*
X2134067D01*
X2106255Y1469336D02*
X2134067D01*
X2105401Y1468436D02*
X2134067D01*
X2104131Y1467536D02*
X2134067D01*
X2101004Y1466636D02*
X2134067D01*
X1865933Y1465736D02*
X2134067D01*
X1865933Y1464836D02*
X2134067D01*
X1865933Y1463936D02*
X2134067D01*
X1865933Y1463036D02*
X2134067D01*
X1865933Y1462136D02*
X2134067D01*
X1865933Y1461236D02*
X2134067D01*
X1865933Y1460336D02*
X2134067D01*
X1865933Y1459436D02*
X2134067D01*
X1865933Y1458536D02*
X2134067D01*
X1865933Y1457636D02*
X2134067D01*
X1865933Y1456736D02*
X2134067D01*
X1865933Y1455836D02*
X2134067D01*
X1865933Y1454936D02*
X2134067D01*
X1865933Y1454036D02*
X2134067D01*
X1865933Y1453136D02*
X2134067D01*
X1865933Y1452236D02*
X2134067D01*
X1865933Y1451336D02*
X2134067D01*
X1865933Y1450436D02*
X2134067D01*
X1865933Y1449536D02*
X2134067D01*
X1865933Y1448636D02*
X2134067D01*
X1865933Y1447736D02*
X2134067D01*
X1865933Y1446836D02*
X2134067D01*
X1865933Y1445936D02*
X2134067D01*
X1865933Y1445036D02*
X2134067D01*
X1865933Y1444136D02*
X2134067D01*
X1865933Y1443236D02*
X2134067D01*
X1865933Y1442336D02*
X2134067D01*
X2102339Y1441436D02*
X2134067D01*
X2104462Y1440536D02*
X2134067D01*
X2105613Y1439636D02*
X2134067D01*
X2106406Y1438736D02*
X2134067D01*
X2106976Y1437836D02*
X2134067D01*
X2107379Y1436936D02*
X2134067D01*
X2107646Y1436036D02*
X2134067D01*
X2107790Y1435136D02*
X2134067D01*
X2107820Y1434236D02*
X2134067D01*
X2107736Y1433336D02*
X2134067D01*
X2107535Y1432436D02*
X2134067D01*
X2107207Y1431536D02*
X2134067D01*
X2106729Y1430636D02*
X2134067D01*
X2106064Y1429736D02*
X2134067D01*
X2105128Y1428836D02*
X2134067D01*
X2103682Y1427936D02*
X2134067D01*
X1865933Y1427036D02*
X2134067D01*
X1865933Y1426136D02*
X2134067D01*
X1865933Y1425236D02*
X2134067D01*
X1865933Y1424336D02*
X2134067D01*
X1865933Y1423436D02*
X2134067D01*
X1865933Y1422536D02*
X2134067D01*
X1865933Y1421636D02*
X2134067D01*
X1865933Y1420736D02*
X2134067D01*
X1865933Y1419836D02*
X2134067D01*
X1865933Y1418936D02*
X2134067D01*
X1865933Y1418036D02*
X2134067D01*
X1865933Y1417136D02*
X2134067D01*
X1865933Y1416236D02*
X2134067D01*
X1865933Y1415336D02*
X2134067D01*
X1865933Y1414436D02*
X2134067D01*
X1865933Y1413536D02*
X2134067D01*
X1865933Y1412636D02*
X2134067D01*
X2099331Y1411736D02*
X2134067D01*
X2100037Y1410836D02*
X2134067D01*
X2100260Y1409936D02*
X2134067D01*
X2100264Y1409036D02*
X2134067D01*
X2100264Y1408136D02*
X2134067D01*
X2100264Y1407236D02*
X2134067D01*
X2108457Y1406336D02*
X2134067D01*
X2109783Y1405436D02*
X2134067D01*
X2110552Y1404536D02*
X2134067D01*
X2111038Y1403636D02*
X2134067D01*
X2111323Y1402736D02*
X2134067D01*
X2111440Y1401836D02*
X2134067D01*
X2111401Y1400936D02*
X2134067D01*
X2111201Y1400036D02*
X2134067D01*
X2110820Y1399136D02*
X2134067D01*
X2110206Y1398236D02*
X2134067D01*
X2109219Y1397336D02*
X2134067D01*
X2107545Y1396436D02*
X2134067D01*
X2108219Y1395536D02*
X2134067D01*
X2109666Y1394636D02*
X2134067D01*
X2110479Y1393736D02*
X2134067D01*
X2110992Y1392836D02*
X2134067D01*
X2111299Y1391936D02*
X2134067D01*
X2111435Y1391036D02*
X2134067D01*
X2111413Y1390136D02*
X2134067D01*
X2111233Y1389236D02*
X2134067D01*
X2110875Y1388336D02*
X2134067D01*
X2110293Y1387436D02*
X2134067D01*
X2109364Y1386536D02*
X2134067D01*
X2107600Y1385636D02*
X2134067D01*
X2107825Y1384736D02*
X2134067D01*
X2109494Y1383836D02*
X2134067D01*
X2110372Y1382936D02*
X2134067D01*
X2110925Y1382036D02*
X2134067D01*
X2111262Y1381136D02*
X2134067D01*
X2111424Y1380236D02*
X2134067D01*
X2111427Y1379336D02*
X2134067D01*
X2111273Y1378436D02*
X2134067D01*
X2110946Y1377536D02*
X2134067D01*
X2110405Y1376636D02*
X2134067D01*
X2109548Y1375736D02*
X2134067D01*
X2107955Y1374836D02*
X2134067D01*
X2107633Y1373936D02*
X2134067D01*
X2109358Y1373036D02*
X2134067D01*
X2110289Y1372136D02*
X2134067D01*
X2110873Y1371236D02*
X2134067D01*
X2111232Y1370336D02*
X2134067D01*
X2111413Y1369436D02*
X2134067D01*
X2111435Y1368536D02*
X2134067D01*
X2111300Y1367636D02*
X2134067D01*
X2110994Y1366736D02*
X2134067D01*
X2110482Y1365836D02*
X2134067D01*
X2109671Y1364936D02*
X2134067D01*
X2108230Y1364036D02*
X2134067D01*
X2100256Y1363136D02*
X2134067D01*
X2100127Y1362236D02*
X2134067D01*
X2099828Y1361336D02*
X2134067D01*
X2099324Y1360436D02*
X2134067D01*
X2098527Y1359536D02*
X2134067D01*
X2097126Y1358636D02*
X2134067D01*
X1865933Y1357736D02*
X2134067D01*
X1865933Y1356836D02*
X2134067D01*
X1865933Y1355936D02*
X2134067D01*
X1865933Y1355036D02*
X2134067D01*
X1865933Y1354136D02*
X2134067D01*
X1865933Y1353236D02*
X2134067D01*
X1865933Y1352336D02*
X2134067D01*
X1865933Y1351436D02*
X2134067D01*
X1865933Y1350536D02*
X2134067D01*
X1865933Y1349636D02*
X2134067D01*
X1865933Y1348736D02*
X2134067D01*
X1865933Y1347836D02*
X2134067D01*
X1865933Y1346936D02*
X2134067D01*
X1865933Y1346036D02*
X2134067D01*
X1865933Y1345136D02*
X2134067D01*
X1865933Y1344236D02*
X2134067D01*
X1865933Y1343336D02*
X2134067D01*
X2103889Y1342436D02*
X2134067D01*
X2105251Y1341536D02*
X2134067D01*
X2106150Y1340636D02*
X2134067D01*
X2106791Y1339736D02*
X2134067D01*
X2107250Y1338836D02*
X2134067D01*
X2107564Y1337936D02*
X2134067D01*
X2107751Y1337036D02*
X2134067D01*
X2107822Y1336136D02*
X2134067D01*
X2107780Y1335236D02*
X2134067D01*
X2107622Y1334336D02*
X2134067D01*
X2107341Y1333436D02*
X2134067D01*
X2106921Y1332536D02*
X2134067D01*
X2106329Y1331636D02*
X2134067D01*
X2105506Y1330736D02*
X2134067D01*
X2104297Y1329836D02*
X2134067D01*
X2101855Y1328936D02*
X2134067D01*
X1865933Y1328036D02*
X2134067D01*
X1865933Y1327136D02*
X2134067D01*
X2045649Y1326236D02*
X2134067D01*
X2047289Y1325336D02*
X2134067D01*
X2048277Y1324436D02*
X2134067D01*
X2048962Y1323536D02*
X2134067D01*
X2049445Y1322636D02*
X2134067D01*
X2049770Y1321736D02*
X2134067D01*
X2049960Y1320836D02*
X2134067D01*
X2050027Y1319936D02*
X2134067D01*
X2050028Y1319036D02*
X2134067D01*
X2050028Y1318136D02*
X2134067D01*
X2121939Y1317236D02*
X2134067D01*
X2124142Y1316336D02*
X2134067D01*
X2125633Y1315436D02*
X2134067D01*
X2126784Y1314536D02*
X2134067D01*
X2127717Y1313636D02*
X2134067D01*
X2128491Y1312736D02*
X2134067D01*
X2129138Y1311836D02*
X2134067D01*
X2129681Y1310936D02*
X2134067D01*
X2130132Y1310036D02*
X2134067D01*
X2130503Y1309136D02*
X2134067D01*
X2130799Y1308236D02*
X2134067D01*
X2131027Y1307336D02*
X2134067D01*
X2131189Y1306436D02*
X2134067D01*
X2131289Y1305536D02*
X2134067D01*
X2131326Y1304636D02*
X2134067D01*
X2131303Y1303736D02*
X2134067D01*
X2131219Y1302836D02*
X2134067D01*
X2131072Y1301936D02*
X2134067D01*
X2130860Y1301036D02*
X2134067D01*
X2130580Y1300136D02*
X2134067D01*
X2130228Y1299236D02*
X2134067D01*
X2129797Y1298336D02*
X2134067D01*
X2129277Y1297436D02*
X2134067D01*
X2128657Y1296536D02*
X2134067D01*
X2127916Y1295636D02*
X2134067D01*
X2127025Y1294736D02*
X2134067D01*
X2125934Y1293836D02*
X2134067D01*
X2124543Y1292936D02*
X2134067D01*
X2122583Y1292036D02*
X2134067D01*
X2120063Y1291136D02*
X2134067D01*
X1866128Y1909436D02*
X2133872D01*
X1883843Y1291136D02*
X2116000D01*
X1885662Y1905836D02*
X2114181D01*
X2050028Y1317236D02*
X2114124D01*
X1886363Y1292036D02*
X2113480D01*
X2020500Y1880636D02*
X2113433D01*
X1924605Y1904936D02*
X2111955D01*
X2050016Y1316336D02*
X2111921D01*
X1888322Y1292936D02*
X2111520D01*
X2020500Y1881536D02*
X2111490D01*
X1926855Y1904036D02*
X2110455D01*
X2049903Y1315436D02*
X2110430D01*
X1889713Y1293836D02*
X2110129D01*
X2020500Y1882436D02*
X2110106D01*
X1928326Y1903136D02*
X2109299D01*
X2049663Y1314536D02*
X2109279D01*
X1890805Y1294736D02*
X2109038D01*
X2020500Y1883336D02*
X2109019D01*
X1929445Y1902236D02*
X2108362D01*
X2049282Y1313636D02*
X2108346D01*
X1891695Y1295636D02*
X2108147D01*
X2020500Y1884236D02*
X2108132D01*
X1930341Y1901336D02*
X2107586D01*
X2048729Y1312736D02*
X2107572D01*
X1892436Y1296536D02*
X2107406D01*
X2020500Y1885136D02*
X2107393D01*
X1931076Y1900436D02*
X2106936D01*
X2047946Y1311836D02*
X2106925D01*
X1893057Y1297436D02*
X2106786D01*
X2020500Y1886036D02*
X2106775D01*
X1931682Y1899536D02*
X2106392D01*
X2046782Y1310936D02*
X2106382D01*
X1893576Y1298336D02*
X2106266D01*
X2020325Y1886936D02*
X2106257D01*
X1932183Y1898636D02*
X2105939D01*
X2044405Y1310036D02*
X2105931D01*
X1894008Y1299236D02*
X2105835D01*
X2019708Y1887836D02*
X2105827D01*
X1932590Y1897736D02*
X2105567D01*
X1894282Y1309136D02*
X2105560D01*
X1894360Y1300136D02*
X2105483D01*
X1932689Y1888736D02*
X2105476D01*
X1932915Y1896836D02*
X2105269D01*
X1894579Y1308236D02*
X2105264D01*
X1894640Y1301036D02*
X2105203D01*
X1932992Y1889636D02*
X2105198D01*
X1933164Y1895936D02*
X2105040D01*
X1894806Y1307336D02*
X2105036D01*
X1894851Y1301936D02*
X2104991D01*
X1933220Y1890536D02*
X2104988D01*
X2100260Y1534136D02*
X2104945D01*
X2100255Y1523336D02*
X2104938D01*
X2100256Y1396436D02*
X2104896D01*
X1933341Y1895036D02*
X2104876D01*
X1894969Y1306436D02*
X2104874D01*
X1894998Y1302836D02*
X2104844D01*
X1933378Y1891436D02*
X2104842D01*
X2100249Y1385636D02*
X2104841D01*
X2100249Y1373936D02*
X2104808D01*
X1933449Y1894136D02*
X2104776D01*
X1895068Y1305536D02*
X2104774D01*
X1895083Y1303736D02*
X2104760D01*
X1933468Y1892336D02*
X2104759D01*
X1933492Y1893236D02*
X2104737D01*
X1895106Y1304636D02*
X2104737D01*
X2100248Y1512536D02*
X2104734D01*
X2100241Y1511636D02*
X2104647D01*
X2100240Y1384736D02*
X2104616D01*
X2100239Y1374836D02*
X2104486D01*
X2100264Y1501736D02*
X2104457D01*
X2100230Y1522436D02*
X2104346D01*
X2100229Y1395536D02*
X2104222D01*
X2100228Y1364036D02*
X2104211D01*
X2100217Y1533236D02*
X2104006D01*
X2100264Y1406336D02*
X2103984D01*
X2100201Y1544036D02*
X2103793D01*
X2100147Y1535036D02*
X2103363D01*
X2100126Y1397336D02*
X2103222D01*
X2100123Y1524236D02*
X2103208D01*
X2100101Y1373036D02*
X2103083D01*
X2100100Y1386536D02*
X2103077D01*
X2100097Y1513436D02*
X2103012D01*
X2100075Y1510736D02*
X2102960D01*
X2100073Y1383836D02*
X2102947D01*
X2100071Y1375736D02*
X2102893D01*
X2100264Y1502636D02*
X2102881D01*
X2100045Y1521536D02*
X2102832D01*
X2100042Y1394636D02*
X2102775D01*
X2100041Y1364936D02*
X2102770D01*
X2100012Y1532336D02*
X2102669D01*
X2100264Y1405436D02*
X2102658D01*
X2099977Y1543136D02*
X2102559D01*
X2099866Y1535936D02*
X2102318D01*
X2099826Y1398236D02*
X2102235D01*
X2099821Y1525136D02*
X2102227D01*
X2099780Y1372136D02*
X2102152D01*
X2099778Y1387436D02*
X2102148D01*
X2099773Y1514336D02*
X2102109D01*
X2099735Y1509836D02*
X2102077D01*
X2099730Y1382936D02*
X2102069D01*
X2099728Y1376636D02*
X2102036D01*
X2100264Y1503536D02*
X2102028D01*
X2099682Y1520636D02*
X2101998D01*
X2099677Y1393736D02*
X2101962D01*
X2099674Y1365836D02*
X2101959D01*
X2099626Y1531436D02*
X2101896D01*
X2100264Y1404536D02*
X2101889D01*
X2099567Y1542236D02*
X2101826D01*
X2099386Y1536836D02*
X2101674D01*
X2099321Y1399136D02*
X2101621D01*
X2099314Y1526036D02*
X2101616D01*
X2099248Y1371236D02*
X2101568D01*
X2099245Y1388336D02*
X2101566D01*
X2099238Y1515236D02*
X2101541D01*
X2099177Y1508936D02*
X2101521D01*
X2099169Y1382036D02*
X2101516D01*
X2099165Y1377536D02*
X2101495D01*
X2100221Y1504436D02*
X2101490D01*
X2099093Y1519736D02*
X2101471D01*
X2099085Y1392836D02*
X2101449D01*
X2099081Y1366736D02*
X2101447D01*
X2099005Y1530536D02*
X2101407D01*
X2100175Y1403636D02*
X2101403D01*
X2098912Y1541336D02*
X2101364D01*
X2098626Y1537736D02*
X2101271D01*
X2098522Y1400036D02*
X2101240D01*
X2098511Y1526936D02*
X2101237D01*
X2098406Y1370336D02*
X2101209D01*
X2098401Y1389236D02*
X2101208D01*
X2098389Y1516136D02*
X2101194D01*
X2098290Y1508036D02*
X2101182D01*
X2098277Y1381136D02*
X2101179D01*
X2098271Y1378436D02*
X2101168D01*
X2099856Y1505336D02*
X2101165D01*
X2098152Y1518836D02*
X2101154D01*
X2098138Y1391936D02*
X2101142D01*
X2098132Y1367636D02*
X2101141D01*
X2098005Y1529636D02*
X2101120D01*
X2099712Y1402736D02*
X2101118D01*
X2097846Y1540436D02*
X2101098D01*
X2097323Y1538636D02*
X2101054D01*
X2097157Y1400936D02*
X2101040D01*
X2097092Y1527836D02*
X2101039D01*
X2096865Y1369436D02*
X2101028D01*
X2096853Y1390136D02*
X2101028D01*
X2096825Y1517036D02*
X2101022D01*
X2097011Y1507136D02*
X2101018D01*
X2096569Y1380236D02*
X2101017D01*
X2096559Y1379336D02*
X2101014D01*
X2098790Y1506236D02*
X2101013D01*
X2096432Y1517936D02*
X2101010D01*
X2096422Y1391036D02*
X2101006D01*
X2096417Y1368536D02*
X2101006D01*
X2096350Y1528736D02*
X2101001D01*
X2098047Y1401836D02*
X2101001D01*
X2096304Y1539536D02*
X2100998D01*
X1899587Y1466636D02*
X2100256D01*
X1900437Y1328936D02*
X2099405D01*
X1900922Y1441436D02*
X2098921D01*
X1901273Y1579136D02*
X2098570D01*
X1902053Y1565636D02*
X2097790D01*
X1882465Y1674536D02*
X2097692D01*
X1902265Y1427936D02*
X2097577D01*
X1882625Y1832036D02*
X2097532D01*
X1882644Y1725836D02*
X2097513D01*
X1902472Y1342436D02*
X2097371D01*
X1902653Y1480136D02*
X2097190D01*
X1902714Y1467536D02*
X2097129D01*
X1883149Y1694336D02*
X2097009D01*
X1902880Y1329836D02*
X2096963D01*
X1883243Y1706036D02*
X2096915D01*
X1903045Y1440536D02*
X2096797D01*
X1903192Y1578236D02*
X2096650D01*
X1883578Y1714136D02*
X2096579D01*
X1883587Y1843736D02*
X2096571D01*
X1883649Y1686236D02*
X2096508D01*
X1903589Y1566536D02*
X2096254D01*
X1883916Y1733936D02*
X2096241D01*
X1883923Y1823936D02*
X2096234D01*
X1883975Y1666436D02*
X2096183D01*
X1903711Y1428836D02*
X2096132D01*
X1903834Y1341536D02*
X2096009D01*
X1884201Y1753736D02*
X2095956D01*
X1884207Y1804136D02*
X2095950D01*
X1884252Y1646636D02*
X2095905D01*
X1903945Y1479236D02*
X2095897D01*
X1903983Y1468436D02*
X2095859D01*
X1904089Y1330736D02*
X2095754D01*
X1884410Y1616036D02*
X2095747D01*
X1884451Y1773536D02*
X2095707D01*
X1884456Y1784336D02*
X2095701D01*
X1884496Y1626836D02*
X2095662D01*
X1904196Y1439636D02*
X2095646D01*
X1904293Y1577336D02*
X2095549D01*
X1884637Y1635836D02*
X2095520D01*
X1884674Y1793336D02*
X2095483D01*
X1884679Y1764536D02*
X2095479D01*
X1884843Y1655636D02*
X2095314D01*
X1884877Y1813136D02*
X2095281D01*
X1904562Y1567436D02*
X2095280D01*
X1884881Y1744736D02*
X2095276D01*
X1904646Y1429736D02*
X2095196D01*
X1885032Y1675436D02*
X2095125D01*
X1904732Y1340636D02*
X2095110D01*
X1885063Y1832936D02*
X2095095D01*
X1885067Y1724936D02*
X2095091D01*
X1904811Y1478336D02*
X2095032D01*
X1904837Y1469336D02*
X2095005D01*
X1885206Y1695236D02*
X2094951D01*
X1904912Y1331636D02*
X2094930D01*
X1885239Y1705136D02*
X2094919D01*
X1904988Y1438736D02*
X2094854D01*
X1885369Y1715036D02*
X2094789D01*
X1885372Y1842836D02*
X2094785D01*
X1905058Y1576436D02*
X2094785D01*
X1885399Y1685336D02*
X2094759D01*
X1885520Y1734836D02*
X2094637D01*
X1885523Y1823036D02*
X2094634D01*
X1885548Y1665536D02*
X2094609D01*
X1905251Y1568336D02*
X2094591D01*
X1905312Y1430636D02*
X2094531D01*
X1885662Y1754636D02*
X2094495D01*
X1885665Y1803236D02*
X2094492D01*
X1905374Y1339736D02*
X2094469D01*
X1885689Y1645736D02*
X2094469D01*
X1905430Y1477436D02*
X2094412D01*
X1905450Y1470236D02*
X2094393D01*
X1885774Y1616936D02*
X2094384D01*
X1885796Y1774436D02*
X2094361D01*
X1885799Y1783436D02*
X2094358D01*
X1905503Y1332536D02*
X2094339D01*
X1885821Y1625936D02*
X2094336D01*
X1905558Y1437836D02*
X2094284D01*
X1885901Y1636736D02*
X2094256D01*
X1885922Y1794236D02*
X2094235D01*
X1905608Y1575536D02*
X2094234D01*
X1885925Y1763636D02*
X2094232D01*
X1886022Y1656536D02*
X2094136D01*
X1886042Y1814036D02*
X2094116D01*
X1886044Y1743836D02*
X2094113D01*
X1905746Y1569236D02*
X2094096D01*
X1905789Y1431536D02*
X2094053D01*
X1886136Y1676336D02*
X2094022D01*
X1905833Y1338836D02*
X2094009D01*
X1886155Y1833836D02*
X2094003D01*
X1886157Y1724036D02*
X2094000D01*
X1905873Y1476536D02*
X2093970D01*
X1905886Y1471136D02*
X2093956D01*
X1905924Y1333436D02*
X2093919D01*
X1886244Y1696136D02*
X2093914D01*
X1886264Y1704236D02*
X2093893D01*
X1905962Y1436936D02*
X2093881D01*
X1905996Y1574636D02*
X2093846D01*
X1886346Y1715936D02*
X2093811D01*
X1886349Y1841936D02*
X2093809D01*
X1886366Y1684436D02*
X2093792D01*
X1906962Y1539536D02*
X2093775D01*
X1906090Y1570136D02*
X2093753D01*
X1906114Y1528736D02*
X2093729D01*
X1906118Y1432436D02*
X2093724D01*
X1886444Y1735736D02*
X2093714D01*
X1886446Y1822136D02*
X2093711D01*
X1906147Y1337936D02*
X2093696D01*
X1886462Y1664636D02*
X2093695D01*
X1906172Y1475636D02*
X2093670D01*
X1906181Y1472036D02*
X2093662D01*
X1908300Y1368536D02*
X2093661D01*
X1906185Y1391036D02*
X2093657D01*
X1906196Y1517936D02*
X2093647D01*
X1906205Y1334336D02*
X2093638D01*
X1886537Y1755536D02*
X2093621D01*
X1886539Y1802336D02*
X2093619D01*
X1906228Y1436036D02*
X2093614D01*
X1886554Y1644836D02*
X2093603D01*
X1906249Y1573736D02*
X2093593D01*
X1886610Y1617836D02*
X2093547D01*
X1906303Y1571036D02*
X2093539D01*
X1886625Y1775336D02*
X2093533D01*
X1886627Y1782536D02*
X2093531D01*
X1906319Y1433336D02*
X2093524D01*
X1906323Y1379336D02*
X2093519D01*
X1886641Y1625036D02*
X2093516D01*
X1906332Y1380236D02*
X2093510D01*
X1906334Y1337036D02*
X2093509D01*
X1906347Y1474736D02*
X2093496D01*
X1906351Y1472936D02*
X2093491D01*
X1906362Y1335236D02*
X2093480D01*
X1906373Y1435136D02*
X2093470D01*
X1886695Y1637636D02*
X2093463D01*
X1906381Y1572836D02*
X2093461D01*
X1886709Y1795136D02*
X2093449D01*
X1886711Y1762736D02*
X2093447D01*
X1906399Y1571936D02*
X2093444D01*
X1906402Y1434236D02*
X2093440D01*
X1906405Y1336136D02*
X2093438D01*
X1906406Y1473836D02*
X2093437D01*
X1886775Y1657436D02*
X2093382D01*
X1886789Y1814936D02*
X2093369D01*
X1886790Y1742936D02*
X2093367D01*
X1886852Y1677236D02*
X2093306D01*
X1886865Y1834736D02*
X2093293D01*
X1886866Y1723136D02*
X2093291D01*
X1906589Y1517036D02*
X2093253D01*
X1886925Y1697036D02*
X2093233D01*
X1906617Y1390136D02*
X2093226D01*
X1886938Y1703336D02*
X2093219D01*
X1906827Y1369436D02*
X2093214D01*
X1886994Y1716836D02*
X2093164D01*
X1886996Y1841036D02*
X2093162D01*
X1887007Y1683536D02*
X2093150D01*
X1887060Y1736636D02*
X2093098D01*
X1887061Y1821236D02*
X2093096D01*
X1887072Y1663736D02*
X2093085D01*
X1906356Y1507136D02*
X2093067D01*
X1887122Y1756436D02*
X2093035D01*
X1887124Y1801436D02*
X2093034D01*
X1887134Y1643936D02*
X2093023D01*
X1906856Y1527836D02*
X2092986D01*
X1887172Y1618736D02*
X2092986D01*
X1887182Y1776236D02*
X2092976D01*
X1887183Y1781636D02*
X2092974D01*
X1887193Y1624136D02*
X2092965D01*
X1908958Y1358636D02*
X2092952D01*
X1887229Y1638536D02*
X2092929D01*
X1906880Y1400936D02*
X2092922D01*
X1887238Y1796036D02*
X2092919D01*
X1887239Y1761836D02*
X2092918D01*
X1887282Y1658336D02*
X2092875D01*
X1887291Y1815836D02*
X2092866D01*
X1887293Y1742036D02*
X2092865D01*
X1887333Y1678136D02*
X2092824D01*
X1887342Y1835636D02*
X2092816D01*
X1887343Y1722236D02*
X2092815D01*
X1887381Y1697936D02*
X2092776D01*
X1887390Y1702436D02*
X2092767D01*
X1907087Y1538636D02*
X2092755D01*
X1887427Y1717736D02*
X2092731D01*
X1887428Y1840136D02*
X2092730D01*
X1887435Y1682636D02*
X2092722D01*
X1887469Y1737536D02*
X2092688D01*
X1887470Y1820336D02*
X2092687D01*
X1887477Y1662836D02*
X2092680D01*
X1887509Y1757336D02*
X2092648D01*
X1887510Y1800536D02*
X2092647D01*
X1887517Y1643036D02*
X2092641D01*
X1887540Y1619636D02*
X2092617D01*
X1887547Y1777136D02*
X2092611D01*
X1887547Y1780736D02*
X2092610D01*
X1887554Y1623236D02*
X2092604D01*
X1887576Y1639436D02*
X2092582D01*
X1887581Y1796936D02*
X2092576D01*
X1887582Y1760936D02*
X2092575D01*
X1909208Y1549436D02*
X2092550D01*
X1887608Y1659236D02*
X2092549D01*
X1887614Y1816736D02*
X2092544D01*
X1887615Y1741136D02*
X2092543D01*
X1887639Y1679036D02*
X2092519D01*
X1887644Y1836536D02*
X2092514D01*
X1887644Y1721336D02*
X2092513D01*
X1887667Y1698836D02*
X2092491D01*
X1887672Y1701536D02*
X2092486D01*
X1887692Y1718636D02*
X2092465D01*
X1887693Y1839236D02*
X2092465D01*
X1887697Y1681736D02*
X2092461D01*
X1887715Y1738436D02*
X2092442D01*
X1887716Y1819436D02*
X2092442D01*
X1887720Y1661936D02*
X2092438D01*
X1887736Y1758236D02*
X2092421D01*
X1887737Y1799636D02*
X2092421D01*
X1887740Y1642136D02*
X2092417D01*
X1887752Y1620536D02*
X2092406D01*
X1887755Y1778036D02*
X2092403D01*
X1887755Y1779836D02*
X2092402D01*
X1887758Y1622336D02*
X2092399D01*
X1887769Y1640336D02*
X2092389D01*
X1887771Y1797836D02*
X2092386D01*
X1887772Y1760036D02*
X2092386D01*
X1887783Y1660136D02*
X2092374D01*
X1887785Y1817636D02*
X2092372D01*
X1887786Y1740236D02*
X2092372D01*
X1887795Y1679936D02*
X2092362D01*
X1887797Y1837436D02*
X2092360D01*
X1887797Y1720436D02*
X2092360D01*
X1887805Y1699736D02*
X2092352D01*
X1887807Y1700636D02*
X2092351D01*
X1887813Y1719536D02*
X2092345D01*
X1887813Y1838336D02*
X2092344D01*
X1887814Y1680836D02*
X2092343D01*
X1887818Y1739336D02*
X2092339D01*
X1887819Y1818536D02*
X2092339D01*
X1887819Y1661036D02*
X2092338D01*
X1887822Y1759136D02*
X2092336D01*
X1887822Y1798736D02*
X2092336D01*
X1887822Y1641236D02*
X2092335D01*
X1887823Y1621436D02*
X2092335D01*
X1887823Y1778936D02*
X2092335D01*
X1909394Y1540436D02*
X2092233D01*
X1907769Y1529636D02*
X2092074D01*
X1906108Y1401836D02*
X2092032D01*
X1909553Y1367636D02*
X2091946D01*
X1907902Y1391936D02*
X2091940D01*
X1907916Y1518836D02*
X2091927D01*
X1908035Y1378436D02*
X2091808D01*
X1908040Y1381136D02*
X2091802D01*
X1908053Y1508036D02*
X2091789D01*
X1908152Y1516136D02*
X2091690D01*
X1908165Y1389236D02*
X2091678D01*
X1908170Y1370336D02*
X2091673D01*
X1908275Y1526936D02*
X2091568D01*
X1908286Y1400036D02*
X2091556D01*
X1909752Y1359536D02*
X2091551D01*
X1908390Y1537736D02*
X2091453D01*
X1909843Y1548536D02*
X2091344D01*
X1906304Y1506236D02*
X2091289D01*
X1909911Y1541336D02*
X2091167D01*
X1908769Y1530536D02*
X2091074D01*
X1906656Y1496336D02*
X2091034D01*
X1909964Y1366736D02*
X2090998D01*
X1908848Y1392836D02*
X2090994D01*
X1908857Y1519736D02*
X2090986D01*
X1908929Y1377536D02*
X2090914D01*
X1908932Y1382036D02*
X2090910D01*
X1908940Y1508936D02*
X2090902D01*
X1909001Y1515236D02*
X2090841D01*
X1909009Y1388336D02*
X2090834D01*
X1909012Y1371236D02*
X2090830D01*
X1909077Y1526036D02*
X2090765D01*
X1909085Y1399136D02*
X2090758D01*
X1910017Y1360436D02*
X2090755D01*
X1907108Y1411736D02*
X2090748D01*
X1909150Y1536836D02*
X2090693D01*
X1910027Y1547636D02*
X2090624D01*
X1910028Y1542236D02*
X2090512D01*
X1909390Y1531436D02*
X2090453D01*
X1910028Y1365836D02*
X2090404D01*
X1909441Y1393736D02*
X2090402D01*
X1909446Y1520636D02*
X2090397D01*
X1907754Y1402736D02*
X2090367D01*
X1909492Y1376636D02*
X2090351D01*
X1909494Y1382936D02*
X2090349D01*
X1909499Y1509836D02*
X2090344D01*
X1909537Y1514336D02*
X2090305D01*
X1909542Y1387436D02*
X2090300D01*
X1909544Y1372136D02*
X2090298D01*
X1909585Y1525136D02*
X2090257D01*
X1909590Y1398236D02*
X2090253D01*
X1910028Y1361336D02*
X2090251D01*
X1908022Y1505336D02*
X2090223D01*
X1909630Y1535936D02*
X2090212D01*
X1910028Y1546736D02*
X2090170D01*
X1908182Y1497236D02*
X2090143D01*
X1910028Y1543136D02*
X2090102D01*
X1909776Y1532336D02*
X2090066D01*
X1908401Y1410836D02*
X2090041D01*
X1910028Y1364936D02*
X2090038D01*
X1909806Y1394636D02*
X2090037D01*
X1909809Y1521536D02*
X2090034D01*
X1909835Y1375736D02*
X2090007D01*
X1909836Y1383836D02*
X2090006D01*
X1909839Y1510736D02*
X2090003D01*
X1909861Y1513436D02*
X2089982D01*
X1909863Y1386536D02*
X2089979D01*
X1909865Y1373036D02*
X2089978D01*
X1909887Y1524236D02*
X2089956D01*
X1909889Y1397336D02*
X2089953D01*
X1910028Y1362236D02*
X2089952D01*
X1909911Y1535036D02*
X2089932D01*
X1910028Y1545836D02*
X2089910D01*
X1908760Y1403636D02*
X2089904D01*
X1910028Y1544036D02*
X2089878D01*
X1909980Y1533236D02*
X2089862D01*
X1908921Y1504436D02*
X2089858D01*
X1910028Y1364036D02*
X2089851D01*
X1909992Y1395536D02*
X2089850D01*
X1909993Y1522436D02*
X2089849D01*
X1910003Y1374836D02*
X2089839D01*
X1910004Y1384736D02*
X2089839D01*
X1910005Y1511636D02*
X2089838D01*
X1909020Y1498136D02*
X2089837D01*
X1910011Y1512536D02*
X2089831D01*
X1910012Y1385636D02*
X2089830D01*
X1910013Y1373936D02*
X2089830D01*
X1910019Y1523336D02*
X2089824D01*
X1910019Y1396436D02*
X2089823D01*
X1910028Y1363136D02*
X2089823D01*
X1910024Y1534136D02*
X2089819D01*
X1909156Y1409936D02*
X2089819D01*
X1910028Y1544936D02*
X2089816D01*
X1909487Y1503536D02*
X2089815D01*
X1909832Y1502636D02*
X2089815D01*
X1910002Y1501736D02*
X2089815D01*
X1910013Y1500836D02*
X2089815D01*
X1909867Y1499936D02*
X2089815D01*
X1909549Y1499036D02*
X2089815D01*
X1909634Y1409036D02*
X2089815D01*
X1909913Y1408136D02*
X2089815D01*
X1910024Y1407236D02*
X2089815D01*
X1909979Y1406336D02*
X2089815D01*
X1909773Y1405436D02*
X2089815D01*
X1909384Y1404536D02*
X2089815D01*
X2049862Y1877036D02*
X2077830D01*
X2051715Y1860836D02*
X2076766D01*
X2052582Y1876136D02*
X2076330D01*
X2053278Y1861736D02*
X2076038D01*
X2053784Y1875236D02*
X2075881D01*
X2054239Y1862636D02*
X2075804D01*
X2054588Y1874336D02*
X2075799D01*
X2055154Y1873436D02*
X2075799D01*
X2055546Y1872536D02*
X2075799D01*
X2055796Y1871636D02*
X2075799D01*
X2055918Y1870736D02*
X2075799D01*
X2055933Y1869836D02*
X2075799D01*
X2055933Y1868936D02*
X2075799D01*
X2055933Y1868036D02*
X2075799D01*
X2055933Y1867136D02*
X2075799D01*
X2055875Y1866236D02*
X2075799D01*
X2055693Y1865336D02*
X2075799D01*
X2055378Y1864436D02*
X2075799D01*
X2054908Y1863536D02*
X2075799D01*
X2020500Y1877036D02*
X2048405D01*
X1933468Y1860836D02*
X2046553D01*
X2020500Y1876136D02*
X2045686D01*
X1933492Y1861736D02*
X2044990D01*
X2020500Y1875236D02*
X2044483D01*
X1933450Y1862636D02*
X2044028D01*
X2020500Y1874336D02*
X2043680D01*
X1933341Y1863536D02*
X2043360D01*
X2020500Y1873436D02*
X2043114D01*
X1933164Y1864436D02*
X2042890D01*
X2020500Y1872536D02*
X2042721D01*
X1932916Y1865336D02*
X2042575D01*
X2020500Y1871636D02*
X2042472D01*
X1932592Y1866236D02*
X2042393D01*
X2020478Y1870736D02*
X2042350D01*
X2020173Y1869836D02*
X2042335D01*
X2019284Y1868936D02*
X2042335D01*
X1931685Y1868036D02*
X2042335D01*
X1932184Y1867136D02*
X2042335D01*
X2028578Y1310036D02*
X2042051D01*
X2029288Y1326236D02*
X2040808D01*
X2029860Y1310936D02*
X2039675D01*
X2030072Y1325336D02*
X2039168D01*
X2030277Y1311836D02*
X2038511D01*
X2030332Y1324436D02*
X2038179D01*
X2030343Y1312736D02*
X2037728D01*
X2030343Y1323536D02*
X2037494D01*
X2030343Y1313636D02*
X2037175D01*
X2030343Y1322636D02*
X2037012D01*
X2030343Y1314536D02*
X2036794D01*
X2030343Y1321736D02*
X2036687D01*
X2030343Y1315436D02*
X2036554D01*
X2030343Y1320836D02*
X2036496D01*
X2030343Y1316336D02*
X2036441D01*
X2030343Y1319936D02*
X2036429D01*
X2030343Y1319036D02*
X2036429D01*
X2030343Y1318136D02*
X2036429D01*
X2030343Y1317236D02*
X2036429D01*
X1973539Y1310036D02*
X2018508D01*
X1974783Y1326236D02*
X2017798D01*
X1975916Y1310936D02*
X2017226D01*
X1976422Y1325336D02*
X2017014D01*
X1977080Y1311836D02*
X2016810D01*
X1977411Y1324436D02*
X2016754D01*
X1978096Y1323536D02*
X2016744D01*
X1978579Y1322636D02*
X2016744D01*
X1978904Y1321736D02*
X2016744D01*
X1979094Y1320836D02*
X2016744D01*
X1979161Y1319936D02*
X2016744D01*
X1979161Y1319036D02*
X2016744D01*
X1979161Y1318136D02*
X2016744D01*
X1979161Y1317236D02*
X2016744D01*
X1979150Y1316336D02*
X2016744D01*
X1979037Y1315436D02*
X2016744D01*
X1978797Y1314536D02*
X2016744D01*
X1978415Y1313636D02*
X2016744D01*
X1977863Y1312736D02*
X2016744D01*
X1986824Y1868936D02*
X2008118D01*
X1987471Y1887836D02*
X2007694D01*
X1988355Y1869836D02*
X2007228D01*
X1988730Y1886936D02*
X2007076D01*
X1989304Y1870736D02*
X2006923D01*
X1989562Y1886036D02*
X2006902D01*
X1990148Y1885136D02*
X2006902D01*
X1990555Y1884236D02*
X2006902D01*
X1990817Y1883336D02*
X2006902D01*
X1990951Y1882436D02*
X2006902D01*
X1990972Y1881536D02*
X2006902D01*
X1990972Y1880636D02*
X2006902D01*
X1990972Y1879736D02*
X2006902D01*
X1990972Y1878836D02*
X2006902D01*
X1990972Y1877936D02*
X2006902D01*
X1990972Y1877036D02*
X2006902D01*
X1990972Y1876136D02*
X2006902D01*
X1990972Y1875236D02*
X2006902D01*
X1990918Y1874336D02*
X2006902D01*
X1990740Y1873436D02*
X2006902D01*
X1990430Y1872536D02*
X2006902D01*
X1989965Y1871636D02*
X2006902D01*
X1931078Y1868936D02*
X1981522D01*
X1932305Y1887836D02*
X1980875D01*
X1930345Y1869836D02*
X1979991D01*
X1931832Y1886936D02*
X1979616D01*
X1929449Y1870736D02*
X1979042D01*
X1931256Y1886036D02*
X1978784D01*
X1928332Y1871636D02*
X1978381D01*
X1930560Y1885136D02*
X1978199D01*
X1926863Y1872536D02*
X1977916D01*
X1929714Y1884236D02*
X1977792D01*
X1924618Y1873436D02*
X1977606D01*
X1928666Y1883336D02*
X1977530D01*
X1865933Y1874336D02*
X1977429D01*
X1927314Y1882436D02*
X1977396D01*
X1925375Y1881536D02*
X1977374D01*
X1886410Y1880636D02*
X1977374D01*
X1865933Y1879736D02*
X1977374D01*
X1865933Y1878836D02*
X1977374D01*
X1865933Y1877936D02*
X1977374D01*
X1865933Y1877036D02*
X1977374D01*
X1865933Y1876136D02*
X1977374D01*
X1865933Y1875236D02*
X1977374D01*
X1957712Y1310036D02*
X1971185D01*
X1958422Y1326236D02*
X1969942D01*
X1958994Y1310936D02*
X1968808D01*
X1959206Y1325336D02*
X1968302D01*
X1959411Y1311836D02*
X1967645D01*
X1959466Y1324436D02*
X1967313D01*
X1959476Y1312736D02*
X1966862D01*
X1959476Y1323536D02*
X1966628D01*
X1959476Y1313636D02*
X1966309D01*
X1959476Y1322636D02*
X1966146D01*
X1959476Y1314536D02*
X1965928D01*
X1959476Y1321736D02*
X1965821D01*
X1959476Y1315436D02*
X1965688D01*
X1959476Y1320836D02*
X1965630D01*
X1959476Y1316336D02*
X1965575D01*
X1959476Y1319936D02*
X1965563D01*
X1959476Y1319036D02*
X1965563D01*
X1959476Y1318136D02*
X1965563D01*
X1959476Y1317236D02*
X1965563D01*
X1893912Y1310036D02*
X1947642D01*
X1865933Y1326236D02*
X1946932D01*
X1893460Y1310936D02*
X1946360D01*
X1865933Y1325336D02*
X1946148D01*
X1892918Y1311836D02*
X1945944D01*
X1865933Y1324436D02*
X1945888D01*
X1865933Y1323536D02*
X1945878D01*
X1865933Y1322636D02*
X1945878D01*
X1865933Y1321736D02*
X1945878D01*
X1865933Y1320836D02*
X1945878D01*
X1865933Y1319936D02*
X1945878D01*
X1865933Y1319036D02*
X1945878D01*
X1865933Y1318136D02*
X1945878D01*
X1885718Y1317236D02*
X1945878D01*
X1887921Y1316336D02*
X1945878D01*
X1889412Y1315436D02*
X1945878D01*
X1890563Y1314536D02*
X1945878D01*
X1891496Y1313636D02*
X1945878D01*
X1892270Y1312736D02*
X1945878D01*
X1887887Y1904936D02*
X1917758D01*
X1865933Y1873436D02*
X1917744D01*
X1865933Y1850036D02*
X1916998D01*
X1888353Y1881536D02*
X1916987D01*
X1889387Y1904036D02*
X1915507D01*
X1865933Y1872536D02*
X1915499D01*
X1865933Y1850936D02*
X1915055D01*
X1889737Y1882436D02*
X1915048D01*
X1890543Y1903136D02*
X1914036D01*
X1865933Y1871636D02*
X1914031D01*
X1865933Y1851836D02*
X1913702D01*
X1890823Y1883336D02*
X1913696D01*
X1891480Y1902236D02*
X1912917D01*
X1865933Y1870736D02*
X1912913D01*
X1865933Y1852736D02*
X1912653D01*
X1891711Y1884236D02*
X1912649D01*
X1892256Y1901336D02*
X1912021D01*
X1865933Y1869836D02*
X1912018D01*
X1865933Y1853636D02*
X1911805D01*
X1892449Y1885136D02*
X1911802D01*
X1892906Y1900436D02*
X1911287D01*
X1865933Y1868936D02*
X1911284D01*
X1865933Y1854536D02*
X1911109D01*
X1893068Y1886036D02*
X1911106D01*
X1893451Y1899536D02*
X1910680D01*
X1865933Y1868036D02*
X1910677D01*
X1865933Y1855436D02*
X1910533D01*
X1893586Y1886936D02*
X1910530D01*
X1893904Y1898636D02*
X1910180D01*
X1865933Y1867136D02*
X1910178D01*
X1865933Y1856336D02*
X1910059D01*
X1894015Y1887836D02*
X1910057D01*
X1894276Y1897736D02*
X1909772D01*
X1865933Y1866236D02*
X1909770D01*
X1865933Y1857236D02*
X1909675D01*
X1894366Y1888736D02*
X1909673D01*
X1894574Y1896836D02*
X1909447D01*
X1865933Y1865336D02*
X1909446D01*
X1865933Y1858136D02*
X1909372D01*
X1894644Y1889636D02*
X1909371D01*
X1894803Y1895936D02*
X1909199D01*
X1865933Y1864436D02*
X1909198D01*
X1865933Y1859036D02*
X1909143D01*
X1894855Y1890536D02*
X1909142D01*
X1894966Y1895036D02*
X1909022D01*
X1865933Y1863536D02*
X1909021D01*
X1865933Y1859936D02*
X1908985D01*
X1895000Y1891436D02*
X1908984D01*
X1895067Y1894136D02*
X1908913D01*
X1865933Y1862636D02*
X1908913D01*
X1865933Y1860836D02*
X1908895D01*
X1895084Y1892336D02*
X1908894D01*
X1895106Y1893236D02*
X1908871D01*
X1865933Y1861736D02*
X1908871D01*
X1898842Y1401836D02*
X1903499D01*
X1898841Y1528736D02*
X1903493D01*
X1898836Y1391036D02*
X1903421D01*
X1898833Y1517936D02*
X1903411D01*
X1898830Y1506236D02*
X1903303D01*
X1898829Y1379336D02*
X1903283D01*
X1898825Y1380236D02*
X1903274D01*
X1898824Y1507136D02*
X1903251D01*
X1898820Y1517036D02*
X1903017D01*
X1898815Y1390136D02*
X1902989D01*
X1865933Y1496336D02*
X1902950D01*
X1898814Y1369436D02*
X1902779D01*
X1898804Y1527836D02*
X1902750D01*
X1898802Y1400936D02*
X1902726D01*
X1898845Y1539536D02*
X1902644D01*
X1898789Y1538636D02*
X1902519D01*
X1865933Y1411736D02*
X1902498D01*
X1898725Y1402736D02*
X1901853D01*
X1898722Y1529636D02*
X1901838D01*
X1898700Y1391936D02*
X1901704D01*
X1898688Y1518836D02*
X1901690D01*
X1898678Y1505336D02*
X1901585D01*
X1898675Y1378436D02*
X1901571D01*
X1898663Y1381136D02*
X1901566D01*
X1898660Y1508036D02*
X1901553D01*
X1898649Y1516136D02*
X1901454D01*
X1898635Y1389236D02*
X1901442D01*
X1898633Y1370336D02*
X1901436D01*
X1865933Y1497236D02*
X1901424D01*
X1898606Y1526936D02*
X1901332D01*
X1898602Y1400036D02*
X1901320D01*
X1898837Y1368536D02*
X1901306D01*
X1898571Y1537736D02*
X1901216D01*
X1865933Y1410836D02*
X1901206D01*
X1898440Y1403636D02*
X1900846D01*
X1898435Y1530536D02*
X1900838D01*
X1898394Y1392836D02*
X1900758D01*
X1898371Y1519736D02*
X1900749D01*
X1898352Y1504436D02*
X1900685D01*
X1898348Y1377536D02*
X1900677D01*
X1898327Y1382036D02*
X1900674D01*
X1898322Y1508936D02*
X1900666D01*
X1865933Y1358636D02*
X1900648D01*
X1898301Y1515236D02*
X1900605D01*
X1898276Y1388336D02*
X1900597D01*
X1898274Y1371236D02*
X1900594D01*
X1865933Y1498136D02*
X1900587D01*
X1898227Y1526036D02*
X1900529D01*
X1898221Y1399136D02*
X1900522D01*
X1898169Y1536836D02*
X1900457D01*
X1865933Y1409936D02*
X1900450D01*
X1865933Y1549436D02*
X1900399D01*
X1897953Y1404536D02*
X1900222D01*
X1897946Y1531436D02*
X1900216D01*
X1898745Y1540436D02*
X1900212D01*
X1897880Y1393736D02*
X1900166D01*
X1897844Y1520636D02*
X1900160D01*
X1897814Y1503536D02*
X1900120D01*
X1897807Y1376636D02*
X1900115D01*
X1897773Y1382936D02*
X1900112D01*
X1897766Y1509836D02*
X1900107D01*
X1897734Y1514336D02*
X1900069D01*
X1897694Y1387436D02*
X1900064D01*
X1897691Y1372136D02*
X1900062D01*
X1865933Y1499036D02*
X1900057D01*
X1898701Y1367636D02*
X1900053D01*
X1897616Y1525136D02*
X1900021D01*
X1897607Y1398236D02*
X1900017D01*
X1897524Y1535936D02*
X1899976D01*
X1865933Y1409036D02*
X1899972D01*
X1865933Y1359536D02*
X1899854D01*
X1897184Y1405436D02*
X1899833D01*
X1897173Y1532336D02*
X1899830D01*
X1897068Y1394636D02*
X1899800D01*
X1897010Y1521536D02*
X1899797D01*
X1896961Y1502636D02*
X1899774D01*
X1896949Y1375736D02*
X1899771D01*
X1896895Y1383836D02*
X1899770D01*
X1896883Y1510736D02*
X1899767D01*
X1865933Y1548536D02*
X1899764D01*
X1896830Y1513436D02*
X1899746D01*
X1896765Y1386536D02*
X1899743D01*
X1896760Y1373036D02*
X1899742D01*
X1865933Y1499936D02*
X1899739D01*
X1896635Y1524236D02*
X1899719D01*
X1896620Y1397336D02*
X1899717D01*
X1898478Y1541336D02*
X1899696D01*
X1896479Y1535036D02*
X1899696D01*
X1865933Y1408136D02*
X1899693D01*
X1898396Y1366736D02*
X1899642D01*
X1895859Y1406336D02*
X1899627D01*
X1895837Y1533236D02*
X1899626D01*
X1895621Y1395536D02*
X1899614D01*
X1895496Y1522436D02*
X1899613D01*
X1895385Y1501736D02*
X1899604D01*
X1895357Y1374836D02*
X1899603D01*
X1895227Y1384736D02*
X1899603D01*
X1895196Y1511636D02*
X1899602D01*
X1895108Y1512536D02*
X1899595D01*
X1895001Y1385636D02*
X1899594D01*
X1895034Y1373936D02*
X1899594D01*
X1865933Y1500836D02*
X1899593D01*
X1865933Y1360436D02*
X1899590D01*
X1894905Y1523336D02*
X1899588D01*
X1894947Y1396436D02*
X1899587D01*
X1894898Y1534136D02*
X1899582D01*
X1865933Y1407236D02*
X1899582D01*
X1865933Y1547636D02*
X1899579D01*
X1865933Y1546736D02*
X1899579D01*
X1865933Y1545836D02*
X1899579D01*
X1865933Y1544936D02*
X1899579D01*
X1896049Y1544036D02*
X1899579D01*
X1897284Y1543136D02*
X1899579D01*
X1898016Y1542236D02*
X1899579D01*
X1897883Y1365836D02*
X1899579D01*
X1897073Y1364936D02*
X1899579D01*
X1895631Y1364036D02*
X1899579D01*
X1865933Y1363136D02*
X1899579D01*
X1865933Y1362236D02*
X1899579D01*
X1865933Y1361336D02*
X1899579D01*
X1865933Y1466636D02*
X1898839D01*
X1865933Y1328936D02*
X1897988D01*
X1865933Y1441436D02*
X1897503D01*
X1865933Y1579136D02*
X1897152D01*
X1865933Y1565636D02*
X1896372D01*
X1865933Y1427936D02*
X1896160D01*
X1865933Y1342436D02*
X1895953D01*
X1865933Y1480136D02*
X1895772D01*
X1865933Y1467536D02*
X1895711D01*
X1865933Y1329836D02*
X1895545D01*
X1865933Y1440536D02*
X1895380D01*
X1865933Y1578236D02*
X1895233D01*
X1865933Y1566536D02*
X1894836D01*
X1865933Y1428836D02*
X1894715D01*
X1865933Y1341536D02*
X1894591D01*
X1865933Y1479236D02*
X1894480D01*
X1865933Y1468436D02*
X1894442D01*
X1865933Y1330736D02*
X1894337D01*
X1865933Y1439636D02*
X1894229D01*
X1865933Y1577336D02*
X1894132D01*
X1865933Y1567436D02*
X1893863D01*
X1865933Y1429736D02*
X1893779D01*
X1865933Y1340636D02*
X1893693D01*
X1865933Y1478336D02*
X1893615D01*
X1865933Y1469336D02*
X1893588D01*
X1865933Y1331636D02*
X1893513D01*
X1865933Y1438736D02*
X1893437D01*
X1865933Y1576436D02*
X1893367D01*
X1865933Y1568336D02*
X1893174D01*
X1865933Y1430636D02*
X1893114D01*
X1865933Y1339736D02*
X1893052D01*
X1865933Y1477436D02*
X1892995D01*
X1865933Y1470236D02*
X1892976D01*
X1865933Y1332536D02*
X1892922D01*
X1865933Y1437836D02*
X1892867D01*
X1865933Y1575536D02*
X1892817D01*
X1865933Y1569236D02*
X1892679D01*
X1865933Y1431536D02*
X1892636D01*
X1865933Y1338836D02*
X1892592D01*
X1865933Y1476536D02*
X1892552D01*
X1865933Y1471136D02*
X1892539D01*
X1865933Y1333436D02*
X1892501D01*
X1865933Y1436936D02*
X1892463D01*
X1865933Y1574636D02*
X1892429D01*
X1865933Y1534136D02*
X1892346D01*
X1865933Y1523336D02*
X1892339D01*
X1865933Y1570136D02*
X1892336D01*
X1865933Y1432436D02*
X1892307D01*
X1865933Y1396436D02*
X1892298D01*
X1865933Y1337936D02*
X1892278D01*
X1865933Y1475636D02*
X1892253D01*
X1865933Y1472036D02*
X1892244D01*
X1865933Y1385636D02*
X1892243D01*
X1865933Y1334336D02*
X1892221D01*
X1865933Y1373936D02*
X1892210D01*
X1865933Y1436036D02*
X1892197D01*
X1865933Y1573736D02*
X1892176D01*
X1865933Y1512536D02*
X1892136D01*
X1865933Y1571036D02*
X1892122D01*
X1865933Y1433336D02*
X1892106D01*
X1865933Y1337036D02*
X1892091D01*
X1865933Y1474736D02*
X1892078D01*
X1865933Y1472936D02*
X1892074D01*
X1865933Y1335236D02*
X1892063D01*
X1865933Y1435136D02*
X1892053D01*
X1865933Y1511636D02*
X1892048D01*
X1865933Y1572836D02*
X1892044D01*
X1865933Y1571936D02*
X1892026D01*
X1865933Y1434236D02*
X1892023D01*
X1865933Y1336136D02*
X1892021D01*
X1865933Y1473836D02*
X1892020D01*
X1865933Y1384736D02*
X1892017D01*
X1865933Y1374836D02*
X1891887D01*
X1865933Y1501736D02*
X1891859D01*
X1865933Y1522436D02*
X1891748D01*
X1865933Y1395536D02*
X1891623D01*
X1865933Y1364036D02*
X1891613D01*
X1865933Y1533236D02*
X1891407D01*
X1865933Y1406336D02*
X1891386D01*
X1865933Y1544036D02*
X1891195D01*
X1865933Y1535036D02*
X1890765D01*
X1865933Y1397336D02*
X1890624D01*
X1865933Y1524236D02*
X1890609D01*
X1865933Y1373036D02*
X1890485D01*
X1865933Y1386536D02*
X1890479D01*
X1865933Y1513436D02*
X1890414D01*
X1865933Y1510736D02*
X1890362D01*
X1865933Y1383836D02*
X1890349D01*
X1865933Y1375736D02*
X1890295D01*
X1865933Y1502636D02*
X1890283D01*
X1865933Y1521536D02*
X1890234D01*
X1865933Y1394636D02*
X1890176D01*
X1865933Y1364936D02*
X1890171D01*
X1865933Y1532336D02*
X1890071D01*
X1865933Y1405436D02*
X1890060D01*
X1865933Y1543136D02*
X1889960D01*
X1865933Y1535936D02*
X1889720D01*
X1865933Y1398236D02*
X1889637D01*
X1865933Y1525136D02*
X1889628D01*
X1865933Y1372136D02*
X1889553D01*
X1865933Y1387436D02*
X1889550D01*
X1865933Y1514336D02*
X1889511D01*
X1865933Y1509836D02*
X1889479D01*
X1865933Y1382936D02*
X1889471D01*
X1865933Y1376636D02*
X1889438D01*
X1865933Y1503536D02*
X1889430D01*
X1865933Y1520636D02*
X1889400D01*
X1865933Y1393736D02*
X1889364D01*
X1865933Y1365836D02*
X1889361D01*
X1865933Y1531436D02*
X1889298D01*
X1865933Y1404536D02*
X1889291D01*
X1865933Y1542236D02*
X1889228D01*
X1865933Y1536836D02*
X1889076D01*
X1865933Y1399136D02*
X1889023D01*
X1865933Y1526036D02*
X1889017D01*
X1865933Y1371236D02*
X1888970D01*
X1865933Y1388336D02*
X1888968D01*
X1865933Y1515236D02*
X1888943D01*
X1865933Y1508936D02*
X1888922D01*
X1865933Y1382036D02*
X1888917D01*
X1865933Y1377536D02*
X1888897D01*
X1865933Y1504436D02*
X1888892D01*
X1865933Y1519736D02*
X1888873D01*
X1865933Y1392836D02*
X1888850D01*
X1865933Y1366736D02*
X1888848D01*
X1865933Y1530536D02*
X1888809D01*
X1865933Y1403636D02*
X1888805D01*
X1865933Y1541336D02*
X1888766D01*
X1865933Y1537736D02*
X1888673D01*
X1865933Y1400036D02*
X1888642D01*
X1865933Y1526936D02*
X1888639D01*
X1865933Y1370336D02*
X1888611D01*
X1865933Y1389236D02*
X1888610D01*
X1865933Y1516136D02*
X1888595D01*
X1865933Y1508036D02*
X1888584D01*
X1865933Y1381136D02*
X1888581D01*
X1865933Y1378436D02*
X1888569D01*
X1865933Y1505336D02*
X1888567D01*
X1865933Y1518836D02*
X1888556D01*
X1865933Y1391936D02*
X1888544D01*
X1865933Y1367636D02*
X1888543D01*
X1865933Y1529636D02*
X1888522D01*
X1865933Y1402736D02*
X1888519D01*
X1865933Y1540436D02*
X1888499D01*
X1865933Y1538636D02*
X1888455D01*
X1865933Y1400936D02*
X1888442D01*
X1865933Y1527836D02*
X1888441D01*
X1865933Y1369436D02*
X1888430D01*
X1865933Y1390136D02*
X1888429D01*
X1865933Y1517036D02*
X1888424D01*
X1865933Y1507136D02*
X1888420D01*
X1865933Y1380236D02*
X1888419D01*
X1865933Y1379336D02*
X1888415D01*
X1865933Y1506236D02*
X1888414D01*
X1865933Y1517936D02*
X1888411D01*
X1865933Y1391036D02*
X1888408D01*
X1865933Y1368536D02*
X1888408D01*
X1865933Y1528736D02*
X1888403D01*
X1865933Y1401836D02*
X1888402D01*
X1865933Y1539536D02*
X1888399D01*
X1865933Y1674536D02*
X1881157D01*
X1865933Y1832036D02*
X1880997D01*
X1865933Y1725836D02*
X1880978D01*
X1865933Y1694336D02*
X1880473D01*
X1865933Y1706036D02*
X1880379D01*
X1865933Y1714136D02*
X1880044D01*
X1865933Y1843736D02*
X1880035D01*
X1865933Y1686236D02*
X1879973D01*
X1865933Y1291136D02*
X1879780D01*
X1865933Y1733936D02*
X1879706D01*
X1865933Y1823936D02*
X1879699D01*
X1865933Y1666436D02*
X1879647D01*
X1865933Y1753736D02*
X1879421D01*
X1865933Y1804136D02*
X1879415D01*
X1865933Y1646636D02*
X1879370D01*
X1865933Y1616036D02*
X1879212D01*
X1865933Y1773536D02*
X1879171D01*
X1865933Y1784336D02*
X1879166D01*
X1865933Y1626836D02*
X1879126D01*
X1865933Y1635836D02*
X1878985D01*
X1865933Y1793336D02*
X1878948D01*
X1865933Y1764536D02*
X1878943D01*
X1865933Y1655636D02*
X1878779D01*
X1865933Y1813136D02*
X1878745D01*
X1865933Y1744736D02*
X1878741D01*
X1865933Y1675436D02*
X1878590D01*
X1865933Y1832936D02*
X1878559D01*
X1865933Y1724936D02*
X1878555D01*
X1865933Y1695236D02*
X1878416D01*
X1865933Y1705136D02*
X1878383D01*
X1865933Y1715036D02*
X1878253D01*
X1865933Y1842836D02*
X1878250D01*
X1865933Y1685336D02*
X1878223D01*
X1865933Y1734836D02*
X1878102D01*
X1865933Y1823036D02*
X1878099D01*
X1865933Y1665536D02*
X1878074D01*
X1865933Y1905836D02*
X1877960D01*
X1865933Y1754636D02*
X1877960D01*
X1865933Y1803236D02*
X1877957D01*
X1865933Y1645736D02*
X1877933D01*
X1865933Y1317236D02*
X1877904D01*
X1865933Y1616936D02*
X1877848D01*
X1865933Y1774436D02*
X1877826D01*
X1865933Y1783436D02*
X1877823D01*
X1865933Y1625936D02*
X1877801D01*
X1865933Y1636736D02*
X1877721D01*
X1865933Y1794236D02*
X1877700D01*
X1865933Y1763636D02*
X1877697D01*
X1865933Y1656536D02*
X1877600D01*
X1865933Y1814036D02*
X1877580D01*
X1865933Y1743836D02*
X1877578D01*
X1865933Y1676336D02*
X1877486D01*
X1865933Y1833836D02*
X1877467D01*
X1865933Y1724036D02*
X1877465D01*
X1865933Y1696136D02*
X1877378D01*
X1865933Y1704236D02*
X1877358D01*
X1865933Y1715936D02*
X1877276D01*
X1865933Y1841936D02*
X1877273D01*
X1865933Y1292036D02*
X1877259D01*
X1865933Y1684436D02*
X1877256D01*
X1865933Y1880636D02*
X1877212D01*
X1865933Y1735736D02*
X1877178D01*
X1865933Y1822136D02*
X1877176D01*
X1865933Y1664636D02*
X1877160D01*
X1865933Y1755536D02*
X1877085D01*
X1865933Y1802336D02*
X1877083D01*
X1865933Y1644836D02*
X1877068D01*
X1865933Y1617836D02*
X1877012D01*
X1865933Y1775336D02*
X1876997D01*
X1865933Y1782536D02*
X1876995D01*
X1865933Y1625036D02*
X1876981D01*
X1865933Y1637636D02*
X1876927D01*
X1865933Y1795136D02*
X1876913D01*
X1865933Y1762736D02*
X1876911D01*
X1865933Y1657436D02*
X1876847D01*
X1865933Y1814936D02*
X1876833D01*
X1865933Y1742936D02*
X1876832D01*
X1865933Y1677236D02*
X1876770D01*
X1865933Y1834736D02*
X1876758D01*
X1865933Y1723136D02*
X1876756D01*
X1865933Y1697036D02*
X1876697D01*
X1865933Y1703336D02*
X1876684D01*
X1865933Y1716836D02*
X1876628D01*
X1865933Y1841036D02*
X1876627D01*
X1865933Y1683536D02*
X1876615D01*
X1865933Y1736636D02*
X1876562D01*
X1865933Y1821236D02*
X1876561D01*
X1865933Y1663736D02*
X1876550D01*
X1865933Y1756436D02*
X1876500D01*
X1865933Y1801436D02*
X1876498D01*
X1865933Y1643936D02*
X1876488D01*
X1865933Y1618736D02*
X1876450D01*
X1865933Y1776236D02*
X1876440D01*
X1865933Y1781636D02*
X1876439D01*
X1865933Y1624136D02*
X1876429D01*
X1865933Y1638536D02*
X1876393D01*
X1865933Y1796036D02*
X1876384D01*
X1865933Y1761836D02*
X1876383D01*
X1865933Y1658336D02*
X1876340D01*
X1865933Y1815836D02*
X1876331D01*
X1865933Y1742036D02*
X1876329D01*
X1865933Y1678136D02*
X1876289D01*
X1865933Y1835636D02*
X1876280D01*
X1865933Y1722236D02*
X1876279D01*
X1865933Y1697936D02*
X1876241D01*
X1865933Y1702436D02*
X1876232D01*
X1865933Y1717736D02*
X1876195D01*
X1865933Y1840136D02*
X1876194D01*
X1865933Y1682636D02*
X1876187D01*
X1865933Y1737536D02*
X1876153D01*
X1865933Y1820336D02*
X1876152D01*
X1865933Y1662836D02*
X1876145D01*
X1865933Y1757336D02*
X1876113D01*
X1865933Y1800536D02*
X1876112D01*
X1865933Y1643036D02*
X1876105D01*
X1865933Y1619636D02*
X1876082D01*
X1865933Y1777136D02*
X1876075D01*
X1865933Y1780736D02*
X1876075D01*
X1865933Y1623236D02*
X1876068D01*
X1865933Y1639436D02*
X1876046D01*
X1865933Y1796936D02*
X1876041D01*
X1865933Y1760936D02*
X1876040D01*
X1865933Y1659236D02*
X1876014D01*
X1865933Y1816736D02*
X1876008D01*
X1865933Y1741136D02*
X1876007D01*
X1865933Y1679036D02*
X1875983D01*
X1865933Y1836536D02*
X1875978D01*
X1865933Y1721336D02*
X1875978D01*
X1865933Y1698836D02*
X1875955D01*
X1865933Y1701536D02*
X1875950D01*
X1865933Y1718636D02*
X1875930D01*
X1865933Y1839236D02*
X1875929D01*
X1865933Y1681736D02*
X1875925D01*
X1865933Y1738436D02*
X1875907D01*
X1865933Y1819436D02*
X1875906D01*
X1865933Y1661936D02*
X1875902D01*
X1865933Y1758236D02*
X1875886D01*
X1865933Y1799636D02*
X1875885D01*
X1865933Y1642136D02*
X1875882D01*
X1865933Y1620536D02*
X1875870D01*
X1865933Y1778036D02*
X1875867D01*
X1865933Y1779836D02*
X1875867D01*
X1865933Y1622336D02*
X1875864D01*
X1865933Y1640336D02*
X1875853D01*
X1865933Y1797836D02*
X1875851D01*
X1865933Y1760036D02*
X1875850D01*
X1865933Y1660136D02*
X1875839D01*
X1865933Y1817636D02*
X1875837D01*
X1865933Y1740236D02*
X1875837D01*
X1865933Y1679936D02*
X1875827D01*
X1865933Y1837436D02*
X1875825D01*
X1865933Y1720436D02*
X1875825D01*
X1865933Y1699736D02*
X1875817D01*
X1865933Y1700636D02*
X1875815D01*
X1865933Y1719536D02*
X1875809D01*
X1865933Y1838336D02*
X1875809D01*
X1865933Y1680836D02*
X1875808D01*
X1865933Y1739336D02*
X1875804D01*
X1865933Y1818536D02*
X1875804D01*
X1865933Y1661036D02*
X1875803D01*
X1865933Y1759136D02*
X1875800D01*
X1865933Y1798736D02*
X1875800D01*
X1865933Y1641236D02*
X1875800D01*
X1865933Y1621436D02*
X1875799D01*
X1865933Y1778936D02*
X1875799D01*
X1865933Y1904936D02*
X1875735D01*
X1865933Y1316336D02*
X1875701D01*
X1865933Y1292936D02*
X1875300D01*
X1865933Y1881536D02*
X1875269D01*
X1865933Y1904036D02*
X1874235D01*
X1865933Y1315436D02*
X1874210D01*
X1865933Y1293836D02*
X1873909D01*
X1865933Y1882436D02*
X1873885D01*
X1865933Y1903136D02*
X1873079D01*
X1865933Y1314536D02*
X1873059D01*
X1865933Y1294736D02*
X1872817D01*
X1865933Y1883336D02*
X1872799D01*
X1865933Y1902236D02*
X1872142D01*
X1865933Y1313636D02*
X1872126D01*
X1865933Y1295636D02*
X1871927D01*
X1865933Y1884236D02*
X1871911D01*
X1865933Y1901336D02*
X1871366D01*
X1865933Y1312736D02*
X1871352D01*
X1865933Y1296536D02*
X1871186D01*
X1865933Y1885136D02*
X1871173D01*
X1865933Y1900436D02*
X1870716D01*
X1865933Y1311836D02*
X1870704D01*
X1865933Y1297436D02*
X1870565D01*
X1865933Y1886036D02*
X1870554D01*
X1865933Y1899536D02*
X1870172D01*
X1865933Y1310936D02*
X1870162D01*
X1865933Y1298336D02*
X1870046D01*
X1865933Y1886936D02*
X1870036D01*
X1865933Y1898636D02*
X1869718D01*
X1865933Y1310036D02*
X1869710D01*
X1865933Y1299236D02*
X1869614D01*
X1865933Y1887836D02*
X1869607D01*
X1865933Y1897736D02*
X1869346D01*
X1865933Y1309136D02*
X1869340D01*
X1865933Y1300136D02*
X1869262D01*
X1865933Y1888736D02*
X1869256D01*
X1865933Y1896836D02*
X1869048D01*
X1865933Y1308236D02*
X1869043D01*
X1865933Y1301036D02*
X1868982D01*
X1865933Y1889636D02*
X1868978D01*
X1865933Y1895936D02*
X1868819D01*
X1865933Y1307336D02*
X1868816D01*
X1865933Y1301936D02*
X1868771D01*
X1865933Y1890536D02*
X1868767D01*
X1865933Y1895036D02*
X1868656D01*
X1865933Y1306436D02*
X1868653D01*
X1865933Y1302836D02*
X1868624D01*
X1865933Y1891436D02*
X1868622D01*
X1865933Y1894136D02*
X1868555D01*
X1865933Y1305536D02*
X1868554D01*
X1865933Y1303736D02*
X1868539D01*
X1865933Y1892336D02*
X1868538D01*
X1865933Y1893236D02*
X1868516D01*
X1865933Y1304636D02*
X1868516D01*
G54D16*
X1904803Y1544843D03*
X2095039Y1501220D03*
X1904803Y1363425D03*
X2095039Y1407047D03*
G54D17*
X1904803Y1533937D03*
Y1523031D03*
Y1512126D03*
Y1501220D03*
X1893622Y1539409D03*
Y1528504D03*
Y1517559D03*
Y1506654D03*
X2095039Y1512126D03*
Y1523031D03*
Y1533937D03*
Y1544843D03*
X2106220Y1506654D03*
Y1517559D03*
Y1528504D03*
Y1539409D03*
X1904803Y1374331D03*
Y1385236D03*
Y1396142D03*
Y1407047D03*
X1893622Y1368858D03*
Y1379764D03*
Y1390709D03*
Y1401614D03*
X2095039Y1396142D03*
Y1385236D03*
Y1374331D03*
Y1363425D03*
X2106220Y1401614D03*
Y1390709D03*
Y1379764D03*
Y1368858D03*
G54D18*
X1899213Y1572244D03*
Y1473819D03*
X2100630D03*
Y1572244D03*
X1899213Y1434449D03*
Y1336024D03*
X2100630D03*
Y1434449D03*
G54D20*
X1881811Y1621457D03*
Y1641142D03*
Y1660827D03*
Y1680512D03*
Y1700197D03*
Y1719882D03*
Y1739567D03*
Y1759252D03*
Y1778937D03*
Y1798622D03*
Y1818307D03*
Y1837992D03*
X2098346Y1621457D03*
Y1641142D03*
Y1660827D03*
Y1680512D03*
Y1700197D03*
Y1719882D03*
Y1739567D03*
Y1759252D03*
Y1778937D03*
Y1798622D03*
Y1818307D03*
Y1837992D03*
G54D28*
X2082598Y1868701D03*
X1952677Y1318307D03*
X2023543D03*
G54D29*
X2049134Y1868701D03*
X1972362Y1318307D03*
X2043228D03*
G54D30*
X1921181Y1861614D03*
Y1893110D03*
G54D31*
X2013701Y1878543D03*
G54D33*
X2118031Y1893110D03*
X1881811D03*
Y1304528D03*
X2118031D03*
G54D38*
X2074724Y1609646D03*
X2073937Y1630906D03*
Y1693898D03*
Y1672638D03*
Y1652953D03*
X2002283Y1778937D03*
X2076299Y1758465D03*
X2075512Y1737205D03*
X2074724Y1716732D03*
X2002283Y1827756D03*
Y1794685D03*
Y1810433D03*
G54D39*
X1908497Y1519337D02*
X1906752Y1521083D01*
X1908497Y1526726D02*
X1906752Y1524980D01*
X1901109Y1526726D02*
X1902854Y1524980D01*
X1901109Y1519337D02*
X1902854Y1521083D01*
X1904299Y1567158D02*
X1902553Y1568903D01*
X1904299Y1577330D02*
X1902553Y1575585D01*
X1894126Y1577330D02*
X1895872Y1575585D01*
X1894126Y1567158D02*
X1895872Y1568903D01*
X1897316Y1535715D02*
X1895571Y1537461D01*
X1897316Y1543104D02*
X1895571Y1541358D01*
X1889928Y1543104D02*
X1891673Y1541358D01*
X1889928Y1535715D02*
X1891673Y1537461D01*
X1908497Y1497526D02*
X1906752Y1499272D01*
X1908497Y1504915D02*
X1906752Y1503169D01*
X1901109Y1504915D02*
X1902854Y1503169D01*
X1901109Y1497526D02*
X1902854Y1499272D01*
X1904299Y1468733D02*
X1902553Y1470478D01*
X1904299Y1478905D02*
X1902553Y1477160D01*
X1894126Y1478905D02*
X1895872Y1477160D01*
X1894126Y1468733D02*
X1895872Y1470478D01*
X1904299Y1429363D02*
X1902553Y1431108D01*
X1904299Y1439535D02*
X1902553Y1437789D01*
X1894126Y1439535D02*
X1895872Y1437789D01*
X1894126Y1429363D02*
X1895872Y1431108D01*
X1904299Y1330937D02*
X1902553Y1332683D01*
X1904299Y1341110D02*
X1902553Y1339364D01*
X1894126Y1341110D02*
X1895872Y1339364D01*
X1894126Y1330937D02*
X1895872Y1332683D01*
X1897316Y1365164D02*
X1895571Y1366910D01*
X1897316Y1372552D02*
X1895571Y1370807D01*
X1889928Y1372552D02*
X1891673Y1370807D01*
X1889928Y1365164D02*
X1891673Y1366910D01*
X1908497Y1403353D02*
X1906752Y1405099D01*
X1908497Y1410741D02*
X1906752Y1408996D01*
X1901109Y1410741D02*
X1902854Y1408996D01*
X1901109Y1403353D02*
X1902854Y1405099D01*
X1908497Y1381542D02*
X1906752Y1383288D01*
X1908497Y1388930D02*
X1906752Y1387185D01*
X1901109Y1388930D02*
X1902854Y1387185D01*
X1901109Y1381542D02*
X1902854Y1383288D01*
X2091345Y1388930D02*
X2093091Y1387185D01*
X2091345Y1381542D02*
X2093091Y1383288D01*
X2098734Y1381542D02*
X2096988Y1383288D01*
X2098734Y1388930D02*
X2096988Y1387185D01*
X2095544Y1341110D02*
X2097289Y1339364D01*
X2095544Y1330937D02*
X2097289Y1332683D01*
X2105716Y1330937D02*
X2103971Y1332683D01*
X2105716Y1341110D02*
X2103971Y1339364D01*
X2091345Y1367119D02*
X2093091Y1365374D01*
X2091345Y1359731D02*
X2093091Y1361476D01*
X2098734Y1359731D02*
X2096988Y1361476D01*
X2098734Y1367119D02*
X2096988Y1365374D01*
X2102526Y1405308D02*
X2104272Y1403563D01*
X2102526Y1397920D02*
X2104272Y1399665D01*
X2109915Y1397920D02*
X2108169Y1399665D01*
X2109915Y1405308D02*
X2108169Y1403563D01*
X2095544Y1439535D02*
X2097289Y1437789D01*
X2095544Y1429363D02*
X2097289Y1431108D01*
X2105716Y1429363D02*
X2103971Y1431108D01*
X2105716Y1439535D02*
X2103971Y1437789D01*
X2095544Y1478905D02*
X2097289Y1477160D01*
X2095544Y1468733D02*
X2097289Y1470478D01*
X2105716Y1468733D02*
X2103971Y1470478D01*
X2105716Y1478905D02*
X2103971Y1477160D01*
X2102526Y1510348D02*
X2104272Y1508602D01*
X2102526Y1502959D02*
X2104272Y1504705D01*
X2109915Y1502959D02*
X2108169Y1504705D01*
X2109915Y1510348D02*
X2108169Y1508602D01*
X2091345Y1526726D02*
X2093091Y1524980D01*
X2091345Y1519337D02*
X2093091Y1521083D01*
X2098734Y1519337D02*
X2096988Y1521083D01*
X2098734Y1526726D02*
X2096988Y1524980D01*
X2091345Y1548537D02*
X2093091Y1546791D01*
X2091345Y1541148D02*
X2093091Y1542894D01*
X2098734Y1541148D02*
X2096988Y1542894D01*
X2098734Y1548537D02*
X2096988Y1546791D01*
X2095544Y1577330D02*
X2097289Y1575585D01*
X2095544Y1567158D02*
X2097289Y1568903D01*
X2105716Y1567158D02*
X2103971Y1568903D01*
X2105716Y1577330D02*
X2103971Y1575585D01*
G54D59*
X1984173Y1878543D03*
G74*
X0Y0D02*
M02*
