%
T1C.035F197S55
X176378Y039701
X177496Y040248
X177496Y039157
X19652Y040248
X19652Y039157
X197638Y039701
X197638Y042976
X197638Y041886
X197638Y040791
X19652Y042429
X19652Y041339
X177496Y041339
X177496Y042429
X176378Y041886
X176378Y042976
X176378Y040791
X177496Y04352
X177496Y052937
X19652Y052937
X19652Y04352
X197638Y055665
X197638Y05348
X197638Y054571
X19652Y054028
X19652Y055118
X177496Y055118
X177496Y054028
X176378Y05348
X176378Y054571
X176378Y055665
X176378Y056756
X177496Y056209
X177496Y057299
X19652Y057299
X19652Y056209
X197638Y056756
T2C.037F197S55
X194488Y06378
X194409Y065906
X194409Y06811
X194409Y070079
X194409Y072205
X187244Y080709
X194488Y074488
X194567Y076535
X194646Y078661
X187244Y082283
X187244Y085591
X187244Y083858
T3C.03937F197S55
X188386Y091083G85X188386Y090256
X185433Y091063G85X185433Y090276
T4C.04724F139S55
X175197Y064961
X19685Y064961
X19685Y066929
X19685Y068898
X19685Y070866
X19685Y072835
X175197Y072835
X175197Y070866
X175197Y068898
X175197Y066929
X175197Y074803
X175197Y076772
X175197Y080709
X175197Y07874
X19685Y074803
X19685Y076772
X19685Y07874
X19685Y080709
X19685Y082677
X19685Y084646
X19685Y086614
X175197Y082677
X175197Y086614
X175197Y084646
T5C.05906F107S55
X182283Y034646
X184252Y034646
X18937Y034646
X191339Y034646
X195276Y089685
X191929Y089685
T6C.0748F081S55
X176937Y036417
X197079Y036417
X197079Y04626
X197079Y050197
X176937Y04626
X176937Y050197
X176937Y060039
X197079Y060039
T7C.12205F035S794
X175197Y033268
X198819Y033268
X198819Y092126
X175197Y092126
T8C.14961F035S9
X179134Y088976
X179134Y092126
M30
