*
*
G04 PADS 9.5 Build Number: 522968 generated Gerber (RS-274-X) file*
G04 PC Version=2.1*
*
%IN "switch.pcb"*%
*
%MOIN*%
*
%FSLAX35Y35*%
*
*
*
*
G04 PC Standard Apertures*
*
*
G04 Thermal Relief Aperture macro.*
%AMTER*
1,1,$1,0,0*
1,0,$1-$2,0,0*
21,0,$3,$4,0,0,45*
21,0,$3,$4,0,0,135*
%
*
*
G04 Annular Aperture macro.*
%AMANN*
1,1,$1,0,0*
1,0,$2,0,0*
%
*
*
G04 Odd Aperture macro.*
%AMODD*
1,1,$1,0,0*
1,0,$1-0.005,0,0*
%
*
*
G04 PC Custom Aperture Macros*
*
*
*
*
*
*
G04 PC Aperture Table*
*
%ADD010C,0.001*%
%ADD041R,0.04543X0.0415*%
%ADD042C,0.08087*%
%ADD043R,0.0415X0.0415*%
%ADD044R,0.0415X0.0415*%
%ADD045R,0.04543X0.04543*%
%ADD046R,0.0474X0.0474*%
%ADD047R,0.04937X0.04543*%
%ADD048R,0.05724X0.04543*%
%ADD049R,0.0415X0.04543*%
%ADD050R,0.09661X0.12811*%
%ADD051O,0.09661X0.12811*%
%ADD052C,0.20685*%
%ADD053R,0.09661X0.15961*%
%ADD054O,0.09661X0.15961*%
%ADD055C,0.22654*%
%ADD056R,0.07X0.07*%
%ADD057C,0.07*%
*
*
*
*
G04 PC Circuitry*
G04 Layer Name switch.pcb - circuitry*
%LPD*%
*
*
G04 PC Custom Flashes*
G04 Layer Name switch.pcb - flashes*
%LPD*%
*
*
G04 PC Circuitry*
G04 Layer Name switch.pcb - circuitry*
%LPD*%
*
G54D10*
G54D41*
G01X2007874Y1818307D03*
Y1812795D03*
Y1653346D03*
Y1658858D03*
X2000000Y1653346D03*
Y1658858D03*
X2007874Y1834055D03*
Y1828543D03*
X2051181Y1615551D03*
Y1610039D03*
X2000000Y1631693D03*
Y1637205D03*
X2043307Y1795079D03*
Y1800591D03*
X2035433Y1795079D03*
Y1800591D03*
X2000000Y1610039D03*
Y1615551D03*
X2051181Y1812795D03*
Y1818307D03*
X2035433Y1812795D03*
Y1818307D03*
X2043307Y1830512D03*
Y1836024D03*
X2035433Y1830512D03*
Y1836024D03*
X2000000Y1718307D03*
Y1723819D03*
Y1675000D03*
Y1680512D03*
Y1696654D03*
Y1702165D03*
Y1739961D03*
Y1745472D03*
Y1761614D03*
Y1767126D03*
X2043307Y1779331D03*
Y1784843D03*
X2035433Y1779331D03*
Y1784843D03*
X2051181Y1702165D03*
Y1696654D03*
Y1658858D03*
Y1653346D03*
Y1678543D03*
Y1673031D03*
Y1637205D03*
Y1631693D03*
Y1723819D03*
Y1718307D03*
Y1745472D03*
Y1739961D03*
Y1767126D03*
Y1761614D03*
X2007874Y1610039D03*
Y1615551D03*
X2051181Y1795079D03*
Y1800591D03*
X2007874Y1631693D03*
Y1637205D03*
X2043307Y1812795D03*
Y1818307D03*
X2051181Y1830512D03*
Y1836024D03*
X2007874Y1675000D03*
Y1680512D03*
Y1696654D03*
Y1702165D03*
Y1718307D03*
Y1723819D03*
Y1739961D03*
Y1745472D03*
Y1761614D03*
Y1767126D03*
X2051181Y1779331D03*
Y1784843D03*
X2007874Y1802559D03*
Y1797047D03*
Y1786811D03*
Y1781299D03*
G54D42*
X1881890Y1622638D03*
Y1642323D03*
Y1662008D03*
Y1681693D03*
Y1701378D03*
Y1721063D03*
Y1740748D03*
Y1760433D03*
Y1780118D03*
Y1799803D03*
Y1819488D03*
Y1839173D03*
X2098425Y1622638D03*
Y1642323D03*
Y1662008D03*
Y1681693D03*
Y1701378D03*
Y1721063D03*
Y1740748D03*
Y1760433D03*
Y1780118D03*
Y1799803D03*
Y1819488D03*
Y1839173D03*
G54D43*
X1930807Y1799803D03*
X1939271D03*
X1932775Y1819488D03*
X1941240D03*
X1930807Y1780118D03*
X1939271D03*
X1932775Y1839173D03*
X1941240D03*
G54D44*
X2035433Y1610039D03*
Y1615551D03*
Y1631693D03*
Y1637205D03*
Y1653346D03*
Y1658858D03*
Y1675000D03*
Y1680512D03*
Y1696654D03*
Y1702165D03*
Y1718307D03*
Y1723819D03*
Y1739961D03*
Y1745472D03*
Y1761614D03*
Y1767126D03*
G54D45*
X2061909Y1610815D03*
Y1632469D03*
Y1654122D03*
Y1673807D03*
Y1695461D03*
Y1719083D03*
Y1738768D03*
Y1760421D03*
G54D46*
X2068012Y1610815D03*
Y1632469D03*
Y1654122D03*
Y1673807D03*
Y1695461D03*
Y1719083D03*
Y1738768D03*
Y1760421D03*
G54D47*
X2017126Y1803543D03*
Y1796063D03*
Y1819291D03*
Y1811811D03*
Y1835039D03*
Y1827559D03*
Y1787795D03*
Y1780315D03*
X2060433Y1785827D03*
Y1778346D03*
Y1801575D03*
Y1794094D03*
Y1819291D03*
Y1811811D03*
Y1835039D03*
Y1827559D03*
X2017126Y1638189D03*
Y1630709D03*
Y1746457D03*
Y1738976D03*
Y1768110D03*
Y1760630D03*
Y1616535D03*
Y1609055D03*
Y1659843D03*
Y1652362D03*
Y1681496D03*
Y1674016D03*
Y1703150D03*
Y1695669D03*
Y1724803D03*
Y1717323D03*
G54D48*
X2026575Y1799803D03*
Y1815551D03*
Y1831299D03*
Y1784055D03*
X2069882Y1782087D03*
Y1797835D03*
Y1815551D03*
Y1831299D03*
X2026575Y1634449D03*
Y1742717D03*
Y1764370D03*
Y1612795D03*
Y1656102D03*
Y1677756D03*
Y1699409D03*
Y1721063D03*
G54D49*
X1910630Y1760433D03*
X1916142D03*
X1937795Y1622638D03*
X1932283D03*
X1910630Y1740748D03*
X1916142D03*
X1937795Y1723031D03*
X1932283D03*
X1937795Y1662008D03*
X1932283D03*
X1937795Y1642323D03*
X1932283D03*
X1937795Y1681693D03*
X1932283D03*
X1937795Y1701378D03*
X1932283D03*
X1937795Y1740748D03*
X1932283D03*
X1937795Y1760433D03*
X1932283D03*
X1910630Y1721063D03*
X1916142D03*
X1910630Y1780118D03*
X1916142D03*
X1910630Y1799803D03*
X1916142D03*
X1910630Y1819488D03*
X1916142D03*
X1910630Y1839173D03*
X1916142D03*
X1910630Y1622638D03*
X1916142D03*
X1910630Y1642323D03*
X1916142D03*
X1910630Y1662008D03*
X1916142D03*
X1910630Y1681693D03*
X1916142D03*
X1910630Y1701378D03*
X1916142D03*
X1950000Y1799803D03*
X1955512D03*
X1950000Y1819488D03*
X1955512D03*
X1950000Y1839173D03*
X1955512D03*
X1950000Y1780118D03*
X1955512D03*
G54D50*
X2082677Y1869882D03*
X1952756Y1319488D03*
X2023622D03*
G54D51*
X2049213Y1869882D03*
X1972441Y1319488D03*
X2043307D03*
G54D52*
X1921260Y1862795D03*
Y1894291D03*
G54D53*
X2013780Y1879724D03*
G54D54*
X1984252D03*
G54D55*
X2118110Y1894291D03*
X1881890D03*
Y1305709D03*
X2118110D03*
G54D56*
X1904882Y1546024D03*
X2095118Y1502402D03*
X1904882Y1408228D03*
X2095118Y1364606D03*
G54D57*
X1904882Y1535118D03*
Y1524213D03*
Y1513307D03*
Y1502402D03*
X1893701Y1540591D03*
Y1529685D03*
Y1518740D03*
Y1507835D03*
X1899291Y1573425D03*
Y1475000D03*
X2095118Y1513307D03*
Y1524213D03*
Y1535118D03*
Y1546024D03*
X2106299Y1507835D03*
Y1518740D03*
Y1529685D03*
Y1540591D03*
X2100709Y1475000D03*
Y1573425D03*
X1904882Y1364606D03*
Y1375512D03*
Y1386417D03*
Y1397323D03*
X1893701Y1370039D03*
Y1380945D03*
Y1391890D03*
Y1402795D03*
X1899291Y1435630D03*
Y1337205D03*
X2095118Y1408228D03*
Y1397323D03*
Y1386417D03*
Y1375512D03*
X2106299Y1402795D03*
Y1391890D03*
Y1380945D03*
Y1370039D03*
X2100709Y1337205D03*
Y1435630D03*
X0Y0D02*
M02*
