*
*
G04 PADS 9.5 Build Number: 522968 generated Gerber (RS-274-X) file*
G04 PC Version=2.1*
*
%IN "switch.pcb"*%
*
%MOIN*%
*
%FSLAX35Y35*%
*
*
*
*
G04 PC Standard Apertures*
*
*
G04 Thermal Relief Aperture macro.*
%AMTER*
1,1,$1,0,0*
1,0,$1-$2,0,0*
21,0,$3,$4,0,0,45*
21,0,$3,$4,0,0,135*
%
*
*
G04 Annular Aperture macro.*
%AMANN*
1,1,$1,0,0*
1,0,$2,0,0*
%
*
*
G04 Odd Aperture macro.*
%AMODD*
1,1,$1,0,0*
1,0,$1-0.005,0,0*
%
*
*
G04 PC Custom Aperture Macros*
*
*
*
*
*
*
G04 PC Aperture Table*
*
%ADD010C,0.001*%
%ADD011C,0.01*%
%ADD012C,0.00591*%
%ADD013C,0.005*%
%ADD014C,0.00394*%
%ADD015C,0.00079*%
%ADD040C,0.00787*%
%ADD060C,0.01102*%
%ADD061C,0.00472*%
%ADD062C,0.01181*%
*
*
*
*
G04 PC Circuitry*
G04 Layer Name switch.pcb - circuitry*
%LPD*%
*
*
G04 PC Custom Flashes*
G04 Layer Name switch.pcb - flashes*
%LPD*%
*
*
G04 PC Circuitry*
G04 Layer Name switch.pcb - circuitry*
%LPD*%
*
G54D10*
G54D11*
G01X1920244Y1576478D02*
X1920869Y1576705D01*
X1921494Y1577159*
X1921494D02*
X1921807Y1577614D01*
Y1578523*
X1921494Y1578978*
X1920869Y1579432*
X1920244Y1579659*
X1920244D02*
X1919307Y1579887D01*
X1917744*
X1916807Y1579659*
X1916807D02*
X1916182Y1579432D01*
X1915557Y1578978*
X1915244Y1578523*
Y1577614*
X1915557Y1577159*
X1915557D02*
X1916182Y1576705D01*
X1916807Y1576478*
X1921807Y1573069D02*
X1921494Y1573523D01*
X1920869Y1573978*
X1920244Y1574205*
X1919307Y1574432*
X1917744*
X1916807Y1574205*
X1916182Y1573978*
X1915557Y1573523*
X1915244Y1573069*
Y1572159*
X1915244D02*
X1915557Y1571705D01*
X1916182Y1571250*
X1916807Y1571023*
X1917744Y1570796*
X1919307*
X1920244Y1571023*
X1920869Y1571250*
X1921494Y1571705*
X1921807Y1572159*
X1921807D02*
Y1573069D01*
Y1568750D02*
X1915244D01*
X1921807D02*
X1915244Y1565569D01*
X1921807D02*
X1915244D01*
X1920557Y1563523D02*
X1920869Y1563069D01*
X1921807Y1562387*
X1915244*
X2081898Y1464398D02*
X2081273Y1464171D01*
X2080648Y1463716*
X2080336Y1463262*
Y1462353*
X2080648Y1461898*
X2081273Y1461444*
X2081898Y1461216*
X2082836Y1460989*
X2084398*
X2085336Y1461216*
X2085961Y1461444*
X2086586Y1461898*
X2086898Y1462353*
Y1463262*
X2086586Y1463716*
X2085961Y1464171*
X2085336Y1464398*
X2080336Y1467807D02*
X2080648Y1467353D01*
X2081273Y1466898*
X2081898Y1466671*
X2082836Y1466444*
X2084398*
X2085336Y1466671*
X2085961Y1466898*
X2086586Y1467353*
X2086898Y1467807*
Y1468716*
X2086586Y1469171*
X2085961Y1469625*
X2085961D02*
X2085336Y1469853D01*
X2084398Y1470080*
X2082836*
X2081898Y1469853*
X2081273Y1469625*
X2081273D02*
X2080648Y1469171D01*
X2080336Y1468716*
Y1467807*
Y1472125D02*
X2086898D01*
X2080336D02*
X2086898Y1475307D01*
X2080336D02*
X2086898D01*
X2080336Y1477807D02*
Y1480307D01*
X2082836Y1478944*
Y1479625*
X2082836D02*
X2083148Y1480080D01*
X2083461Y1480307*
X2084398Y1480535*
X2085023*
X2085961Y1480307*
X2086586Y1479853*
X2086898Y1479171*
Y1478489*
X2086586Y1477807*
X2086273Y1477580*
X2085648Y1477353*
X1921032Y1440257D02*
X1921657Y1440484D01*
X1922282Y1440939*
X1922594Y1441394*
Y1442303*
X1922282Y1442757*
X1921657Y1443212*
X1921032Y1443439*
X1920094Y1443666*
X1918532*
X1917594Y1443439*
X1916969Y1443212*
X1916344Y1442757*
X1916032Y1442303*
Y1441394*
X1916344Y1440939*
X1916969Y1440484*
X1917594Y1440257*
X1922594Y1436848D02*
X1922282Y1437303D01*
X1921657Y1437757*
X1921032Y1437984*
X1920094Y1438212*
X1918532*
X1917594Y1437984*
X1916969Y1437757*
X1916344Y1437303*
X1916032Y1436848*
Y1435939*
X1916344Y1435484*
X1916969Y1435030*
X1917594Y1434803*
X1918532Y1434575*
X1920094*
X1921032Y1434803*
X1921657Y1435030*
X1922282Y1435484*
X1922594Y1435939*
Y1436848*
Y1432530D02*
X1916032D01*
X1922594D02*
X1916032Y1429348D01*
X1922594D02*
X1916032D01*
X1921032Y1427075D02*
X1921344D01*
X1921969Y1426848*
X1922282Y1426621*
X1922594Y1426166*
Y1425257*
X1922282Y1424803*
X1921969Y1424575*
X1921344Y1424348*
X1920719*
X1920094Y1424575*
X1919157Y1425030*
X1916032Y1427303*
Y1424121*
X2081111Y1324241D02*
X2080486Y1324013D01*
X2079861Y1323559*
X2079548Y1323104*
Y1322195*
X2079861Y1321741*
X2080486Y1321286*
X2081111Y1321059*
X2082048Y1320832*
X2083611*
X2084548Y1321059*
X2085173Y1321286*
X2085798Y1321741*
X2086111Y1322195*
Y1323104*
X2085798Y1323559*
X2085173Y1324013*
X2084548Y1324241*
X2079548Y1327650D02*
X2079861Y1327195D01*
X2080486Y1326741*
X2081111Y1326513*
X2082048Y1326286*
X2083611*
X2084548Y1326513*
X2085173Y1326741*
X2085798Y1327195*
X2086111Y1327650*
Y1328559*
X2085798Y1329013*
X2085173Y1329468*
X2084548Y1329695*
X2083611Y1329923*
X2082048*
X2081111Y1329695*
X2080486Y1329468*
X2079861Y1329013*
X2079548Y1328559*
Y1327650*
Y1331968D02*
X2086111D01*
X2079548D02*
X2086111Y1335150D01*
X2079548D02*
X2086111D01*
X2079548Y1339468D02*
X2083923Y1337195D01*
Y1340604*
X2079548Y1339468D02*
X2086111D01*
G54D12*
X2007370Y1653903D02*
Y1657451D01*
X2012096Y1657450D02*
G75*
G03X2007370I-2363J-2339D01*
G01X2012095Y1657451D02*
Y1653903D01*
X2007370Y1651540D02*
Y1647997D01*
X2007372Y1647995D02*
G03X2012097Y1647999I2361J2345D01*
G01X2012095Y1647997D02*
Y1651540D01*
X2034930Y1610595D02*
Y1614729D01*
X2039654*
Y1610595*
X2034930Y1608233D02*
Y1604099D01*
X2039654*
Y1608233*
X2034930Y1632249D02*
Y1636383D01*
X2039654*
Y1632249*
X2034930Y1629887D02*
Y1625753D01*
X2039654*
Y1629887*
X2034930Y1653903D02*
Y1658036D01*
X2039654*
Y1653903*
X2034930Y1651540D02*
Y1647406D01*
X2039654*
Y1651540*
X2034930Y1675556D02*
Y1679690D01*
X2039654*
Y1675556*
X2034930Y1673194D02*
Y1669060D01*
X2039654*
Y1673194*
X2034930Y1697210D02*
Y1701343D01*
X2039654*
Y1697210*
X2034930Y1694847D02*
Y1690714D01*
X2039654*
Y1694847*
X2034930Y1718863D02*
Y1722997D01*
X2039654*
Y1718863*
X2034930Y1716501D02*
Y1712367D01*
X2039654*
Y1716501*
X2034930Y1740517D02*
Y1744651D01*
X2039654*
Y1740517*
X2034930Y1738154D02*
Y1734021D01*
X2039654*
Y1738154*
X2034930Y1762170D02*
Y1766304D01*
X2039654*
Y1762170*
X2034930Y1759808D02*
Y1755674D01*
X2039654*
Y1759808*
X2026459Y1798922D02*
Y1802422D01*
X2021459*
X2026459Y1793922D02*
Y1790422D01*
X2021459*
X2020959Y1797922D02*
Y1794922D01*
X2026459Y1814670D02*
Y1818170D01*
X2021459*
X2026459Y1809670D02*
Y1806170D01*
X2021459*
X2020959Y1813670D02*
Y1810670D01*
X2026459Y1830418D02*
Y1833918D01*
X2021459*
X2026459Y1825418D02*
Y1821918D01*
X2021459*
X2020959Y1829418D02*
Y1826418D01*
X2026459Y1783174D02*
Y1786674D01*
X2021459*
X2026459Y1778174D02*
Y1774674D01*
X2021459*
X2020959Y1782174D02*
Y1779174D01*
X2069766Y1781206D02*
Y1784706D01*
X2064766*
X2069766Y1776206D02*
Y1772706D01*
X2064766*
X2064266Y1780206D02*
Y1777206D01*
X2069766Y1796954D02*
Y1800454D01*
X2064766*
X2069766Y1791954D02*
Y1788454D01*
X2064766*
X2064266Y1795954D02*
Y1792954D01*
X2069766Y1814670D02*
Y1818170D01*
X2064766*
X2069766Y1809670D02*
Y1806170D01*
X2064766*
X2064266Y1813670D02*
Y1810670D01*
X2069766Y1830418D02*
Y1833918D01*
X2064766*
X2069766Y1825418D02*
Y1821918D01*
X2064766*
X2064266Y1829418D02*
Y1826418D01*
X2026459Y1633568D02*
Y1637068D01*
X2021459*
X2026459Y1628568D02*
Y1625068D01*
X2021459*
X2020959Y1632568D02*
Y1629568D01*
X2026459Y1741836D02*
Y1745336D01*
X2021459*
X2026459Y1736836D02*
Y1733336D01*
X2021459*
X2020959Y1740836D02*
Y1737836D01*
X2026459Y1763489D02*
Y1766989D01*
X2021459*
X2026459Y1758489D02*
Y1754989D01*
X2021459*
X2020959Y1762489D02*
Y1759489D01*
X2026459Y1611914D02*
Y1615414D01*
X2021459*
X2026459Y1606914D02*
Y1603414D01*
X2021459*
X2020959Y1610914D02*
Y1607914D01*
X2026459Y1655221D02*
Y1658721D01*
X2021459*
X2026459Y1650221D02*
Y1646721D01*
X2021459*
X2020959Y1654221D02*
Y1651221D01*
X2026459Y1676875D02*
Y1680375D01*
X2021459*
X2026459Y1671875D02*
Y1668375D01*
X2021459*
X2020959Y1675875D02*
Y1672875D01*
X2026459Y1698529D02*
Y1702029D01*
X2021459*
X2026459Y1693529D02*
Y1690029D01*
X2021459*
X2020959Y1697529D02*
Y1694529D01*
X2026459Y1720182D02*
Y1723682D01*
X2021459*
X2026459Y1715182D02*
Y1711682D01*
X2021459*
X2020959Y1719182D02*
Y1716182D01*
X2102252Y1857840D02*
X2033355D01*
Y1909808*
X2102252*
Y1857840*
X1943755Y1335077D02*
X1987655D01*
Y1290487*
X1943755*
Y1335077*
X2014621D02*
X2058521D01*
Y1290487*
X2014621*
Y1335077*
X2007370Y1610595D02*
Y1614144D01*
X2012096Y1614143D02*
G03X2007370I-2363J-2339D01*
G01X2012095Y1614144D02*
Y1610595D01*
X2007370Y1608233D02*
Y1604690D01*
X2007372Y1604688D02*
G03X2012097Y1604692I2361J2344D01*
G01X2012095Y1604690D02*
Y1608233D01*
X2050678Y1795635D02*
Y1799183D01*
X2055403Y1799182D02*
G03X2050677I-2363J-2338D01*
G01X2055402Y1799183D02*
Y1795635D01*
X2050678Y1793273D02*
Y1789729D01*
X2050679Y1789728D02*
G03X2055404Y1789732I2361J2344D01*
G01X2055402Y1789729D02*
Y1793273D01*
X2007370Y1632249D02*
Y1635797D01*
X2012096Y1635796D02*
G03X2007370I-2363J-2338D01*
G01X2012095Y1635797D02*
Y1632249D01*
X2007370Y1629887D02*
Y1626343D01*
X2007372Y1626342D02*
G03X2012097Y1626346I2361J2344D01*
G01X2012095Y1626343D02*
Y1629887D01*
X2042804Y1813351D02*
Y1816900D01*
X2047529Y1816899D02*
G03X2042803I-2363J-2339D01*
G01X2047528Y1816900D02*
Y1813351D01*
X2042804Y1810989D02*
Y1807446D01*
X2042805Y1807444D02*
G03X2047530Y1807448I2361J2344D01*
G01X2047528Y1807446D02*
Y1810989D01*
X2050678Y1831068D02*
Y1834616D01*
X2055403Y1834615D02*
G03X2050677I-2363J-2338D01*
G01X2055402Y1834616D02*
Y1831068D01*
X2050678Y1828706D02*
Y1825162D01*
X2050679Y1825161D02*
G03X2055404Y1825165I2361J2344D01*
G01X2055402Y1825162D02*
Y1828706D01*
X2007370Y1675556D02*
Y1679104D01*
X2012096Y1679103D02*
G03X2007370I-2363J-2338D01*
G01X2012095Y1679104D02*
Y1675556D01*
X2007370Y1673194D02*
Y1669651D01*
X2007372Y1669649D02*
G03X2012097Y1669653I2361J2344D01*
G01X2012095Y1669651D02*
Y1673194D01*
X2007370Y1697210D02*
Y1700758D01*
X2012096Y1700757D02*
G03X2007370I-2363J-2339D01*
G01X2012095Y1700758D02*
Y1697210D01*
X2007370Y1694847D02*
Y1691304D01*
X2007372Y1691302D02*
G03X2012097Y1691307I2361J2345D01*
G01X2012095Y1691304D02*
Y1694847D01*
X2007370Y1718863D02*
Y1722411D01*
X2012096Y1722410D02*
G03X2007370I-2363J-2338D01*
G01X2012095Y1722411D02*
Y1718863D01*
X2007370Y1716501D02*
Y1712958D01*
X2007372Y1712956D02*
G03X2012097Y1712960I2361J2344D01*
G01X2012095Y1712958D02*
Y1716501D01*
X2007370Y1740517D02*
Y1744065D01*
X2012096Y1744064D02*
G03X2007370I-2363J-2338D01*
G01X2012095Y1744065D02*
Y1740517D01*
X2007370Y1738154D02*
Y1734611D01*
X2007372Y1734610D02*
G03X2012097Y1734614I2361J2344D01*
G01X2012095Y1734611D02*
Y1738154D01*
X2007370Y1762170D02*
Y1765718D01*
X2012096D02*
G03X2007370I-2363J-2339D01*
G01X2012095D02*
Y1762170D01*
X2007370Y1759808D02*
Y1756265D01*
X2007372Y1756263D02*
G03X2012097Y1756267I2361J2344D01*
G01X2012095Y1756265D02*
Y1759808D01*
X2050678Y1779887D02*
Y1783435D01*
X2055403Y1783434D02*
G03X2050677I-2363J-2338D01*
G01X2055402Y1783435D02*
Y1779887D01*
X2050678Y1777525D02*
Y1773981D01*
X2050679Y1773980D02*
G03X2055404Y1773984I2361J2344D01*
G01X2055402Y1773981D02*
Y1777525D01*
X2014715Y1815597D02*
X2012132D01*
X2014715D02*
Y1814792D01*
X2014592Y1814523*
X2014469Y1814434*
X2014223Y1814345*
X2013977*
X2013731Y1814434*
X2013608Y1814523*
X2013485Y1814792*
Y1815597*
Y1814971D02*
X2012132Y1814345D01*
X2014223Y1813539D02*
X2014346Y1813360D01*
X2014715Y1813092*
X2012132*
X2014223Y1812287D02*
X2014346Y1812108D01*
X2014715Y1811839*
X2012132*
X2014715Y1810139D02*
X2012993Y1811034D01*
Y1809692*
X2014715Y1810139D02*
X2012132D01*
X2005365Y1651889D02*
X2005119Y1651800D01*
X2004873Y1651621*
X2004750Y1651442*
Y1651084*
X2004873Y1650905*
X2005119Y1650726*
X2005365Y1650637*
X2005734Y1650547*
X2006349*
X2006718Y1650637*
X2006964Y1650726*
X2007211Y1650905*
X2007334Y1651084*
Y1651442*
X2007211Y1651621*
X2006964Y1651800*
X2006718Y1651889*
X2005365Y1652784D02*
X2005242D01*
X2004996Y1652874*
X2004873Y1652963*
X2004750Y1653142*
Y1653500*
X2004873Y1653679*
X2004996Y1653768*
X2005242Y1653858*
X2005488*
X2005734Y1653768*
X2006103Y1653589*
X2007334Y1652695*
Y1653947*
X1996876Y1649966D02*
X1999460D01*
X1996876D02*
Y1650771D01*
X1996999Y1651039*
X1997122Y1651129*
X1997368Y1651218*
X1997614*
X1997860Y1651129*
X1997983Y1651039*
X1998106Y1650771*
Y1649966*
Y1650592D02*
X1999460Y1651218D01*
X1996876Y1652202D02*
Y1653187D01*
X1997860Y1652650*
Y1652918*
X1997983Y1653097*
X1998106Y1653187*
X1998475Y1653276*
X1998721*
X1999090Y1653187*
X1999337Y1653008*
X1999460Y1652739*
Y1652471*
X1999337Y1652202*
X1999213Y1652113*
X1998967Y1652023*
X1997368Y1654081D02*
X1997245Y1654260D01*
X1996876Y1654529*
X1999460*
X2014715Y1831748D02*
X2012132D01*
X2014715D02*
Y1830943D01*
X2014592Y1830674*
X2014469Y1830585*
X2014223Y1830495*
X2013977*
X2013731Y1830585*
X2013608Y1830674*
X2013485Y1830943*
Y1831748*
Y1831122D02*
X2012132Y1830495D01*
X2014223Y1829690D02*
X2014346Y1829511D01*
X2014715Y1829243*
X2012132*
X2014100Y1828348D02*
X2014223D01*
X2014469Y1828258*
X2014592Y1828169*
X2014715Y1827990*
Y1827632*
X2014592Y1827453*
X2014469Y1827364*
X2014223Y1827274*
X2013977*
X2013731Y1827364*
X2013362Y1827542*
X2012132Y1828437*
Y1827185*
X2014715Y1825484D02*
X2012993Y1826379D01*
Y1825037*
X2014715Y1825484D02*
X2012132D01*
X2030525Y1607312D02*
X2033625D01*
Y1608600*
X2031116Y1609566D02*
X2030968Y1609781D01*
X2030525Y1610103*
X2033625*
X2030525Y1628974D02*
X2033625D01*
Y1630263*
X2031263Y1631336D02*
X2031116D01*
X2030820Y1631444*
X2030673Y1631551*
X2030525Y1631766*
Y1632195*
X2030673Y1632410*
X2030820Y1632517*
X2031116Y1632625*
X2031411*
X2031706Y1632517*
X2032149Y1632303*
X2033625Y1631229*
Y1632732*
X2030525Y1650136D02*
X2033625D01*
Y1651424*
X2030525Y1652605D02*
Y1653786D01*
X2031706Y1653142*
Y1653464*
X2031854Y1653679*
X2032001Y1653786*
X2032444Y1653894*
X2032740*
X2033182Y1653786*
X2033478Y1653571*
X2033625Y1653249*
Y1652927*
X2033478Y1652605*
X2033330Y1652498*
X2033035Y1652390*
X2030525Y1671735D02*
X2033625D01*
Y1673024*
X2030525Y1675064D02*
X2032592Y1673990D01*
Y1675601*
X2030525Y1675064D02*
X2033625D01*
X2030525Y1693389D02*
X2033625D01*
Y1694677*
X2030525Y1697040D02*
Y1695966D01*
X2031854Y1695858*
X2031706Y1695966*
X2031558Y1696288*
Y1696610*
X2031706Y1696932*
X2032001Y1697147*
X2032444Y1697254*
X2032740Y1697147*
X2033182Y1697040*
X2033478Y1696825*
X2033625Y1696503*
Y1696181*
X2033478Y1695858*
X2033330Y1695751*
X2033035Y1695644*
X2030525Y1715150D02*
X2033625D01*
Y1716438*
X2030968Y1718693D02*
X2030673Y1718586D01*
X2030525Y1718264*
Y1718049*
X2030673Y1717727*
X2031116Y1717512*
X2031854Y1717405*
X2032592*
X2033182Y1717512*
X2033478Y1717727*
X2033625Y1718049*
Y1718156*
X2033478Y1718478*
X2033182Y1718693*
X2032740Y1718801*
X2032592*
X2032149Y1718693*
X2031854Y1718478*
X2031706Y1718156*
Y1718049*
X2031854Y1717727*
X2032149Y1717512*
X2032592Y1717405*
X2029738Y1737636D02*
X2032838D01*
Y1738924*
X2029738Y1741394D02*
X2032838Y1740320D01*
X2029738Y1739890D02*
Y1741394D01*
X2031312Y1759683D02*
X2034413D01*
Y1760971*
X2031312Y1762474D02*
X2031460Y1762152D01*
X2031755Y1762045*
X2032051*
X2032346Y1762152*
X2032494Y1762367*
X2032641Y1762797*
X2032789Y1763119*
X2033084Y1763333*
X2033379Y1763441*
X2033822*
X2034118Y1763333*
X2034265Y1763226*
X2034413Y1762904*
Y1762474*
X2034265Y1762152*
X2034118Y1762045*
X2033822Y1761938*
X2033379*
X2033084Y1762045*
X2032789Y1762260*
X2032641Y1762582*
X2032494Y1763011*
X2032346Y1763226*
X2032051Y1763333*
X2031755*
X2031460Y1763226*
X2031312Y1762904*
Y1762474*
X1996088Y1628849D02*
X1998672D01*
X1996088D02*
Y1629654D01*
X1996212Y1629923*
X1996335Y1630012*
X1996581Y1630102*
X1996827*
X1997073Y1630012*
X1997196Y1629923*
X1997319Y1629654*
Y1628849*
Y1629475D02*
X1998672Y1630102D01*
X1996581Y1630907D02*
X1996458Y1631086D01*
X1996088Y1631354*
X1998672*
X2044120Y1800422D02*
X2046704D01*
X2044120D02*
Y1801227D01*
X2044243Y1801496*
X2044366Y1801585*
X2044612Y1801675*
X2044858*
X2045104Y1801585*
X2045227Y1801496*
X2045350Y1801227*
Y1800422*
Y1801048D02*
X2046704Y1801675D01*
X2044612Y1802480D02*
X2044489Y1802659D01*
X2044120Y1802927*
X2046704*
X2044120Y1804269D02*
X2044243Y1804001D01*
X2044612Y1803822*
X2045227Y1803733*
X2045596*
X2046212Y1803822*
X2046581Y1804001*
X2046704Y1804269*
Y1804448*
X2046581Y1804717*
X2046212Y1804896*
X2045596Y1804985*
X2045227*
X2044612Y1804896*
X2044243Y1804717*
X2044120Y1804448*
Y1804269*
X2044612Y1805790D02*
X2044489Y1805969D01*
X2044120Y1806238*
X2046704*
X2031522Y1790570D02*
X2034105D01*
X2031522D02*
Y1791376D01*
X2031645Y1791644*
X2031768Y1791734*
X2032014Y1791823*
X2032260*
X2032506Y1791734*
X2032629Y1791644*
X2032752Y1791376*
Y1790570*
Y1791197D02*
X2034105Y1791823D01*
X2032014Y1792628D02*
X2031891Y1792807D01*
X2031522Y1793076*
X2034105*
X2031522Y1794418D02*
X2031645Y1794149D01*
X2032014Y1793971*
X2032629Y1793881*
X2032998*
X2033613Y1793971*
X2033982Y1794149*
X2034105Y1794418*
Y1794597*
X2033982Y1794865*
X2033613Y1795044*
X2032998Y1795134*
X2032629*
X2032014Y1795044*
X2031645Y1794865*
X2031522Y1794597*
Y1794418*
X2032137Y1796029D02*
X2032014D01*
X2031768Y1796118*
X2031645Y1796207*
X2031522Y1796386*
Y1796744*
X2031645Y1796923*
X2031768Y1797013*
X2032014Y1797102*
X2032260*
X2032506Y1797013*
X2032875Y1796834*
X2034105Y1795939*
Y1797192*
X2000813Y1599089D02*
X2003397D01*
X2000813D02*
Y1599894D01*
X2000936Y1600162*
X2001059Y1600252*
X2001305Y1600341*
X2001551*
X2001797Y1600252*
X2001920Y1600162*
X2002043Y1599894*
Y1599089*
Y1599715D02*
X2003397Y1600341D01*
X2001305Y1601147D02*
X2001182Y1601326D01*
X2000813Y1601594*
X2003397*
X2001305Y1602399D02*
X2001182Y1602578D01*
X2000813Y1602847*
X2003397*
X2051994Y1818147D02*
X2054578D01*
X2051994D02*
Y1818953D01*
X2052117Y1819221*
X2052240Y1819311*
X2052486Y1819400*
X2052732*
X2052978Y1819311*
X2053101Y1819221*
X2053224Y1818953*
Y1818147*
Y1818774D02*
X2054578Y1819400D01*
X2052486Y1820205D02*
X2052363Y1820384D01*
X2051994Y1820653*
X2054578*
X2052486Y1821458D02*
X2052363Y1821637D01*
X2051994Y1821905*
X2054578*
X2052486Y1822711D02*
X2052363Y1822890D01*
X2051994Y1823158*
X2054578*
X2036246Y1818532D02*
X2038830D01*
X2036246D02*
Y1819337D01*
X2036369Y1819606*
X2036492Y1819695*
X2036738Y1819785*
X2036984*
X2037230Y1819695*
X2037353Y1819606*
X2037476Y1819337*
Y1818532*
Y1819158D02*
X2038830Y1819785D01*
X2036738Y1820590D02*
X2036615Y1820769D01*
X2036246Y1821037*
X2038830*
X2036738Y1821843D02*
X2036615Y1822022D01*
X2036246Y1822290*
X2038830*
X2036861Y1823185D02*
X2036738D01*
X2036492Y1823274*
X2036369Y1823364*
X2036246Y1823543*
Y1823901*
X2036369Y1824080*
X2036492Y1824169*
X2036738Y1824259*
X2036984*
X2037230Y1824169*
X2037599Y1823990*
X2038830Y1823095*
Y1824348*
X2044120Y1835855D02*
X2046704D01*
X2044120D02*
Y1836660D01*
X2044243Y1836929*
X2044366Y1837018*
X2044612Y1837108*
X2044858*
X2045104Y1837018*
X2045227Y1836929*
X2045350Y1836660*
Y1835855*
Y1836481D02*
X2046704Y1837108D01*
X2044612Y1837913D02*
X2044489Y1838092D01*
X2044120Y1838360*
X2046704*
X2044735Y1839255D02*
X2044612D01*
X2044366Y1839345*
X2044243Y1839434*
X2044120Y1839613*
Y1839971*
X2044243Y1840150*
X2044366Y1840239*
X2044612Y1840329*
X2044858*
X2045104Y1840239*
X2045473Y1840060*
X2046704Y1839166*
Y1840418*
X2044612Y1841224D02*
X2044489Y1841403D01*
X2044120Y1841671*
X2046704*
X2036246Y1836240D02*
X2038830D01*
X2036246D02*
Y1837045D01*
X2036369Y1837313*
X2036492Y1837403*
X2036738Y1837492*
X2036984*
X2037230Y1837403*
X2037353Y1837313*
X2037476Y1837045*
Y1836240*
Y1836866D02*
X2038830Y1837492D01*
X2036738Y1838298D02*
X2036615Y1838477D01*
X2036246Y1838745*
X2038830*
X2036861Y1839640D02*
X2036738D01*
X2036492Y1839729*
X2036369Y1839819*
X2036246Y1839998*
Y1840356*
X2036369Y1840535*
X2036492Y1840624*
X2036738Y1840714*
X2036984*
X2037230Y1840624*
X2037599Y1840445*
X2038830Y1839550*
Y1840803*
X2036861Y1841698D02*
X2036738D01*
X2036492Y1841787*
X2036369Y1841877*
X2036246Y1842056*
Y1842414*
X2036369Y1842593*
X2036492Y1842682*
X2036738Y1842772*
X2036984*
X2037230Y1842682*
X2037599Y1842503*
X2038830Y1841608*
Y1842861*
X1996876Y1714926D02*
X1999460D01*
X1996876D02*
Y1715731D01*
X1996999Y1716000*
X1997122Y1716089*
X1997368Y1716179*
X1997614*
X1997860Y1716089*
X1997983Y1716000*
X1998106Y1715731*
Y1714926*
Y1715552D02*
X1999460Y1716179D01*
X1997368Y1716984D02*
X1997245Y1717163D01*
X1996876Y1717432*
X1999460*
X1996876Y1719489D02*
X1999460Y1718595D01*
X1996876Y1718237D02*
Y1719489D01*
Y1671574D02*
X1999460D01*
X1996876D02*
Y1672380D01*
X1996999Y1672648*
X1997122Y1672738*
X1997368Y1672827*
X1997614*
X1997860Y1672738*
X1997983Y1672648*
X1998106Y1672380*
Y1671574*
Y1672201D02*
X1999460Y1672827D01*
X1996876Y1674527D02*
X1998598Y1673632D01*
Y1674974*
X1996876Y1674527D02*
X1999460D01*
X1997368Y1675780D02*
X1997245Y1675959D01*
X1996876Y1676227*
X1999460*
X1996876Y1693228D02*
X1999460D01*
X1996876D02*
Y1694033D01*
X1996999Y1694302*
X1997122Y1694391*
X1997368Y1694481*
X1997614*
X1997860Y1694391*
X1997983Y1694302*
X1998106Y1694033*
Y1693228*
Y1693854D02*
X1999460Y1694481D01*
X1996876Y1696449D02*
Y1695554D01*
X1997983Y1695465*
X1997860Y1695554*
X1997737Y1695823*
Y1696091*
X1997860Y1696360*
X1998106Y1696539*
X1998475Y1696628*
X1998721Y1696539*
X1999090Y1696449*
X1999337Y1696270*
X1999460Y1696002*
Y1695733*
X1999337Y1695465*
X1999213Y1695375*
X1998967Y1695286*
X1997368Y1697433D02*
X1997245Y1697612D01*
X1996876Y1697881*
X1999460*
X1996876Y1736580D02*
X1999460D01*
X1996876D02*
Y1737385D01*
X1996999Y1737653*
X1997122Y1737743*
X1997368Y1737832*
X1997614*
X1997860Y1737743*
X1997983Y1737653*
X1998106Y1737385*
Y1736580*
Y1737206D02*
X1999460Y1737832D01*
X1996876Y1739890D02*
X1999460Y1738996D01*
X1996876Y1738638D02*
Y1739890D01*
X1997368Y1740696D02*
X1997245Y1740875D01*
X1996876Y1741143*
X1999460*
X1996876Y1758233D02*
X1999460D01*
X1996876D02*
Y1759039D01*
X1996999Y1759307*
X1997122Y1759396*
X1997368Y1759486*
X1997614*
X1997860Y1759396*
X1997983Y1759307*
X1998106Y1759039*
Y1758233*
Y1758860D02*
X1999460Y1759486D01*
X1996876Y1760739D02*
X1996999Y1760470D01*
X1997245Y1760381*
X1997491*
X1997737Y1760470*
X1997860Y1760649*
X1997983Y1761007*
X1998106Y1761275*
X1998352Y1761454*
X1998598Y1761544*
X1998967*
X1999213Y1761454*
X1999337Y1761365*
X1999460Y1761097*
Y1760739*
X1999337Y1760470*
X1999213Y1760381*
X1998967Y1760291*
X1998598*
X1998352Y1760381*
X1998106Y1760560*
X1997983Y1760828*
X1997860Y1761186*
X1997737Y1761365*
X1997491Y1761454*
X1997245*
X1996999Y1761365*
X1996876Y1761097*
Y1760739*
X1997368Y1762349D02*
X1997245Y1762528D01*
X1996876Y1762797*
X1999460*
X2040183Y1775995D02*
X2042767D01*
X2040183D02*
Y1776800D01*
X2040306Y1777068*
X2040429Y1777158*
X2040675Y1777247*
X2040921*
X2041167Y1777158*
X2041290Y1777068*
X2041413Y1776800*
Y1775995*
Y1776621D02*
X2042767Y1777247D01*
X2041044Y1779216D02*
X2041413Y1779126D01*
X2041659Y1778947*
X2041782Y1778679*
Y1778589*
X2041659Y1778321*
X2041413Y1778142*
X2041044Y1778052*
X2040921*
X2040552Y1778142*
X2040306Y1778321*
X2040183Y1778589*
Y1778679*
X2040306Y1778947*
X2040552Y1779126*
X2041044Y1779216*
X2041659*
X2042275Y1779126*
X2042644Y1778947*
X2042767Y1778679*
Y1778500*
X2042644Y1778231*
X2042398Y1778142*
X2040675Y1780021D02*
X2040552Y1780200D01*
X2040183Y1780468*
X2042767*
X2032309Y1775592D02*
X2034893D01*
X2032309D02*
Y1776397D01*
X2032432Y1776666*
X2032555Y1776755*
X2032801Y1776845*
X2033047*
X2033293Y1776755*
X2033416Y1776666*
X2033539Y1776397*
Y1775592*
Y1776218D02*
X2034893Y1776845D01*
X2033170Y1778813D02*
X2033539Y1778724D01*
X2033785Y1778545*
X2033908Y1778276*
Y1778187*
X2033785Y1777918*
X2033539Y1777739*
X2033170Y1777650*
X2033047*
X2032678Y1777739*
X2032432Y1777918*
X2032309Y1778187*
Y1778276*
X2032432Y1778545*
X2032678Y1778724*
X2033170Y1778813*
X2033785*
X2034400Y1778724*
X2034770Y1778545*
X2034893Y1778276*
Y1778097*
X2034770Y1777829*
X2034524Y1777739*
X2032924Y1779708D02*
X2032801D01*
X2032555Y1779797*
X2032432Y1779887*
X2032309Y1780066*
Y1780424*
X2032432Y1780603*
X2032555Y1780692*
X2032801Y1780782*
X2033047*
X2033293Y1780692*
X2033662Y1780513*
X2034893Y1779618*
Y1780871*
X1913527Y1762822D02*
Y1760239D01*
Y1762822D02*
X1914332D01*
X1914600Y1762699*
X1914690Y1762576*
X1914779Y1762330*
Y1762084*
X1914690Y1761838*
X1914600Y1761715*
X1914332Y1761592*
X1913527*
X1914153D02*
X1914779Y1760239D01*
X1915585Y1762330D02*
X1915763Y1762453D01*
X1916032Y1762822*
Y1760239*
X1917732Y1762822D02*
X1916837Y1761100D01*
X1918179*
X1917732Y1762822D02*
Y1760239D01*
X2047270Y1692628D02*
X2049853D01*
X2047270D02*
Y1693434D01*
X2047393Y1693702*
X2047516Y1693792*
X2047762Y1693881*
X2048008*
X2048254Y1693792*
X2048377Y1693702*
X2048500Y1693434*
Y1692628*
Y1693255D02*
X2049853Y1693881D01*
X2047762Y1694686D02*
X2047639Y1694865D01*
X2047270Y1695134*
X2049853*
X2048131Y1697102D02*
X2048500Y1697013D01*
X2048746Y1696834*
X2048869Y1696565*
Y1696476*
X2048746Y1696207*
X2048500Y1696029*
X2048131Y1695939*
X2048008*
X2047639Y1696029*
X2047393Y1696207*
X2047270Y1696476*
Y1696565*
X2047393Y1696834*
X2047639Y1697013*
X2048131Y1697102*
X2048746*
X2049361Y1697013*
X2049730Y1696834*
X2049853Y1696565*
Y1696386*
X2049730Y1696118*
X2049484Y1696029*
X2047270Y1650690D02*
X2049853D01*
X2047270D02*
Y1651496D01*
X2047393Y1651764*
X2047516Y1651853*
X2047762Y1651943*
X2048008*
X2048254Y1651853*
X2048377Y1651764*
X2048500Y1651496*
Y1650690*
Y1651317D02*
X2049853Y1651943D01*
X2047270Y1652927D02*
Y1653911D01*
X2048254Y1653375*
Y1653643*
X2048377Y1653822*
X2048500Y1653911*
X2048869Y1654001*
X2049115*
X2049484Y1653911*
X2049730Y1653733*
X2049853Y1653464*
Y1653196*
X2049730Y1652927*
X2049607Y1652838*
X2049361Y1652748*
X1934241Y1625027D02*
Y1622443D01*
Y1625027D02*
X1935046D01*
X1935314Y1624904*
X1935404Y1624781*
X1935493Y1624535*
Y1624289*
X1935404Y1624043*
X1935314Y1623920*
X1935046Y1623797*
X1934241*
X1934867D02*
X1935493Y1622443D01*
X1936299Y1624535D02*
X1936477Y1624658D01*
X1936746Y1625027*
Y1622443*
X1937641Y1624412D02*
Y1624535D01*
X1937730Y1624781*
X1937820Y1624904*
X1937999Y1625027*
X1938357*
X1938535Y1624904*
X1938625Y1624781*
X1938714Y1624535*
Y1624289*
X1938625Y1624043*
X1938446Y1623674*
X1937551Y1622443*
X1938804*
X1912489Y1742350D02*
Y1739766D01*
Y1742350D02*
X1913294D01*
X1913562Y1742227*
X1913652Y1742104*
X1913741Y1741858*
Y1741612*
X1913652Y1741366*
X1913562Y1741243*
X1913294Y1741120*
X1912489*
X1913115D02*
X1913741Y1739766D01*
X1914547Y1741858D02*
X1914726Y1741981D01*
X1914994Y1742350*
Y1739766*
X1915978Y1742350D02*
X1916962D01*
X1916426Y1741366*
X1916694*
X1916873Y1741243*
X1916962Y1741120*
X1917052Y1740750*
Y1740504*
X1916962Y1740135*
X1916784Y1739889*
X1916784D02*
X1916515Y1739766D01*
X1916247*
X1915978Y1739889*
X1915889Y1740012*
X1915799Y1740258*
X2047270Y1669749D02*
X2049853D01*
X2047270D02*
Y1670554D01*
X2047393Y1670823*
X2047516Y1670912*
X2047762Y1671002*
X2048008*
X2048254Y1670912*
X2048377Y1670823*
X2048500Y1670554*
Y1669749*
Y1670375D02*
X2049853Y1671002D01*
X2047762Y1671807D02*
X2047639Y1671986D01*
X2047270Y1672254*
X2049853*
X2047270Y1673507D02*
X2047393Y1673239D01*
X2047639Y1673149*
X2047885*
X2048131Y1673239*
X2048254Y1673418*
X2048377Y1673775*
X2048500Y1674044*
X2048746Y1674223*
X2048992Y1674312*
X2049361*
X2049607Y1674223*
X2049730Y1674133*
X2049853Y1673865*
Y1673507*
X2049730Y1673239*
X2049607Y1673149*
X2049361Y1673060*
X2048992*
X2048746Y1673149*
X2048500Y1673328*
X2048377Y1673597*
X2048254Y1673954*
X2048131Y1674133*
X2047885Y1674223*
X2047639*
X2047393Y1674133*
X2047270Y1673865*
Y1673507*
Y1628643D02*
X2049853D01*
X2047270D02*
Y1629448D01*
X2047393Y1629717*
X2047516Y1629806*
X2047762Y1629896*
X2048008*
X2048254Y1629806*
X2048377Y1629717*
X2048500Y1629448*
Y1628643*
Y1629269D02*
X2049853Y1629896D01*
X2047885Y1630790D02*
X2047762D01*
X2047516Y1630880*
X2047393Y1630969*
X2047270Y1631148*
Y1631506*
X2047393Y1631685*
X2047516Y1631775*
X2047762Y1631864*
X2048008*
X2048254Y1631775*
X2048623Y1631596*
X2049853Y1630701*
Y1631954*
X1933838Y1664397D02*
Y1661813D01*
Y1664397D02*
X1934643D01*
X1934912Y1664274*
X1935001Y1664151*
X1935091Y1663905*
Y1663659*
X1935001Y1663413*
X1934912Y1663290*
X1934643Y1663167*
X1933838*
X1934464D02*
X1935091Y1661813D01*
X1936075Y1664397D02*
X1937059D01*
X1936522Y1663413*
X1936791*
X1936970Y1663290*
X1937059Y1663167*
X1937149Y1662798*
Y1662552*
X1937059Y1662183*
X1936880Y1661936*
X1936612Y1661813*
X1936343*
X1936075Y1661936*
X1935985Y1662060*
X1935896Y1662306*
X1938043Y1663782D02*
Y1663905D01*
X1938133Y1664151*
X1938222Y1664274*
X1938401Y1664397*
X1938759*
X1938938Y1664274*
X1939028Y1664151*
X1939117Y1663905*
Y1663659*
X1939028Y1663413*
X1938849Y1663044*
X1937954Y1661813*
X1939207*
X1934822Y1644712D02*
Y1642128D01*
Y1644712D02*
X1935627D01*
X1935896Y1644589*
X1935985Y1644466*
X1936075Y1644220*
Y1643974*
X1935985Y1643728*
X1935896Y1643605*
X1935627Y1643482*
X1934822*
X1935448D02*
X1936075Y1642128D01*
X1937775Y1644712D02*
X1936880Y1642990D01*
X1938222*
X1937775Y1644712D02*
Y1642128D01*
X1933793Y1684082D02*
Y1681498D01*
Y1684082D02*
X1934598D01*
X1934867Y1683959*
X1934956Y1683836*
X1935046Y1683590*
Y1683344*
X1934956Y1683098*
X1934867Y1682975*
X1934598Y1682852*
X1933793*
X1934420D02*
X1935046Y1681498D01*
X1936746Y1684082D02*
X1935851Y1682360D01*
X1937193*
X1936746Y1684082D02*
Y1681498D01*
X1938088Y1683467D02*
Y1683590D01*
X1938178Y1683836*
X1938267Y1683959*
X1938446Y1684082*
X1938804*
X1938983Y1683959*
X1939072Y1683836*
X1939162Y1683590*
Y1683344*
X1939072Y1683098*
X1938893Y1682729*
X1937999Y1681498*
X1939251*
X1933838Y1743137D02*
Y1740554D01*
Y1743137D02*
X1934643D01*
X1934912Y1743014*
X1935001Y1742891*
X1935091Y1742645*
Y1742399*
X1935001Y1742153*
X1934912Y1742030*
X1934643Y1741907*
X1933838*
X1934464D02*
X1935091Y1740554D01*
X1937149Y1743137D02*
X1936254Y1740554D01*
X1935896Y1743137D02*
X1937149D01*
X1938043Y1742522D02*
Y1742645D01*
X1938133Y1742891*
X1938222Y1743014*
X1938401Y1743137*
X1938759*
X1938938Y1743014*
X1939028Y1742891*
X1939117Y1742645*
Y1742399*
X1939028Y1742153*
X1938849Y1741784*
X1937954Y1740554*
X1939207*
X2009302Y1601012D02*
X2009056Y1600923D01*
X2008810Y1600744*
X2008687Y1600565*
Y1600207*
X2008810Y1600028*
X2009056Y1599849*
X2009302Y1599760*
X2009671Y1599670*
X2010286*
X2010655Y1599760*
X2010901Y1599849*
X2011148Y1600028*
X2011271Y1600207*
Y1600565*
X2011148Y1600744*
X2010901Y1600923*
X2010655Y1601012*
X2009179Y1601818D02*
X2009056Y1601997D01*
X2008687Y1602265*
X2011271*
X2052609Y1802346D02*
X2052363Y1802256D01*
X2052117Y1802077*
X2051994Y1801898*
Y1801540*
X2052117Y1801361*
X2052363Y1801182*
X2052609Y1801093*
X2052978Y1801003*
X2053593*
X2053963Y1801093*
X2053963D02*
X2054209Y1801182D01*
X2054455Y1801361*
X2054578Y1801540*
Y1801898*
X2054455Y1802077*
X2054209Y1802256*
X2053963Y1802346*
X2052486Y1803151D02*
X2052363Y1803330D01*
X2051994Y1803598*
X2054578*
X2051994Y1804940D02*
X2052117Y1804672D01*
X2052486Y1804493*
X2053101Y1804404*
X2053470*
X2054086Y1804493*
X2054455Y1804672*
X2054578Y1804940*
Y1805119*
X2054455Y1805388*
X2054086Y1805567*
X2053470Y1805656*
X2053101*
X2052486Y1805567*
X2052117Y1805388*
X2051994Y1805119*
Y1804940*
X2005365Y1627551D02*
X2005119Y1627462D01*
X2004873Y1627283*
X2004750Y1627104*
Y1626746*
X2004873Y1626567*
X2005119Y1626388*
X2005365Y1626299*
X2005734Y1626209*
X2006349*
X2006718Y1626299*
X2006964Y1626388*
X2007211Y1626567*
X2007334Y1626746*
Y1627104*
X2007211Y1627283*
X2006964Y1627462*
X2006718Y1627551*
X2005242Y1628357D02*
X2005119Y1628536D01*
X2004750Y1628804*
X2007334*
X2004750Y1630146D02*
X2004873Y1629878D01*
X2005242Y1629699*
X2005857Y1629609*
X2006226*
X2006841Y1629699*
X2007211Y1629878*
X2007334Y1630146*
Y1630325*
X2007211Y1630594*
X2006841Y1630773*
X2006226Y1630862*
X2005857*
X2005242Y1630773*
X2004873Y1630594*
X2004750Y1630325*
Y1630146*
Y1632204D02*
X2004873Y1631936D01*
X2005242Y1631757*
X2005857Y1631667*
X2006226*
X2006841Y1631757*
X2007211Y1631936*
X2007334Y1632204*
Y1632383*
X2007211Y1632652*
X2006841Y1632831*
X2006226Y1632920*
X2005857*
X2005242Y1632831*
X2004873Y1632652*
X2004750Y1632383*
Y1632204*
Y1634262D02*
X2004873Y1633994D01*
X2005242Y1633815*
X2005857Y1633725*
X2006226*
X2006841Y1633815*
X2007211Y1633994*
X2007334Y1634262*
Y1634441*
X2007211Y1634710*
X2006841Y1634889*
X2006226Y1634978*
X2005857*
X2005242Y1634889*
X2004873Y1634710*
X2004750Y1634441*
Y1634262*
X2044735Y1820071D02*
X2044489Y1819982D01*
X2044243Y1819803*
X2044120Y1819624*
Y1819266*
X2044243Y1819087*
X2044489Y1818908*
X2044735Y1818818*
X2045104Y1818729*
X2045719*
X2046088Y1818818*
X2046335Y1818908*
X2046581Y1819087*
X2046704Y1819266*
Y1819624*
X2046581Y1819803*
X2046335Y1819982*
X2046088Y1820071*
X2044612Y1820876D02*
X2044489Y1821055D01*
X2044120Y1821324*
X2046704*
X2044612Y1822129D02*
X2044489Y1822308D01*
X2044120Y1822576*
X2046704*
X2052609Y1837779D02*
X2052363Y1837689D01*
X2052117Y1837510*
X2051994Y1837331*
Y1836973*
X2052117Y1836794*
X2052363Y1836615*
X2052609Y1836526*
X2052978Y1836437*
X2053593*
X2053963Y1836526*
X2053963D02*
X2054209Y1836615D01*
X2054455Y1836794*
X2054578Y1836973*
Y1837331*
X2054455Y1837510*
X2054209Y1837689*
X2053963Y1837779*
X2052486Y1838584D02*
X2052363Y1838763D01*
X2051994Y1839031*
X2054578*
X2052609Y1839926D02*
X2052486D01*
X2052240Y1840016*
X2052117Y1840105*
X2051994Y1840284*
Y1840642*
X2052117Y1840821*
X2052240Y1840910*
X2052486Y1841000*
X2052732*
X2052978Y1840910*
X2053347Y1840731*
X2054578Y1839837*
Y1841089*
X2005365Y1673543D02*
X2005119Y1673453D01*
X2004873Y1673274*
X2004750Y1673095*
Y1672738*
X2004873Y1672559*
X2005119Y1672380*
X2005365Y1672290*
X2005734Y1672201*
X2006349*
X2006718Y1672290*
X2006964Y1672380*
X2007211Y1672559*
X2007334Y1672738*
Y1673095*
X2007211Y1673274*
X2006964Y1673453*
X2006718Y1673543*
X2004750Y1674527D02*
Y1675511D01*
X2005734Y1674974*
Y1675243*
X2005857Y1675422*
X2005980Y1675511*
X2006349Y1675601*
X2006595*
X2006964Y1675511*
X2007211Y1675332*
X2007334Y1675064*
Y1674796*
X2007211Y1674527*
X2007088Y1674438*
X2007088D02*
X2006841Y1674348D01*
X2005365Y1695152D02*
X2005119Y1695062D01*
X2004873Y1694883*
X2004750Y1694704*
Y1694346*
X2004873Y1694167*
X2005119Y1693988*
X2005365Y1693899*
X2005734Y1693809*
X2006349*
X2006718Y1693899*
X2006964Y1693988*
X2007211Y1694167*
X2007334Y1694346*
Y1694704*
X2007211Y1694883*
X2006964Y1695062*
X2006718Y1695152*
X2004750Y1696852D02*
X2006472Y1695957D01*
Y1697299*
X2004750Y1696852D02*
X2007334D01*
X2005365Y1716805D02*
X2005119Y1716716D01*
X2004873Y1716537*
X2004750Y1716358*
Y1716000*
X2004873Y1715821*
X2005119Y1715642*
X2005365Y1715552*
X2005734Y1715463*
X2006349*
X2006718Y1715552*
X2006964Y1715642*
X2007211Y1715821*
X2007334Y1716000*
Y1716358*
X2007211Y1716537*
X2006964Y1716716*
X2006718Y1716805*
X2004750Y1718774D02*
Y1717879D01*
X2005857Y1717789*
X2005734Y1717879*
X2005611Y1718147*
Y1718416*
X2005734Y1718684*
X2005980Y1718863*
X2006349Y1718953*
X2006595Y1718863*
X2006964Y1718774*
X2007211Y1718595*
X2007334Y1718326*
Y1718058*
X2007211Y1717789*
X2007088Y1717700*
X2007088D02*
X2006841Y1717610D01*
X2005365Y1738548D02*
X2005119Y1738459D01*
X2004873Y1738280*
X2004750Y1738101*
Y1737743*
X2004873Y1737564*
X2005119Y1737385*
X2005365Y1737296*
X2005734Y1737206*
X2006349*
X2006718Y1737296*
X2006964Y1737385*
X2007211Y1737564*
X2007334Y1737743*
Y1738101*
X2007211Y1738280*
X2006964Y1738459*
X2006718Y1738548*
X2005119Y1740427D02*
X2004873Y1740338D01*
X2004750Y1740069*
Y1739890*
X2004873Y1739622*
X2005242Y1739443*
X2005857Y1739353*
X2006472*
X2006964Y1739443*
X2007211Y1739622*
X2007334Y1739890*
Y1739980*
X2007211Y1740248*
X2006964Y1740427*
X2006595Y1740517*
X2006472*
X2006103Y1740427*
X2005857Y1740248*
X2005734Y1739980*
Y1739890*
X2005857Y1739622*
X2006103Y1739443*
X2006472Y1739353*
X2005365Y1760157D02*
X2005119Y1760068D01*
X2004873Y1759889*
X2004750Y1759710*
Y1759352*
X2004873Y1759173*
X2005119Y1758994*
X2005365Y1758904*
X2005734Y1758815*
X2006349*
X2006718Y1758904*
X2006964Y1758994*
X2007211Y1759173*
X2007334Y1759352*
Y1759710*
X2007211Y1759889*
X2006964Y1760068*
X2006718Y1760157*
X2004750Y1762215D02*
X2007334Y1761320D01*
X2004750Y1760962D02*
Y1762215D01*
X2048672Y1777918D02*
X2048426Y1777829D01*
X2048180Y1777650*
X2048057Y1777471*
Y1777113*
X2048180Y1776934*
X2048426Y1776755*
X2048672Y1776666*
X2049041Y1776576*
X2049656*
X2050025Y1776666*
X2050272Y1776755*
X2050518Y1776934*
X2050641Y1777113*
Y1777471*
X2050518Y1777650*
X2050272Y1777829*
X2050025Y1777918*
X2048918Y1779887D02*
X2049287Y1779797D01*
X2049533Y1779618*
X2049656Y1779350*
Y1779260*
X2049533Y1778992*
X2049287Y1778813*
X2048918Y1778724*
X2048795*
X2048426Y1778813*
X2048180Y1778992*
X2048057Y1779260*
Y1779350*
X2048180Y1779618*
X2048426Y1779797*
X2048918Y1779887*
X2049533*
X2050149Y1779797*
X2050518Y1779618*
X2050641Y1779350*
Y1779171*
X2050518Y1778903*
X2050272Y1778813*
X2015503Y1799957D02*
X2012919D01*
X2015503D02*
Y1799151D01*
X2015380Y1798883*
X2015257Y1798793*
X2015011Y1798704*
X2014765*
X2014519Y1798793*
X2014396Y1798883*
X2014273Y1799151*
Y1799957*
Y1799330D02*
X2012919Y1798704D01*
X2015011Y1797899D02*
X2015134Y1797720D01*
X2015503Y1797451*
X2012919*
X2015503Y1796109D02*
X2015380Y1796377D01*
X2015011Y1796556*
X2014396Y1796646*
X2014026*
X2013411Y1796556*
X2013042Y1796377*
X2012919Y1796109*
Y1795930*
X2013042Y1795662*
X2013411Y1795483*
X2014026Y1795393*
X2014396*
X2015011Y1795483*
X2015380Y1795662*
X2015503Y1795930*
Y1796109*
Y1793693D02*
X2013780Y1794588D01*
Y1793246*
X2015503Y1793693D02*
X2012919D01*
X2014715Y1783833D02*
X2012132D01*
X2014715D02*
Y1783027D01*
X2014592Y1782759*
X2014469Y1782670*
X2014223Y1782580*
X2013977*
X2013731Y1782670*
X2013608Y1782759*
X2013485Y1783027*
Y1783833*
Y1783206D02*
X2012132Y1782580D01*
X2013854Y1780612D02*
X2013485Y1780701D01*
X2013239Y1780880*
X2013116Y1781148*
Y1781238*
X2013239Y1781506*
X2013485Y1781685*
X2013854Y1781775*
X2013977*
X2014346Y1781685*
X2014592Y1781506*
X2014715Y1781238*
Y1781148*
X2014592Y1780880*
X2014346Y1780701*
X2013854Y1780612*
X2013239*
X2012624Y1780701*
X2012255Y1780880*
X2012132Y1781148*
Y1781327*
X2012255Y1781596*
X2012501Y1781685*
X2014715Y1778911D02*
X2012993Y1779806D01*
Y1778464*
X2014715Y1778911D02*
X2012132D01*
X1951125Y1802192D02*
Y1799609D01*
Y1802192D02*
X1951930D01*
X1952199Y1802069*
X1952288Y1801946*
X1952378Y1801700*
Y1801454*
X1952288Y1801208*
X1952199Y1801085*
X1951930Y1800962*
X1951125*
X1951751D02*
X1952378Y1799609D01*
X1953183Y1801700D02*
X1953362Y1801823D01*
X1953630Y1802192*
Y1799609*
X1954972Y1802192D02*
X1954704Y1802069D01*
X1954525Y1801700*
X1954436Y1801085*
Y1800716*
X1954525Y1800101*
X1954704Y1799732*
X1954972Y1799609*
X1955151*
X1955420Y1799732*
X1955599Y1800101*
X1955688Y1800716*
Y1801085*
X1955599Y1801700*
X1955420Y1802069*
X1955151Y1802192*
X1954972*
X1956673D02*
X1957657D01*
X1957120Y1801208*
X1957388*
X1957567Y1801085*
X1957657Y1800962*
X1957746Y1800593*
Y1800347*
X1957657Y1799978*
X1957478Y1799732*
X1957209Y1799609*
X1956941*
X1956673Y1799732*
X1956583Y1799855*
X1956494Y1800101*
X1952315Y1821877D02*
Y1819294D01*
Y1821877D02*
X1953120D01*
X1953389Y1821754*
X1953478Y1821631*
X1953568Y1821385*
Y1821139*
X1953478Y1820893*
X1953389Y1820770*
X1953120Y1820647*
X1952315*
X1952941D02*
X1953568Y1819294D01*
X1954373Y1821385D02*
X1954552Y1821508D01*
X1954820Y1821877*
Y1819294*
X1955626Y1821385D02*
X1955805Y1821508D01*
X1956073Y1821877*
Y1819294*
X1957057Y1821877D02*
X1958042D01*
X1957505Y1820893*
X1957773*
X1957952Y1820770*
X1958042Y1820647*
X1958131Y1820278*
Y1820032*
X1958042Y1819663*
X1957863Y1819417*
X1957594Y1819294*
X1957326*
X1957057Y1819417*
X1956968Y1819540*
X1956878Y1819786*
X1951125Y1841562D02*
Y1838979D01*
Y1841562D02*
X1951930D01*
X1952199Y1841439*
X1952288Y1841316*
X1952378Y1841070*
Y1840824*
X1952288Y1840578*
X1952199Y1840455*
X1951930Y1840332*
X1951125*
X1951751D02*
X1952378Y1838979D01*
X1953183Y1841070D02*
X1953362Y1841193D01*
X1953630Y1841562*
Y1838979*
X1954525Y1840947D02*
Y1841070D01*
X1954615Y1841316*
X1954704Y1841439*
X1954883Y1841562*
X1955241*
X1955420Y1841439*
X1955509Y1841316*
X1955599Y1841070*
Y1840824*
X1955509Y1840578*
X1955330Y1840209*
X1954436Y1838979*
X1955688*
X1956673Y1841562D02*
X1957657D01*
X1957120Y1840578*
X1957388*
X1957567Y1840455*
X1957657Y1840332*
X1957746Y1839963*
Y1839717*
X1957657Y1839348*
X1957478Y1839102*
X1957209Y1838979*
X1956941*
X1956673Y1839102*
X1956583Y1839225*
X1956494Y1839471*
X1951501Y1781720D02*
Y1779136D01*
Y1781720D02*
X1952306D01*
X1952574Y1781597*
X1952664Y1781474*
X1952753Y1781228*
Y1780982*
X1952664Y1780736*
X1952574Y1780613*
X1952306Y1780490*
X1951501*
X1952127D02*
X1952753Y1779136D01*
X1954722Y1780859D02*
X1954632Y1780490D01*
X1954454Y1780244*
X1954185Y1780121*
X1954096*
X1953827Y1780244*
X1953648Y1780490*
X1953559Y1780859*
Y1780982*
X1953648Y1781351*
X1953827Y1781597*
X1954096Y1781720*
X1954185*
X1954454Y1781597*
X1954632Y1781351*
X1954722Y1780859*
Y1780244*
X1954632Y1779628*
X1954454Y1779259*
X1954185Y1779136*
X1954006*
X1953738Y1779259*
X1953648Y1779505*
X1955706Y1781720D02*
X1956690D01*
X1956154Y1780736*
X1956422*
X1956601Y1780613*
X1956690Y1780490*
X1956780Y1780121*
Y1779874*
X1956690Y1779505*
X1956511Y1779259*
X1956243Y1779136*
X1955975*
X1955706Y1779259*
X1955617Y1779382*
X1955527Y1779628*
G54D13*
X2012095Y1813351D02*
Y1816698D01*
X2011307Y1817485*
X2008158*
X2007370Y1816698*
Y1813351*
Y1810989D02*
Y1807643D01*
X2008158Y1806855*
X2011307*
X2012095Y1807643*
Y1810989*
X1999496Y1651540D02*
Y1648194D01*
X2000284Y1647406*
X2003433*
X2004221Y1648194*
Y1651540*
Y1653903D02*
Y1657249D01*
X2003433Y1658036*
X2000284*
X1999496Y1657249*
Y1653903*
X2012095Y1829099D02*
Y1832446D01*
X2011307Y1833233*
X2008158*
X2007370Y1832446*
Y1829099*
Y1826737D02*
Y1823391D01*
X2008158Y1822603*
X2011307*
X2012095Y1823391*
Y1826737*
X2058777Y1606003D02*
Y1608816D01*
X2059800Y1607410D02*
X2057754D01*
X2076193Y1607353D02*
X2074148D01*
X2055402Y1610595D02*
Y1613942D01*
X2054615Y1614729*
X2051465*
X2050678Y1613942*
Y1610595*
Y1608233D02*
Y1604887D01*
X2051465Y1604099*
X2054615*
X2055402Y1604887*
Y1608233*
X1999496Y1629887D02*
Y1626540D01*
X2000284Y1625753*
X2003433*
X2004221Y1626540*
Y1629887*
Y1632249D02*
Y1635595D01*
X2003433Y1636383*
X2000284*
X1999496Y1635595*
Y1632249*
X2042804Y1793273D02*
Y1789926D01*
X2043591Y1789139*
X2046741*
X2047528Y1789926*
Y1793273*
Y1795635D02*
Y1798981D01*
X2046741Y1799769*
X2043591*
X2042804Y1798981*
Y1795635*
X2034930Y1793273D02*
Y1789926D01*
X2035717Y1789139*
X2038867*
X2039654Y1789926*
Y1793273*
Y1795635D02*
Y1798981D01*
X2038867Y1799769*
X2035717*
X2034930Y1798981*
Y1795635*
X1999496Y1608233D02*
Y1604887D01*
X2000284Y1604099*
X2003433*
X2004221Y1604887*
Y1608233*
Y1610595D02*
Y1613942D01*
X2003433Y1614729*
X2000284*
X1999496Y1613942*
Y1610595*
X2050678Y1810989D02*
Y1807643D01*
X2051465Y1806855*
X2054615*
X2055402Y1807643*
Y1810989*
Y1813351D02*
Y1816698D01*
X2054615Y1817485*
X2051465*
X2050678Y1816698*
Y1813351*
X2034930Y1810989D02*
Y1807643D01*
X2035717Y1806855*
X2038867*
X2039654Y1807643*
Y1810989*
Y1813351D02*
Y1816698D01*
X2038867Y1817485*
X2035717*
X2034930Y1816698*
Y1813351*
X2042804Y1828706D02*
Y1825359D01*
X2043591Y1824572*
X2046741*
X2047528Y1825359*
Y1828706*
Y1831068D02*
Y1834414D01*
X2046741Y1835202*
X2043591*
X2042804Y1834414*
Y1831068*
X2034930Y1828706D02*
Y1825359D01*
X2035717Y1824572*
X2038867*
X2039654Y1825359*
Y1828706*
Y1831068D02*
Y1834414D01*
X2038867Y1835202*
X2035717*
X2034930Y1834414*
Y1831068*
X1999496Y1716501D02*
Y1713154D01*
X2000284Y1712367*
X2003433*
X2004221Y1713154*
Y1716501*
Y1718863D02*
Y1722210D01*
X2003433Y1722997*
X2000284*
X1999496Y1722210*
Y1718863*
Y1673194D02*
Y1669847D01*
X2000284Y1669060*
X2003433*
X2004221Y1669847*
Y1673194*
Y1675556D02*
Y1678903D01*
X2003433Y1679690*
X2000284*
X1999496Y1678903*
Y1675556*
Y1694847D02*
Y1691501D01*
X2000284Y1690714*
X2003433*
X2004221Y1691501*
Y1694847*
Y1697210D02*
Y1700556D01*
X2003433Y1701343*
X2000284*
X1999496Y1700556*
Y1697210*
Y1738154D02*
Y1734808D01*
X2000284Y1734021*
X2003433*
X2004221Y1734808*
Y1738154*
Y1740517D02*
Y1743863D01*
X2003433Y1744651*
X2000284*
X1999496Y1743863*
Y1740517*
Y1759808D02*
Y1756462D01*
X2000284Y1755674*
X2003433*
X2004221Y1756462*
Y1759808*
Y1762170D02*
Y1765517D01*
X2003433Y1766304*
X2000284*
X1999496Y1765517*
Y1762170*
X2042804Y1777525D02*
Y1774178D01*
X2043591Y1773391*
X2046741*
X2047528Y1774178*
Y1777525*
Y1779887D02*
Y1783233D01*
X2046741Y1784021*
X2043591*
X2042804Y1783233*
Y1779887*
X2034930Y1777525D02*
Y1774178D01*
X2035717Y1773391*
X2038867*
X2039654Y1774178*
Y1777525*
Y1779887D02*
Y1783233D01*
X2038867Y1784021*
X2035717*
X2034930Y1783233*
Y1779887*
X1914063Y1759414D02*
X1910717D01*
X1909930Y1758627*
Y1755477*
X1910717Y1754690*
X1914063*
X1916426D02*
X1919772D01*
X1920559Y1755477*
Y1758627*
X1919772Y1759414*
X1916426*
X2055402Y1697210D02*
Y1700556D01*
X2054615Y1701343*
X2051465*
X2050678Y1700556*
Y1697210*
Y1694847D02*
Y1691501D01*
X2051465Y1690714*
X2054615*
X2055402Y1691501*
Y1694847*
Y1653903D02*
Y1657249D01*
X2054615Y1658036*
X2051465*
X2050678Y1657249*
Y1653903*
Y1651540D02*
Y1648194D01*
X2051465Y1647406*
X2054615*
X2055402Y1648194*
Y1651540*
X1938079Y1616895D02*
X1941426D01*
X1942213Y1617682*
Y1620832*
X1941426Y1621619*
X1938079*
X1935717D02*
X1932370D01*
X1931583Y1620832*
Y1617682*
X1932370Y1616895*
X1935717*
X1914063Y1739729D02*
X1910717D01*
X1909930Y1738942*
Y1735792*
X1910717Y1735005*
X1914063*
X1916426D02*
X1919772D01*
X1920559Y1735792*
Y1738942*
X1919772Y1739729*
X1916426*
X2055402Y1673588D02*
Y1676934D01*
X2054615Y1677721*
X2051465*
X2050678Y1676934*
Y1673588*
Y1671225D02*
Y1667879D01*
X2051465Y1667091*
X2054615*
X2055402Y1667879*
Y1671225*
Y1632249D02*
Y1635595D01*
X2054615Y1636383*
X2051465*
X2050678Y1635595*
Y1632249*
Y1629887D02*
Y1626540D01*
X2051465Y1625753*
X2054615*
X2055402Y1626540*
Y1629887*
X1938079Y1717288D02*
X1941426D01*
X1942213Y1718076*
Y1721225*
X1941426Y1722013*
X1938079*
X1935717D02*
X1932370D01*
X1931583Y1721225*
Y1718076*
X1932370Y1717288*
X1935717*
X1938079Y1656265D02*
X1941426D01*
X1942213Y1657052*
Y1660202*
X1941426Y1660989*
X1938079*
X1935717D02*
X1932370D01*
X1931583Y1660202*
Y1657052*
X1932370Y1656265*
X1935717*
X1938079Y1636580D02*
X1941426D01*
X1942213Y1637367*
Y1640517*
X1941426Y1641304*
X1938079*
X1935717D02*
X1932370D01*
X1931583Y1640517*
Y1637367*
X1932370Y1636580*
X1935717*
X1938079Y1675950D02*
X1941426D01*
X1942213Y1676737*
Y1679887*
X1941426Y1680674*
X1938079*
X1935717D02*
X1932370D01*
X1931583Y1679887*
Y1676737*
X1932370Y1675950*
X1935717*
X1938079Y1695635D02*
X1941426D01*
X1942213Y1696422*
Y1699572*
X1941426Y1700359*
X1938079*
X1935717D02*
X1932370D01*
X1931583Y1699572*
Y1696422*
X1932370Y1695635*
X1935717*
X1938079Y1735005D02*
X1941426D01*
X1942213Y1735792*
Y1738942*
X1941426Y1739729*
X1938079*
X1935717D02*
X1932370D01*
X1931583Y1738942*
Y1735792*
X1932370Y1735005*
X1935717*
X1938079Y1754690D02*
X1941426D01*
X1942213Y1755477*
Y1758627*
X1941426Y1759414*
X1938079*
X1935717D02*
X1932370D01*
X1931583Y1758627*
Y1755477*
X1932370Y1754690*
X1935717*
X2058777Y1627657D02*
Y1630469D01*
X2059800Y1629063D02*
X2057754D01*
X2076193Y1629007D02*
X2074148D01*
X2058777Y1649310D02*
Y1652123D01*
X2059800Y1650717D02*
X2057754D01*
X2076193Y1650660D02*
X2074148D01*
X2058777Y1668996D02*
Y1671808D01*
X2059800Y1670402D02*
X2057754D01*
X2076193Y1670345D02*
X2074148D01*
X2058777Y1690649D02*
Y1693462D01*
X2059800Y1692055D02*
X2057754D01*
X2076193Y1691999D02*
X2074148D01*
X2058777Y1714271D02*
Y1717084D01*
X2059800Y1715677D02*
X2057754D01*
X2076193Y1715621D02*
X2074148D01*
X2058777Y1733956D02*
Y1736769D01*
X2059800Y1735362D02*
X2057754D01*
X2076193Y1735306D02*
X2074148D01*
X2058777Y1755610D02*
Y1758422D01*
X2059800Y1757016D02*
X2057754D01*
X2076193Y1756960D02*
X2074148D01*
X2055402Y1718863D02*
Y1722210D01*
X2054615Y1722997*
X2051465*
X2050678Y1722210*
Y1718863*
Y1716501D02*
Y1713154D01*
X2051465Y1712367*
X2054615*
X2055402Y1713154*
Y1716501*
Y1740517D02*
Y1743863D01*
X2054615Y1744651*
X2051465*
X2050678Y1743863*
Y1740517*
Y1738154D02*
Y1734808D01*
X2051465Y1734021*
X2054615*
X2055402Y1734808*
Y1738154*
Y1762170D02*
Y1765517D01*
X2054615Y1766304*
X2051465*
X2050678Y1765517*
Y1762170*
Y1759808D02*
Y1756462D01*
X2051465Y1755674*
X2054615*
X2055402Y1756462*
Y1759808*
X1914063Y1720044D02*
X1910717D01*
X1909930Y1719257*
Y1716107*
X1910717Y1715320*
X1914063*
X1916426D02*
X1919772D01*
X1920559Y1716107*
Y1719257*
X1919772Y1720044*
X1916426*
X1914063Y1779099D02*
X1910717D01*
X1909930Y1778312*
Y1775162*
X1910717Y1774375*
X1914063*
X1916426D02*
X1919772D01*
X1920559Y1775162*
Y1778312*
X1919772Y1779099*
X1916426*
X1914063Y1798784D02*
X1910717D01*
X1909930Y1797997*
Y1794847*
X1910717Y1794060*
X1914063*
X1916426D02*
X1919772D01*
X1920559Y1794847*
Y1797997*
X1919772Y1798784*
X1916426*
X1914063Y1818469D02*
X1910717D01*
X1909930Y1817682*
Y1814532*
X1910717Y1813745*
X1914063*
X1916426D02*
X1919772D01*
X1920559Y1814532*
Y1817682*
X1919772Y1818469*
X1916426*
X1914063Y1838154D02*
X1910717D01*
X1909930Y1837367*
Y1834217*
X1910717Y1833430*
X1914063*
X1916426D02*
X1919772D01*
X1920559Y1834217*
Y1837367*
X1919772Y1838154*
X1916426*
X1914063Y1621619D02*
X1910717D01*
X1909930Y1620832*
Y1617682*
X1910717Y1616895*
X1914063*
X1916426D02*
X1919772D01*
X1920559Y1617682*
Y1620832*
X1919772Y1621619*
X1916426*
X1914063Y1641304D02*
X1910717D01*
X1909930Y1640517*
Y1637367*
X1910717Y1636580*
X1914063*
X1916426D02*
X1919772D01*
X1920559Y1637367*
Y1640517*
X1919772Y1641304*
X1916426*
X1914063Y1660989D02*
X1910717D01*
X1909930Y1660202*
Y1657052*
X1910717Y1656265*
X1914063*
X1916426D02*
X1919772D01*
X1920559Y1657052*
Y1660202*
X1919772Y1660989*
X1916426*
X1914063Y1680674D02*
X1910717D01*
X1909930Y1679887*
Y1676737*
X1910717Y1675950*
X1914063*
X1916426D02*
X1919772D01*
X1920559Y1676737*
Y1679887*
X1919772Y1680674*
X1916426*
X1914063Y1700359D02*
X1910717D01*
X1909930Y1699572*
Y1696422*
X1910717Y1695635*
X1914063*
X1916426D02*
X1919772D01*
X1920559Y1696422*
Y1699572*
X1919772Y1700359*
X1916426*
X2012095Y1797603D02*
Y1800950D01*
X2011307Y1801737*
X2008158*
X2007370Y1800950*
Y1797603*
Y1795241D02*
Y1791895D01*
X2008158Y1791107*
X2011307*
X2012095Y1791895*
Y1795241*
Y1781855D02*
Y1785202D01*
X2011307Y1785989*
X2008158*
X2007370Y1785202*
Y1781855*
Y1779493D02*
Y1776147D01*
X2008158Y1775359*
X2011307*
X2012095Y1776147*
Y1779493*
X1953433Y1798784D02*
X1950087D01*
X1949300Y1797997*
Y1794847*
X1950087Y1794060*
X1953433*
X1955796D02*
X1959142D01*
X1959930Y1794847*
Y1797997*
X1959142Y1798784*
X1955796*
X1953433Y1818469D02*
X1950087D01*
X1949300Y1817682*
Y1814532*
X1950087Y1813745*
X1953433*
X1955796D02*
X1959142D01*
X1959930Y1814532*
Y1817682*
X1959142Y1818469*
X1955796*
X1953433Y1838154D02*
X1950087D01*
X1949300Y1837367*
Y1834217*
X1950087Y1833430*
X1953433*
X1955796D02*
X1959142D01*
X1959930Y1834217*
Y1837367*
X1959142Y1838154*
X1955796*
X1953433Y1779099D02*
X1950087D01*
X1949300Y1778312*
Y1775162*
X1950087Y1774375*
X1953433*
X1955796D02*
X1959142D01*
X1959930Y1775162*
Y1778312*
X1959142Y1779099*
X1955796*
X1862668Y1725001D02*
X1862387Y1724888D01*
X1862106Y1724660*
X1861965Y1724433*
Y1723979*
X1862106Y1723751*
X1862387Y1723524*
X1862668Y1723410*
X1863090Y1723297*
X1863793*
X1864215Y1723410*
X1864497Y1723524*
X1864778Y1723751*
X1864918Y1723979*
Y1724433*
X1864778Y1724660*
X1864497Y1724888*
X1864215Y1725001*
X1861965Y1726706D02*
X1862106Y1726479D01*
X1862387Y1726251*
X1862668Y1726138*
X1863090Y1726024*
X1863793*
X1864215Y1726138*
X1864497Y1726251*
X1864778Y1726479*
X1864918Y1726706*
Y1727160*
X1864778Y1727388*
X1864497Y1727615*
X1864215Y1727729*
X1863793Y1727842*
X1863090*
X1862668Y1727729*
X1862387Y1727615*
X1862106Y1727388*
X1861965Y1727160*
Y1726706*
Y1728865D02*
X1864918D01*
X1861965D02*
X1864918Y1730456D01*
X1861965D02*
X1864918D01*
X1861965Y1732956D02*
Y1731820D01*
X1863231Y1731706*
X1863090Y1731820*
X1862950Y1732160*
Y1732501*
X1863090Y1732842*
X1863372Y1733070*
X1863793Y1733183*
X1864075Y1733070*
X1864497Y1732956*
X1864778Y1732729*
X1864918Y1732388*
Y1732047*
X1864778Y1731706*
X1864637Y1731592*
X1864356Y1731479*
X1934930Y1803640D02*
Y1800359D01*
Y1803640D02*
X1935725D01*
X1936066Y1803484*
X1936293Y1803172*
X1936407Y1802859*
X1936520Y1802390*
Y1801609*
X1936407Y1801140*
X1936293Y1800828*
X1936066Y1800515*
X1935725Y1800359*
X1934930*
X1937543Y1803015D02*
X1937770Y1803172D01*
X1938111Y1803640*
Y1800359*
X1937292Y1823326D02*
Y1820044D01*
Y1823326D02*
X1938087D01*
X1938087D02*
X1938428Y1823169D01*
X1938655Y1822857*
X1938769Y1822544*
X1938883Y1822076*
X1938883D02*
Y1821294D01*
X1938769Y1820826*
X1938769D02*
X1938655Y1820513D01*
X1938428Y1820201*
X1938428D02*
X1938087Y1820044D01*
X1937292*
X1940019Y1822544D02*
Y1822701D01*
X1940019D02*
X1940133Y1823013D01*
X1940246Y1823169*
X1940474Y1823326*
X1940474D02*
X1940928D01*
X1940928D02*
X1941155Y1823169D01*
X1941269Y1823013*
X1941383Y1822701*
X1941383D02*
Y1822388D01*
X1941269Y1822076*
X1941269D02*
X1941042Y1821607D01*
X1939905Y1820044*
X1941496*
X1934930Y1783955D02*
Y1780674D01*
Y1783955D02*
X1935725D01*
X1936066Y1783799*
X1936293Y1783487*
X1936407Y1783174*
X1936520Y1782705*
Y1781924*
X1936407Y1781455*
X1936293Y1781143*
X1936066Y1780830*
X1935725Y1780674*
X1934930*
X1937657Y1783174D02*
Y1783330D01*
X1937770Y1783643*
X1937884Y1783799*
X1938111Y1783955*
X1938566*
X1938793Y1783799*
X1938907Y1783643*
X1939020Y1783330*
Y1783018*
X1938907Y1782705*
X1938680Y1782237*
X1937543Y1780674*
X1939134*
X1940157Y1783330D02*
X1940384Y1783487D01*
X1940725Y1783955*
Y1780674*
X1937292Y1843011D02*
Y1839729D01*
Y1843011D02*
X1938087D01*
X1938428Y1842854*
X1938655Y1842542*
X1938769Y1842229*
X1938883Y1841761*
Y1840979*
X1938769Y1840511*
X1938655Y1840198*
X1938428Y1839886*
X1938087Y1839729*
X1937292*
X1940133Y1843011D02*
X1941383D01*
X1940701Y1841761*
X1941042*
X1941269Y1841604*
X1941383Y1841448*
X1941496Y1840979*
Y1840667*
X1941383Y1840198*
X1941155Y1839886*
X1940814Y1839729*
X1940474*
X1940133Y1839886*
X1940019Y1840042*
X1939905Y1840354*
X2046609Y1605084D02*
X2049890D01*
X2046609D02*
Y1606106D01*
X2046765Y1606447*
X2046921Y1606561*
X2047234Y1606675*
X2047546*
X2047859Y1606561*
X2048015Y1606447*
X2048171Y1606106*
Y1605084*
Y1605879D02*
X2049890Y1606675D01*
X2047234Y1607697D02*
X2047078Y1607925D01*
X2046609Y1608265*
X2049890*
X2047234Y1609288D02*
X2047078Y1609515D01*
X2046609Y1609856*
X2049890*
X2046609Y1611447D02*
X2046765Y1611106D01*
X2047078Y1610993*
X2047390*
X2047703Y1611106*
X2047859Y1611334*
X2048015Y1611788*
X2048171Y1612129*
X2048484Y1612356*
X2048796Y1612470*
X2049265*
X2049578Y1612356*
X2049734Y1612243*
X2049890Y1611902*
Y1611447*
X2049734Y1611106*
X2049578Y1610993*
X2049265Y1610879*
X2048796*
X2048484Y1610993*
X2048171Y1611220*
X2048015Y1611561*
X2047859Y1612015*
X2047703Y1612243*
X2047390Y1612356*
X2047078*
X2046765Y1612243*
X2046609Y1611902*
Y1611447*
X2073793Y1786896D02*
X2073520Y1786724D01*
X2073248Y1786380*
X2073111Y1786036*
X2072975Y1785521*
Y1784661*
X2073111Y1784146*
X2073248Y1783802*
X2073520Y1783458*
X2073793Y1783286*
X2074338*
X2074611Y1783458*
X2074884Y1783802*
X2075020Y1784146*
X2075157Y1784661*
Y1785521*
X2075020Y1786036*
X2074884Y1786380*
X2074611Y1786724*
X2074338Y1786896*
X2073793*
X2074202Y1783974D02*
X2075020Y1782943D01*
X2076384Y1786208D02*
X2076657Y1786380D01*
X2077066Y1786896*
Y1783286*
X2079929Y1786380D02*
X2079793Y1786724D01*
X2079384Y1786896*
X2079111*
X2078702Y1786724*
X2078429Y1786208*
X2078293Y1785349*
Y1784490*
X2078429Y1783802*
X2078702Y1783458*
X2079111Y1783286*
X2079248*
X2079657Y1783458*
X2079929Y1783802*
X2080066Y1784318*
Y1784490*
X2079929Y1785005*
X2079657Y1785349*
X2079248Y1785521*
X2079111*
X2078702Y1785349*
X2078429Y1785005*
X2078293Y1784490*
X2073793Y1801856D02*
X2073520Y1801685D01*
X2073248Y1801341*
X2073111Y1800997*
X2072975Y1800481*
Y1799622*
X2073111Y1799106*
X2073248Y1798763*
X2073520Y1798419*
X2073793Y1798247*
X2074338*
X2074611Y1798419*
X2074884Y1798763*
X2075020Y1799106*
X2075157Y1799622*
Y1800481*
X2075020Y1800997*
X2074884Y1801341*
X2074611Y1801685*
X2074338Y1801856*
X2073793*
X2074202Y1798935D02*
X2075020Y1797903D01*
X2076384Y1801169D02*
X2076657Y1801341D01*
X2077066Y1801856*
Y1798247*
X2080202Y1801856D02*
X2078838Y1798247D01*
X2078293Y1801856D02*
X2080202D01*
X2073793Y1819179D02*
X2073520Y1819007D01*
X2073248Y1818664*
X2073111Y1818320*
X2072975Y1817804*
Y1816945*
X2073111Y1816429*
X2073248Y1816085*
X2073520Y1815742*
X2073793Y1815570*
X2074338*
X2074611Y1815742*
X2074884Y1816085*
X2075020Y1816429*
X2075157Y1816945*
Y1817804*
X2075020Y1818320*
X2074884Y1818664*
X2074611Y1819007*
X2074338Y1819179*
X2073793*
X2074202Y1816257D02*
X2075020Y1815226D01*
X2076384Y1818492D02*
X2076657Y1818664D01*
X2077066Y1819179*
Y1815570*
X2080066Y1817976D02*
X2079929Y1817460D01*
X2079657Y1817117*
X2079248Y1816945*
X2079111*
X2078702Y1817117*
X2078429Y1817460*
X2078293Y1817976*
Y1818148*
X2078429Y1818664*
X2078702Y1819007*
X2079111Y1819179*
X2079248*
X2079657Y1819007*
X2079929Y1818664*
X2080066Y1817976*
Y1817117*
X2079929Y1816257*
X2079657Y1815742*
X2079248Y1815570*
X2078975*
X2078566Y1815742*
X2078429Y1816085*
X2073793Y1834927D02*
X2073520Y1834755D01*
X2073248Y1834412*
X2073111Y1834068*
X2072975Y1833552*
Y1832693*
X2073111Y1832177*
X2073248Y1831833*
X2073248D02*
X2073520Y1831490D01*
X2073793Y1831318*
X2074338*
X2074611Y1831490*
X2074884Y1831833*
X2074884D02*
X2075020Y1832177D01*
X2075157Y1832693*
Y1833552*
X2075020Y1834068*
X2074884Y1834412*
X2074611Y1834755*
X2074338Y1834927*
X2073793*
X2074202Y1832005D02*
X2075020Y1830974D01*
X2076520Y1834068D02*
Y1834240D01*
X2076657Y1834583*
X2076657D02*
X2076793Y1834755D01*
X2077066Y1834927*
X2077611*
X2077884Y1834755*
X2078020Y1834583*
X2078020D02*
X2078157Y1834240D01*
Y1833896*
X2078020Y1833552*
X2077748Y1833037*
X2076384Y1831318*
X2078293*
X2079793Y1834927D02*
X2081293D01*
X2080475Y1833552*
X2080884*
X2081157Y1833380*
X2081293Y1833208*
X2081293D02*
X2081429Y1832693D01*
Y1832349*
X2081293Y1831833*
X2081293D02*
X2081020Y1831490D01*
X2080611Y1831318*
X2080202*
X2079793Y1831490*
X2079657Y1831662*
X2079520Y1832005*
X2084536Y1863220D02*
Y1865563D01*
X2084422Y1866032*
X2084195Y1866345*
X2083854Y1866501*
X2083627*
X2083286Y1866345*
X2083059Y1866032*
X2082945Y1865563*
Y1863220*
X2081922Y1863845D02*
X2081695Y1863688D01*
X2081354Y1863220*
Y1866501*
X2046609Y1712958D02*
X2049890D01*
X2046609D02*
Y1713980D01*
X2046765Y1714321*
X2046921Y1714435*
X2047234Y1714549*
X2047546*
X2047859Y1714435*
X2048015Y1714321*
X2048171Y1713980*
Y1712958*
Y1713753D02*
X2049890Y1714549D01*
X2047390Y1715685D02*
X2047234D01*
X2046921Y1715799*
X2046765Y1715912*
X2046609Y1716139*
Y1716594*
X2046765Y1716821*
X2046921Y1716935*
X2047234Y1717049*
X2047546*
X2047859Y1716935*
X2048328Y1716708*
X2049890Y1715571*
Y1717162*
X2046609Y1718412D02*
Y1719662D01*
X2047859Y1718980*
Y1719321*
X2048015Y1719549*
X2048171Y1719662*
X2048640Y1719776*
X2048953*
X2049421Y1719662*
X2049734Y1719435*
X2049890Y1719094*
Y1718753*
X2049734Y1718412*
X2049578Y1718299*
X2049265Y1718185*
X2045822Y1735792D02*
X2049103D01*
X2045822D02*
Y1736815D01*
X2045978Y1737156*
X2046134Y1737270*
X2046447Y1737383*
X2046759*
X2047072Y1737270*
X2047228Y1737156*
X2047384Y1736815*
Y1735792*
Y1736588D02*
X2049103Y1737383D01*
X2046603Y1738520D02*
X2046447D01*
X2046134Y1738633*
X2045978Y1738747*
X2045822Y1738974*
Y1739429*
X2045978Y1739656*
X2046134Y1739770*
X2046447Y1739883*
X2046759*
X2047072Y1739770*
X2047540Y1739542*
X2049103Y1738406*
Y1739997*
X2045822Y1742156D02*
X2048009Y1741020D01*
Y1742724*
X2045822Y1742156D02*
X2049103D01*
X2045822Y1757052D02*
X2049103D01*
X2045822D02*
Y1758075D01*
X2045978Y1758416*
X2046134Y1758529*
X2046447Y1758643*
X2046759*
X2047072Y1758529*
X2047228Y1758416*
X2047384Y1758075*
Y1757052*
Y1757848D02*
X2049103Y1758643D01*
X2046603Y1759779D02*
X2046447D01*
X2046134Y1759893*
X2045978Y1760007*
X2045822Y1760234*
Y1760688*
X2045978Y1760916*
X2046134Y1761029*
X2046447Y1761143*
X2046759*
X2047072Y1761029*
X2047540Y1760802*
X2049103Y1759666*
Y1761257*
X2045822Y1763757D02*
Y1762620D01*
X2047228Y1762507*
X2047072Y1762620*
X2046915Y1762961*
Y1763302*
X2047072Y1763643*
X2047384Y1763870*
X2047853Y1763984*
X2048165Y1763870*
X2048634Y1763757*
X2048947Y1763529*
X2049103Y1763188*
Y1762848*
X2048947Y1762507*
X2048790Y1762393*
X2048478Y1762279*
X1912882Y1724113D02*
Y1720832D01*
Y1724113D02*
X1913905D01*
X1914246Y1723957*
X1914360Y1723800*
X1914473Y1723488*
Y1723175*
X1914360Y1722863*
X1914246Y1722707*
X1913905Y1722550*
X1912882*
X1913678D02*
X1914473Y1720832D01*
X1915496Y1723488D02*
X1915723Y1723644D01*
X1916064Y1724113*
Y1720832*
X1917769Y1724113D02*
X1917428Y1723957D01*
X1917200Y1723488*
X1917087Y1722707*
Y1722238*
X1917200Y1721457*
X1917428Y1720988*
X1917769Y1720832*
X1917996*
X1918337Y1720988*
X1918564Y1721457*
X1918678Y1722238*
Y1722707*
X1918564Y1723488*
X1918337Y1723957*
X1917996Y1724113*
X1917769*
X1913670Y1783168D02*
Y1779887D01*
Y1783168D02*
X1914692D01*
X1915033Y1783012*
X1915147Y1782856*
X1915261Y1782543*
Y1782231*
X1915147Y1781918*
X1915033Y1781762*
X1914692Y1781606*
X1913670*
X1914465D02*
X1915261Y1779887D01*
X1916283Y1782543D02*
X1916511Y1782699D01*
X1916852Y1783168*
Y1779887*
X1919352Y1783168D02*
X1918215D01*
X1918102Y1781762*
X1918215Y1781918*
X1918556Y1782074*
X1918897*
X1919238Y1781918*
X1919465Y1781606*
X1919579Y1781137*
X1919465Y1780824*
X1919352Y1780356*
X1919124Y1780043*
X1918783Y1779887*
X1918442*
X1918102Y1780043*
X1917988Y1780199*
X1917874Y1780512*
X1912882Y1802853D02*
Y1799572D01*
Y1802853D02*
X1913905D01*
X1914246Y1802697*
X1914360Y1802541*
X1914473Y1802228*
Y1801916*
X1914360Y1801603*
X1914246Y1801447*
X1913905Y1801291*
X1912882*
X1913678D02*
X1914473Y1799572D01*
X1915496Y1802228D02*
X1915723Y1802384D01*
X1916064Y1802853*
Y1799572*
X1918450Y1802384D02*
X1918337Y1802697D01*
X1917996Y1802853*
X1917769*
X1917428Y1802697*
X1917200Y1802228*
X1917087Y1801447*
Y1800666*
X1917200Y1800041*
X1917428Y1799728*
X1917769Y1799572*
X1917882*
X1918223Y1799728*
X1918450Y1800041*
X1918564Y1800509*
Y1800666*
X1918450Y1801134*
X1918223Y1801447*
X1917882Y1801603*
X1917769*
X1917428Y1801447*
X1917200Y1801134*
X1917087Y1800666*
X1912095Y1822538D02*
Y1819257D01*
Y1822538D02*
X1913118D01*
X1913459Y1822382*
X1913572Y1822226*
X1913686Y1821913*
Y1821601*
X1913572Y1821288*
X1913459Y1821132*
X1913118Y1820976*
X1912095*
X1912890D02*
X1913686Y1819257D01*
X1914822Y1821757D02*
Y1821913D01*
X1914936Y1822226*
X1915049Y1822382*
X1915277Y1822538*
X1915731*
X1915959Y1822382*
X1916072Y1822226*
X1916186Y1821913*
Y1821601*
X1916072Y1821288*
X1915845Y1820819*
X1914709Y1819257*
X1916299*
X1917322Y1821913D02*
X1917549Y1822069D01*
X1917890Y1822538*
Y1819257*
X1912095Y1842223D02*
Y1838942D01*
Y1842223D02*
X1913118D01*
X1913459Y1842067*
X1913572Y1841911*
X1913686Y1841598*
Y1841286*
X1913572Y1840973*
X1913459Y1840817*
X1913118Y1840661*
X1912095*
X1912890D02*
X1913686Y1838942D01*
X1914822Y1841442D02*
Y1841598D01*
X1914936Y1841911*
X1915049Y1842067*
X1915277Y1842223*
X1915731*
X1915959Y1842067*
X1916072Y1841911*
X1916186Y1841598*
Y1841286*
X1916072Y1840973*
X1915845Y1840504*
X1914709Y1838942*
X1916299*
X1917436Y1841442D02*
Y1841598D01*
X1917549Y1841911*
X1917663Y1842067*
X1917890Y1842223*
X1918345*
X1918572Y1842067*
X1918686Y1841911*
X1918799Y1841598*
Y1841286*
X1918686Y1840973*
X1918459Y1840504*
X1917322Y1838942*
X1918913*
X1912882Y1625688D02*
Y1622406D01*
Y1625688D02*
X1913905D01*
X1914246Y1625531*
X1914360Y1625375*
X1914473Y1625063*
Y1624750*
X1914360Y1624438*
X1914246Y1624281*
X1913905Y1624125*
X1912882*
X1913678D02*
X1914473Y1622406D01*
X1916973Y1625688D02*
X1915837D01*
X1915723Y1624281*
X1915837Y1624438*
X1916178Y1624594*
X1916519*
X1916860Y1624438*
X1917087Y1624125*
X1917200Y1623656*
X1917087Y1623344*
X1916973Y1622875*
X1916746Y1622563*
X1916405Y1622406*
X1916064*
X1915723Y1622563*
X1915610Y1622719*
X1915496Y1623031*
X1913670Y1645373D02*
Y1642091D01*
Y1645373D02*
X1914692D01*
X1915033Y1645216*
X1915147Y1645060*
X1915261Y1644748*
Y1644435*
X1915147Y1644123*
X1915033Y1643966*
X1914692Y1643810*
X1913670*
X1914465D02*
X1915261Y1642091D01*
X1917647Y1644904D02*
X1917533Y1645216D01*
X1917192Y1645373*
X1916965*
X1916624Y1645216*
X1916397Y1644748*
X1916283Y1643966*
Y1643185*
X1916397Y1642560*
X1916624Y1642248*
X1916965Y1642091*
X1917079*
X1917420Y1642248*
X1917647Y1642560*
X1917761Y1643029*
Y1643185*
X1917647Y1643654*
X1917420Y1643966*
X1917079Y1644123*
X1916965*
X1916624Y1643966*
X1916397Y1643654*
X1916283Y1643185*
X1913670Y1665058D02*
Y1661777D01*
Y1665058D02*
X1914692D01*
X1915033Y1664902*
X1915147Y1664745*
X1915261Y1664433*
Y1664120*
X1915147Y1663808*
X1915033Y1663652*
X1914692Y1663495*
X1913670*
X1914465D02*
X1915261Y1661777D01*
X1917874Y1665058D02*
X1916738Y1661777D01*
X1916283Y1665058D02*
X1917874D01*
X1913670Y1684743D02*
Y1681462D01*
Y1684743D02*
X1914692D01*
X1915033Y1684587*
X1915147Y1684430*
X1915261Y1684118*
Y1683805*
X1915147Y1683493*
X1915033Y1683337*
X1914692Y1683180*
X1913670*
X1914465D02*
X1915261Y1681462D01*
X1916852Y1684743D02*
X1916511Y1684587D01*
X1916397Y1684274*
Y1683962*
X1916511Y1683649*
X1916738Y1683493*
X1917192Y1683337*
X1917533Y1683180*
X1917761Y1682868*
X1917874Y1682555*
Y1682087*
X1917761Y1681774*
X1917647Y1681618*
X1917306Y1681462*
X1916852*
X1916511Y1681618*
X1916397Y1681774*
X1916283Y1682087*
Y1682555*
X1916397Y1682868*
X1916624Y1683180*
X1916965Y1683337*
X1917420Y1683493*
X1917647Y1683649*
X1917761Y1683962*
Y1684274*
X1917647Y1684587*
X1917306Y1684743*
X1916852*
X1913670Y1704428D02*
Y1701147D01*
Y1704428D02*
X1914692D01*
X1915033Y1704272*
X1915147Y1704115*
X1915261Y1703803*
Y1703490*
X1915147Y1703178*
X1915033Y1703022*
X1914692Y1702865*
X1913670*
X1914465D02*
X1915261Y1701147D01*
X1917761Y1703334D02*
X1917647Y1702865D01*
X1917420Y1702553*
X1917079Y1702397*
X1916965*
X1916624Y1702553*
X1916397Y1702865*
X1916283Y1703334*
Y1703490*
X1916397Y1703959*
X1916624Y1704272*
X1916965Y1704428*
X1917079*
X1917420Y1704272*
X1917647Y1703959*
X1917761Y1703334*
Y1702553*
X1917647Y1701772*
X1917420Y1701303*
X1917079Y1701147*
X1916852*
X1916511Y1701303*
X1916397Y1701615*
X1921794Y1875610D02*
Y1872656D01*
X1923385Y1875610D02*
Y1872656D01*
X1921794Y1874203D02*
X1923385D01*
X1924407Y1875047D02*
X1924635Y1875188D01*
X1924976Y1875610*
Y1872656*
X1921794Y1907106D02*
Y1904153D01*
X1923385Y1907106D02*
Y1904153D01*
X1921794Y1905699D02*
X1923385D01*
X1924521Y1906403D02*
Y1906543D01*
X1924635Y1906824*
X1924748Y1906965*
X1924976Y1907106*
X1925430*
X1925657Y1906965*
X1925771Y1906824*
X1925885Y1906543*
Y1906262*
X1925771Y1905981*
X1925544Y1905559*
X1924407Y1904153*
X1925998*
X2100069Y1604296D02*
X2099890Y1604757D01*
X2099532Y1605218*
X2099174Y1605448*
X2098458*
X2098100Y1605218*
X2097742Y1604757*
X2097563Y1604296*
X2097384Y1603605*
Y1602453*
X2097563Y1601761*
X2097742Y1601301*
X2098100Y1600840*
X2098458Y1600609*
X2099174*
X2099532Y1600840*
X2099890Y1601301*
X2100069Y1601761*
X2102753Y1605448D02*
X2102395Y1605218D01*
X2102037Y1604757*
X2101858Y1604296*
X2101679Y1603605*
Y1602453*
X2101858Y1601761*
X2102037Y1601301*
X2102395Y1600840*
X2102753Y1600609*
X2103469*
X2103827Y1600840*
X2104185Y1601301*
X2104363Y1601761*
X2104542Y1602453*
Y1603605*
X2104363Y1604296*
X2104185Y1604757*
X2103827Y1605218*
X2103469Y1605448*
X2102753*
X2106153D02*
Y1600609D01*
Y1605448D02*
X2108658Y1600609D01*
Y1605448D02*
Y1600609D01*
X2112416Y1604757D02*
X2112238Y1605218D01*
X2111701Y1605448*
X2111343*
X2110806Y1605218*
X2110448Y1604527*
X2110269Y1603374*
Y1602222*
X2110448Y1601301*
X2110806Y1600840*
X2111343Y1600609*
X2111522*
X2112059Y1600840*
X2112416Y1601301*
X2112595Y1601992*
Y1602222*
X2112416Y1602914*
X2112059Y1603374*
X2111522Y1603605*
X2111343*
X2110806Y1603374*
X2110448Y1602914*
X2110269Y1602222*
X2029556Y1904166D02*
X2029868Y1904280D01*
X2030181Y1904507*
X2030337Y1904735*
Y1905189*
X2030181Y1905416*
X2029868Y1905644*
X2029556Y1905757*
X2029087Y1905871*
X2028306*
X2027837Y1905757*
X2027524Y1905644*
X2027212Y1905416*
X2027056Y1905189*
Y1904735*
X2027212Y1904507*
X2027524Y1904280*
X2027837Y1904166*
X2030337Y1902462D02*
X2030181Y1902689D01*
X2029868Y1902916*
X2029556Y1903030*
X2029087Y1903144*
X2028306*
X2027837Y1903030*
X2027524Y1902916*
X2027212Y1902689*
X2027056Y1902462*
Y1902007*
X2027212Y1901780*
X2027524Y1901553*
X2027837Y1901439*
X2028306Y1901326*
X2029087*
X2029556Y1901439*
X2029868Y1901553*
X2030181Y1901780*
X2030337Y1902007*
Y1902462*
Y1900303D02*
X2027056D01*
X2030337D02*
X2027056Y1898712D01*
X2030337D02*
X2027056D01*
X2030337Y1896098D02*
X2027056Y1897235D01*
X2030337Y1897689D02*
Y1896098D01*
X1954615Y1319388D02*
Y1317045D01*
X1954728Y1316576*
X1954955Y1316263*
X1955296Y1316107*
X1955524*
X1955865Y1316263*
X1956092Y1316576*
X1956205Y1317045*
Y1319388*
X1957342Y1318607D02*
Y1318763D01*
X1957455Y1319076*
X1957569Y1319232*
X1957796Y1319388*
X1958251*
X1958478Y1319232*
X1958592Y1319076*
X1958705Y1318763*
Y1318451*
X1958592Y1318138*
X1958365Y1317670*
X1957228Y1316107*
X1958819*
X2025481Y1319388D02*
Y1317045D01*
X2025594Y1316576*
X2025822Y1316263*
X2026163Y1316107*
X2026390*
X2026731Y1316263*
X2026958Y1316576*
X2027072Y1317045*
Y1319388*
X2028322D02*
X2029572D01*
X2028890Y1318138*
X2029231*
X2029458Y1317982*
X2029572Y1317826*
X2029685Y1317357*
Y1317045*
X2029572Y1316576*
X2029344Y1316263*
X2029003Y1316107*
X2028663*
X2028322Y1316263*
X2028208Y1316420*
X2028094Y1316732*
G54D14*
X2027789Y1804456D02*
X2027610Y1804345D01*
X2027431Y1804124*
X2027342Y1803903*
X2027252Y1803570*
Y1803017*
X2027342Y1802685*
X2027431Y1802463*
X2027610Y1802242*
X2027789Y1802131*
X2028147*
X2028326Y1802242*
X2028505Y1802463*
X2028595Y1802685*
X2028684Y1803017*
Y1803570*
X2028595Y1803903*
X2028505Y1804124*
X2028326Y1804345*
X2028147Y1804456*
X2027789*
X2028058Y1802574D02*
X2028595Y1801909D01*
X2029489Y1804013D02*
X2029668Y1804124D01*
X2029937Y1804456*
Y1802131*
X2031905Y1804456D02*
X2031010D01*
X2030921Y1803460*
X2031010Y1803570*
X2031279Y1803681*
X2031547*
X2031816Y1803570*
X2031995Y1803349*
X2032084Y1803017*
X2031995Y1802795*
X2031905Y1802463*
X2031726Y1802242*
X2031458Y1802131*
X2031189*
X2030921Y1802242*
X2030831Y1802352*
X2030742Y1802574*
X2027789Y1820204D02*
X2027610Y1820093D01*
X2027431Y1819872*
X2027342Y1819651*
X2027252Y1819318*
Y1818765*
X2027342Y1818433*
X2027431Y1818211*
X2027610Y1817990*
X2027789Y1817879*
X2028147*
X2028326Y1817990*
X2028505Y1818211*
X2028595Y1818433*
X2028684Y1818765*
Y1819318*
X2028595Y1819651*
X2028505Y1819872*
X2028326Y1820093*
X2028147Y1820204*
X2027789*
X2028058Y1818322D02*
X2028595Y1817657D01*
X2029489Y1819761D02*
X2029668Y1819872D01*
X2029937Y1820204*
Y1817879*
X2031189Y1820204D02*
X2030921Y1820093D01*
X2030831Y1819872*
Y1819651*
X2030921Y1819429*
X2031100Y1819318*
X2031458Y1819208*
X2031726Y1819097*
X2031905Y1818875*
X2031995Y1818654*
Y1818322*
X2031905Y1818100*
X2031816Y1817990*
X2031547Y1817879*
X2031189*
X2030921Y1817990*
X2030831Y1818100*
X2030742Y1818322*
Y1818654*
X2030831Y1818875*
X2031010Y1819097*
X2031279Y1819208*
X2031637Y1819318*
X2031816Y1819429*
X2031905Y1819651*
Y1819872*
X2031816Y1820093*
X2031547Y1820204*
X2031189*
X2026214Y1837527D02*
X2026035Y1837416D01*
X2025857Y1837195*
X2025767Y1836973*
X2025678Y1836641*
Y1836088*
X2025767Y1835755*
X2025857Y1835534*
X2026035Y1835312*
X2026214Y1835202*
X2026572*
X2026751Y1835312*
X2026930Y1835534*
X2027020Y1835755*
X2027109Y1836088*
Y1836641*
X2027020Y1836973*
X2026930Y1837195*
X2026751Y1837416*
X2026572Y1837527*
X2026214*
X2026483Y1835645D02*
X2027020Y1834980D01*
X2028004Y1836973D02*
Y1837084D01*
X2028093Y1837306*
X2028183Y1837416*
X2028362Y1837527*
X2028720*
X2028899Y1837416*
X2028988Y1837306*
X2029078Y1837084*
Y1836863*
X2028988Y1836641*
X2028809Y1836309*
X2027914Y1835202*
X2029167*
X2030062Y1836973D02*
Y1837084D01*
X2030151Y1837306*
X2030241Y1837416*
X2030420Y1837527*
X2030778*
X2030957Y1837416*
X2031046Y1837306*
X2031136Y1837084*
Y1836863*
X2031046Y1836641*
X2030867Y1836309*
X2029972Y1835202*
X2031225*
X2027789Y1787133D02*
X2027610Y1787023D01*
X2027431Y1786801*
X2027342Y1786580*
X2027252Y1786248*
X2027252D02*
Y1785694D01*
X2027342Y1785362*
X2027431Y1785140*
X2027610Y1784919*
X2027789Y1784808*
X2028147*
X2028326Y1784919*
X2028505Y1785140*
X2028595Y1785362*
X2028684Y1785694*
Y1786248*
X2028684D02*
X2028595Y1786580D01*
X2028505Y1786801*
X2028326Y1787023*
X2028147Y1787133*
X2027789*
X2028058Y1785251D02*
X2028595Y1784587D01*
X2029668Y1787133D02*
X2030653D01*
X2030116Y1786248*
X2030116D02*
X2030384D01*
X2030384D02*
X2030563Y1786137D01*
X2030653Y1786026*
X2030742Y1785694*
Y1785472*
X2030653Y1785140*
X2030474Y1784919*
X2030205Y1784808*
X2029937*
X2029668Y1784919*
X2029579Y1785029*
X2029489Y1785251*
X2032084Y1787133D02*
X2031816Y1787023D01*
X2031637Y1786690*
X2031547Y1786137*
Y1785805*
X2031637Y1785251*
X2031816Y1784919*
X2032084Y1784808*
X2032263*
X2032532Y1784919*
X2032710Y1785251*
X2032800Y1785805*
Y1786137*
X2032710Y1786690*
X2032532Y1787023*
X2032263Y1787133*
X2032084*
X2021490Y1640677D02*
X2021311Y1640566D01*
X2021132Y1640344*
X2021043Y1640123*
X2020953Y1639791*
Y1639237*
X2021043Y1638905*
X2021132Y1638684*
X2021311Y1638462*
X2021490Y1638351*
X2021848*
X2022027Y1638462*
X2022206Y1638684*
X2022295Y1638905*
X2022385Y1639237*
Y1639791*
X2022295Y1640123*
X2022206Y1640344*
X2022027Y1640566*
X2021848Y1640677*
X2021490*
X2021758Y1638794D02*
X2022295Y1638130D01*
X2023190Y1640234D02*
X2023369Y1640344D01*
X2023637Y1640677*
Y1638351*
X2021490Y1749338D02*
X2021311Y1749227D01*
X2021132Y1749006*
X2021043Y1748784*
X2020953Y1748452*
Y1747899*
X2021043Y1747566*
X2021132Y1747345*
X2021311Y1747123*
X2021490Y1747013*
X2021848*
X2022027Y1747123*
X2022206Y1747345*
X2022295Y1747566*
X2022385Y1747899*
Y1748452*
X2022295Y1748784*
X2022206Y1749006*
X2022027Y1749227*
X2021848Y1749338*
X2021490*
X2021758Y1747456D02*
X2022295Y1746791D01*
X2023190Y1748895D02*
X2023369Y1749006D01*
X2023637Y1749338*
Y1747013*
X2024443Y1748895D02*
X2024622Y1749006D01*
X2024890Y1749338*
Y1747013*
X2028577Y1769023D02*
X2028398Y1768912D01*
X2028219Y1768691*
X2028129Y1768469*
X2028040Y1768137*
Y1767584*
X2028129Y1767251*
X2028219Y1767030*
X2028398Y1766809*
X2028577Y1766698*
X2028935*
X2029113Y1766809*
X2029292Y1767030*
X2029382Y1767251*
X2029471Y1767584*
Y1768137*
X2029382Y1768469*
X2029292Y1768691*
X2029113Y1768912*
X2028935Y1769023*
X2028577*
X2028845Y1767141D02*
X2029382Y1766476D01*
X2030277Y1768580D02*
X2030456Y1768691D01*
X2030724Y1769023*
Y1766698*
X2031708Y1769023D02*
X2032693D01*
X2032156Y1768137*
X2032424*
X2032603Y1768027*
X2032693Y1767916*
X2032782Y1767584*
Y1767362*
X2032693Y1767030*
X2032514Y1766809*
X2032245Y1766698*
X2031977*
X2031708Y1766809*
X2031619Y1766919*
X2031529Y1767141*
X2021490Y1619417D02*
X2021311Y1619306D01*
X2021132Y1619085*
X2021043Y1618863*
X2020953Y1618531*
Y1617977*
X2021043Y1617645*
X2021132Y1617424*
X2021311Y1617202*
X2021490Y1617091*
X2021848*
X2022027Y1617202*
X2022206Y1617424*
X2022295Y1617645*
X2022385Y1617977*
Y1618531*
X2022295Y1618863*
X2022206Y1619085*
X2022027Y1619306*
X2021848Y1619417*
X2021490*
X2021758Y1617534D02*
X2022295Y1616870D01*
X2023280Y1618863D02*
Y1618974D01*
X2023369Y1619195*
X2023459Y1619306*
X2023637Y1619417*
X2023995*
X2024174Y1619306*
X2024264Y1619195*
X2024353Y1618974*
Y1618752*
X2024264Y1618531*
X2024085Y1618199*
X2023190Y1617091*
X2024443*
X2025785Y1619417D02*
X2025516Y1619306D01*
X2025516D02*
X2025338Y1618974D01*
X2025248Y1618420*
Y1618088*
X2025338Y1617534*
X2025516Y1617202*
X2025516D02*
X2025785Y1617091D01*
X2025964*
X2026232Y1617202*
X2026411Y1617534*
X2026501Y1618088*
Y1618420*
X2026411Y1618974*
X2026232Y1619306*
X2025964Y1619417*
X2025785*
X2021490Y1661936D02*
X2021311Y1661826D01*
X2021132Y1661604*
X2021043Y1661383*
X2020953Y1661051*
Y1660497*
X2021043Y1660165*
X2021132Y1659943*
X2021311Y1659722*
X2021490Y1659611*
X2021848*
X2022027Y1659722*
X2022206Y1659943*
X2022295Y1660165*
X2022385Y1660497*
Y1661051*
X2022295Y1661383*
X2022206Y1661604*
X2022027Y1661826*
X2021848Y1661936*
X2021490*
X2021758Y1660054D02*
X2022295Y1659390D01*
X2023369Y1661936D02*
X2024353D01*
X2023816Y1661051*
X2024085*
X2024264Y1660940*
X2024353Y1660829*
X2024443Y1660497*
Y1660276*
X2024353Y1659943*
X2024174Y1659722*
X2023906Y1659611*
X2023637*
X2023369Y1659722*
X2023280Y1659833*
X2023190Y1660054*
X2020703Y1683984D02*
X2020524Y1683873D01*
X2020345Y1683652*
X2020255Y1683430*
X2020166Y1683098*
Y1682544*
X2020255Y1682212*
X2020345Y1681991*
X2020524Y1681769*
X2020703Y1681658*
X2021061*
X2021239Y1681769*
X2021418Y1681991*
X2021508Y1682212*
X2021597Y1682544*
Y1683098*
X2021508Y1683430*
X2021418Y1683652*
X2021239Y1683873*
X2021061Y1683984*
X2020703*
X2020971Y1682101D02*
X2021508Y1681437D01*
X2023566Y1683984D02*
X2022671D01*
X2022582Y1682987*
X2022671Y1683098*
X2022940Y1683209*
X2023208*
X2023476Y1683098*
X2023655Y1682876*
X2023745Y1682544*
X2023655Y1682323*
X2023566Y1681991*
X2023387Y1681769*
X2023119Y1681658*
X2022850*
X2022582Y1681769*
X2022492Y1681880*
X2022403Y1682101*
X2021490Y1706031D02*
X2021311Y1705920D01*
X2021132Y1705699*
X2021043Y1705477*
X2020953Y1705145*
Y1704591*
X2021043Y1704259*
X2021132Y1704038*
X2021311Y1703816*
X2021490Y1703706*
X2021848*
X2022027Y1703816*
X2022206Y1704038*
X2022295Y1704259*
X2022385Y1704591*
Y1705145*
X2022295Y1705477*
X2022206Y1705699*
X2022027Y1705920*
X2021848Y1706031*
X2021490*
X2021758Y1704149D02*
X2022295Y1703484D01*
X2024443Y1706031D02*
X2023548Y1703706D01*
X2023190Y1706031D02*
X2024443D01*
X2023065Y1728078D02*
X2022886Y1727967D01*
X2022707Y1727746*
X2022617Y1727525*
X2022528Y1727192*
Y1726639*
X2022617Y1726307*
X2022707Y1726085*
X2022886Y1725864*
X2023065Y1725753*
X2023423*
X2023602Y1725864*
X2023781Y1726085*
X2023870Y1726307*
X2023960Y1726639*
Y1727192*
X2023870Y1727525*
X2023781Y1727746*
X2023602Y1727967*
X2023423Y1728078*
X2023065*
X2023333Y1726196D02*
X2023870Y1725531D01*
X2025928Y1727303D02*
X2025839Y1726971D01*
X2025660Y1726749*
X2025391Y1726639*
X2025302*
X2025033Y1726749*
X2024854Y1726971*
X2024765Y1727303*
Y1727414*
X2024854Y1727746*
X2025033Y1727967*
X2025302Y1728078*
X2025391*
X2025660Y1727967*
X2025839Y1727746*
X2025928Y1727303*
Y1726749*
X2025839Y1726196*
X2025660Y1725864*
X2025391Y1725753*
X2025212*
X2024944Y1725864*
X2024854Y1726085*
X1933936Y1725814D02*
Y1723231D01*
Y1725814D02*
X1934742D01*
X1935010Y1725691*
X1935100Y1725568*
X1935189Y1725322*
Y1725076*
X1935100Y1724830*
X1935010Y1724707*
X1934742Y1724584*
X1933936*
X1934563D02*
X1935189Y1723231D01*
X1936084Y1725199D02*
Y1725322D01*
X1936173Y1725568*
X1936263Y1725691*
X1936442Y1725814*
X1936800*
X1936979Y1725691*
X1937068Y1725568*
X1937158Y1725322*
Y1725076*
X1937068Y1724830*
X1936889Y1724461*
X1935994Y1723231*
X1937247*
X1938589Y1725814D02*
X1938321Y1725691D01*
X1938142Y1725322*
X1938052Y1724707*
Y1724338*
X1938142Y1723723*
X1938321Y1723354*
X1938589Y1723231*
X1938768*
X1939037Y1723354*
X1939215Y1723723*
X1939305Y1724338*
Y1724707*
X1939215Y1725322*
X1939037Y1725691*
X1938768Y1725814*
X1938589*
X1933892Y1703767D02*
Y1701184D01*
Y1703767D02*
X1934697D01*
X1934965Y1703644*
X1935055Y1703521*
X1935144Y1703275*
Y1703029*
X1935055Y1702783*
X1934965Y1702660*
X1934697Y1702537*
X1933892*
X1934518D02*
X1935144Y1701184D01*
X1937113Y1703767D02*
X1936218D01*
X1936129Y1702660*
X1936218Y1702783*
X1936486Y1702906*
X1936755*
X1937023Y1702783*
X1937202Y1702537*
X1937292Y1702168*
X1937202Y1701922*
X1937113Y1701553*
X1936934Y1701307*
X1936665Y1701184*
X1936397*
X1936129Y1701307*
X1936039Y1701430*
X1935950Y1701676*
X1938187Y1703152D02*
Y1703275D01*
X1938276Y1703521*
X1938365Y1703644*
X1938544Y1703767*
X1938902*
X1939081Y1703644*
X1939171Y1703521*
X1939260Y1703275*
Y1703029*
X1939171Y1702783*
X1938992Y1702414*
X1938097Y1701184*
X1939350*
X1933936Y1762822D02*
Y1760239D01*
Y1762822D02*
X1934742D01*
X1935010Y1762699*
X1935100Y1762576*
X1935189Y1762330*
Y1762084*
X1935100Y1761838*
X1935010Y1761715*
X1934742Y1761592*
X1933936*
X1934563D02*
X1935189Y1760239D01*
X1936442Y1762822D02*
X1936173Y1762699D01*
X1936084Y1762453*
Y1762207*
X1936173Y1761961*
X1936352Y1761838*
X1936710Y1761715*
X1936979Y1761592*
X1937158Y1761346*
X1937247Y1761100*
Y1760731*
X1937158Y1760485*
X1937068Y1760362*
X1936800Y1760239*
X1936442*
X1936173Y1760362*
X1936084Y1760485*
X1935994Y1760731*
Y1761100*
X1936084Y1761346*
X1936263Y1761592*
X1936531Y1761715*
X1936889Y1761838*
X1937068Y1761961*
X1937158Y1762207*
Y1762453*
X1937068Y1762699*
X1936800Y1762822*
X1936442*
X1938142Y1762207D02*
Y1762330D01*
X1938231Y1762576*
X1938321Y1762699*
X1938500Y1762822*
X1938858*
X1939037Y1762699*
X1939126Y1762576*
X1939215Y1762330*
Y1762084*
X1939126Y1761838*
X1938947Y1761469*
X1938052Y1760239*
X1939305*
G54D15*
X2120237Y1891304D02*
X2120219Y1891353D01*
X2120184Y1891403*
X2120148Y1891427*
X2120076*
X2120040Y1891403*
X2120005Y1891353*
X2119987Y1891304*
X2119969Y1891230*
Y1891107*
X2119987Y1891033*
X2120005Y1890984*
X2120040Y1890935*
X2120076Y1890910*
X2120148*
X2120184Y1890935*
X2120219Y1890984*
X2120237Y1891033*
X2120506Y1891427D02*
X2120470Y1891403D01*
X2120434Y1891353*
X2120416Y1891304*
X2120398Y1891230*
Y1891107*
X2120416Y1891033*
X2120434Y1890984*
X2120470Y1890935*
X2120506Y1890910*
X2120577*
X2120613Y1890935*
X2120649Y1890984*
X2120667Y1891033*
X2120685Y1891107*
Y1891230*
X2120667Y1891304*
X2120649Y1891353*
X2120613Y1891403*
X2120577Y1891427*
X2120506*
X2120846D02*
Y1890910D01*
Y1891427D02*
X2121096Y1890910D01*
Y1891427D02*
Y1890910D01*
X2121347Y1891427D02*
X2121293Y1891403D01*
X2121275Y1891353*
Y1891304*
X2121293Y1891255*
X2121329Y1891230*
X2121401Y1891206*
X2121454Y1891181*
X2121490Y1891132*
X2121508Y1891083*
Y1891009*
X2121490Y1890960*
X2121472Y1890935*
X2121418Y1890910*
X2121347*
X2121293Y1890935*
X2121275Y1890960*
X2121257Y1891009*
Y1891083*
X2121275Y1891132*
X2121311Y1891181*
X2121365Y1891206*
X2121436Y1891230*
X2121472Y1891255*
X2121490Y1891304*
Y1891353*
X2121472Y1891403*
X2121418Y1891427*
X2121347*
X1884017Y1891304D02*
X1883999Y1891353D01*
X1883963Y1891403*
X1883927Y1891427*
X1883856*
X1883820Y1891403*
X1883784Y1891353*
X1883766Y1891304*
X1883748Y1891230*
Y1891107*
X1883766Y1891033*
X1883784Y1890984*
X1883820Y1890935*
X1883856Y1890910*
X1883927*
X1883963Y1890935*
X1883999Y1890984*
X1884017Y1891033*
X1884285Y1891427D02*
X1884249Y1891403D01*
X1884249D02*
X1884214Y1891353D01*
X1884196Y1891304*
X1884178Y1891230*
Y1891107*
X1884196Y1891033*
X1884214Y1890984*
X1884249Y1890935*
X1884249D02*
X1884285Y1890910D01*
X1884357*
X1884393Y1890935*
X1884428Y1890984*
X1884446Y1891033*
X1884464Y1891107*
Y1891230*
X1884446Y1891304*
X1884428Y1891353*
X1884393Y1891403*
X1884357Y1891427*
X1884285*
X1884625D02*
Y1890910D01*
Y1891427D02*
X1884876Y1890910D01*
Y1891427D02*
Y1890910D01*
X1885270Y1891255D02*
X1885252Y1891181D01*
X1885216Y1891132*
X1885162Y1891107*
X1885144*
X1885091Y1891132*
X1885055Y1891181*
X1885037Y1891255*
Y1891279*
X1885055Y1891353*
X1885091Y1891403*
X1885144Y1891427*
X1885162*
X1885216Y1891403*
X1885252Y1891353*
X1885270Y1891255*
Y1891132*
X1885252Y1891009*
X1885216Y1890935*
X1885162Y1890910*
X1885126*
X1885073Y1890935*
X1885055Y1890984*
X1884017Y1302721D02*
X1883999Y1302771D01*
X1883963Y1302820*
X1883927Y1302844*
X1883856*
X1883820Y1302820*
X1883784Y1302771*
X1883766Y1302721*
X1883748Y1302648*
Y1302525*
X1883766Y1302451*
X1883784Y1302402*
X1883820Y1302352*
X1883856Y1302328*
X1883927*
X1883963Y1302352*
X1883999Y1302402*
X1884017Y1302451*
X1884285Y1302844D02*
X1884249Y1302820D01*
X1884249D02*
X1884214Y1302771D01*
X1884196Y1302721*
X1884178Y1302648*
Y1302525*
X1884196Y1302451*
X1884214Y1302402*
X1884249Y1302352*
X1884249D02*
X1884285Y1302328D01*
X1884357*
X1884393Y1302352*
X1884428Y1302402*
X1884446Y1302451*
X1884464Y1302525*
Y1302648*
X1884446Y1302721*
X1884428Y1302771*
X1884393Y1302820*
X1884357Y1302844*
X1884285*
X1884625D02*
Y1302328D01*
Y1302844D02*
X1884876Y1302328D01*
Y1302844D02*
Y1302328D01*
X1885037Y1302746D02*
X1885073Y1302771D01*
X1885126Y1302844*
Y1302328*
X1885395Y1302844D02*
X1885341Y1302820D01*
X1885305Y1302746*
X1885287Y1302623*
Y1302549*
X1885305Y1302426*
X1885341Y1302352*
X1885395Y1302328*
X1885431*
X1885484Y1302352*
X1885520Y1302426*
X1885538Y1302549*
Y1302623*
X1885520Y1302746*
X1885484Y1302820*
X1885431Y1302844*
X1885395*
X2120237Y1302721D02*
X2120219Y1302771D01*
X2120184Y1302820*
X2120148Y1302844*
X2120076*
X2120040Y1302820*
X2120005Y1302771*
X2119987Y1302721*
X2119969Y1302648*
Y1302525*
X2119987Y1302451*
X2120005Y1302402*
X2120040Y1302352*
X2120076Y1302328*
X2120148*
X2120184Y1302352*
X2120219Y1302402*
X2120237Y1302451*
X2120506Y1302844D02*
X2120470Y1302820D01*
X2120434Y1302771*
X2120416Y1302721*
X2120398Y1302648*
Y1302525*
X2120416Y1302451*
X2120434Y1302402*
X2120470Y1302352*
X2120506Y1302328*
X2120577*
X2120613Y1302352*
X2120649Y1302402*
X2120667Y1302451*
X2120685Y1302525*
Y1302648*
X2120667Y1302721*
X2120649Y1302771*
X2120613Y1302820*
X2120577Y1302844*
X2120506*
X2120846D02*
Y1302328D01*
Y1302844D02*
X2121096Y1302328D01*
Y1302844D02*
Y1302328D01*
X2121257Y1302746D02*
X2121293Y1302771D01*
X2121347Y1302844*
Y1302328*
X2121508Y1302746D02*
X2121544Y1302771D01*
X2121597Y1302844*
Y1302328*
G54D40*
X1914099Y1581902D02*
Y1459612D01*
X1864029*
Y1581902*
X1914099*
X2060520Y1604296D02*
Y1610595D01*
X2072637*
Y1604296*
X2060520*
X2071042Y1610605D02*
X2072725D01*
Y1605085*
X2072828*
X2073360Y1604291D02*
Y1610578D01*
X2066382Y1606246D02*
Y1608719D01*
X2067619Y1607483*
X2066382Y1606246*
X2089618Y1459762D02*
Y1582052D01*
X2139688*
Y1459762*
X2089618*
X1914099Y1444106D02*
Y1321816D01*
X1864029*
Y1444106*
X1914099*
X2089618Y1321966D02*
Y1444256D01*
X2139688*
Y1321966*
X2089618*
X2060520Y1625950D02*
Y1632249D01*
X2072637*
Y1625950*
X2060520*
X2071042Y1632258D02*
X2072725D01*
Y1626738*
X2072828*
X2073360Y1625945D02*
Y1632232D01*
X2066382Y1627900D02*
Y1630372D01*
X2067619Y1629136*
X2066382Y1627900*
X2060520Y1647603D02*
Y1653903D01*
X2072637*
Y1647603*
X2060520*
X2071042Y1653912D02*
X2072725D01*
Y1648392*
X2072828*
X2073360Y1647598D02*
Y1653885D01*
X2066382Y1649553D02*
Y1652026D01*
X2067619Y1650790*
X2066382Y1649553*
X2060520Y1667288D02*
Y1673588D01*
X2072637*
Y1667288*
X2060520*
X2071042Y1673597D02*
X2072725D01*
Y1668077*
X2072828*
X2073360Y1667283D02*
Y1673570D01*
X2066382Y1669238D02*
Y1671711D01*
X2067619Y1670475*
X2066382Y1669238*
X2060520Y1688942D02*
Y1695241D01*
X2072637*
Y1688942*
X2060520*
X2071042Y1695250D02*
X2072725D01*
Y1689731*
X2072828*
X2073360Y1688937D02*
Y1695224D01*
X2066382Y1690892D02*
Y1693364D01*
X2067619Y1692128*
X2066382Y1690892*
X2060520Y1712564D02*
Y1718863D01*
X2072637*
Y1712564*
X2060520*
X2071042Y1718872D02*
X2072725D01*
Y1713353*
X2072828*
X2073360Y1712559D02*
Y1718846D01*
X2066382Y1714514D02*
Y1716987D01*
X2067619Y1715750*
X2066382Y1714514*
X2060520Y1732249D02*
Y1738548D01*
X2072637*
Y1732249*
X2060520*
X2071042Y1738557D02*
X2072725D01*
Y1733038*
X2072828*
X2073360Y1732244D02*
Y1738531D01*
X2066382Y1734199D02*
Y1736672D01*
X2067619Y1735435*
X2066382Y1734199*
X2060520Y1753903D02*
Y1760202D01*
X2072637*
Y1753903*
X2060520*
X2071042Y1760211D02*
X2072725D01*
Y1754691*
X2072828*
X2073360Y1753897D02*
Y1760185D01*
X2066382Y1755853D02*
Y1758325D01*
X2067619Y1757089*
X2066382Y1755853*
G54D60*
X1898638Y1607446D02*
Y1847603D01*
X1867968*
Y1607446*
X1898638*
X1879578Y1628817D02*
X1868598D01*
X1880078Y1648307D02*
X1868638D01*
X1880158Y1668427D02*
X1868718D01*
X1879958Y1688227D02*
X1868518D01*
X1880158Y1708437D02*
X1868718D01*
X1880158Y1728037D02*
X1868718D01*
X1879868Y1747927D02*
X1868428D01*
X1879868Y1767427D02*
X1868428D01*
X1879978Y1786817D02*
X1868538D01*
X1880128Y1807327D02*
X1868688D01*
X1879868Y1827097D02*
X1868428D01*
X2084536Y1607446D02*
Y1847603D01*
X2127843*
Y1607446*
X2084536*
X2116294Y1629337D02*
X2127274D01*
X2115794Y1648827D02*
X2127234D01*
X2115714Y1668947D02*
X2127154D01*
X2115914Y1688747D02*
X2127354D01*
X2115714Y1708957D02*
X2127154D01*
X2115714Y1728557D02*
X2127154D01*
X2116004Y1748447D02*
X2127444D01*
X2116004Y1767947D02*
X2127444D01*
X2115894Y1787337D02*
X2127334D01*
X2115744Y1807847D02*
X2127184D01*
X2116004Y1827617D02*
X2127444D01*
G54D61*
X1930205Y1799375D02*
X1943591D01*
Y1793469*
X1930205*
Y1799375*
X1934259Y1796455D02*
X1939094D01*
X1935625Y1798483D02*
Y1794368D01*
X1937682Y1796425*
X1935625Y1798483*
X1937768Y1799160D02*
Y1793690D01*
X1932174Y1819060D02*
X1945559D01*
Y1813154*
X1932174*
Y1819060*
X1936227Y1816140D02*
X1941062D01*
X1937594Y1818168D02*
Y1814053D01*
X1939651Y1816111*
X1937594Y1818168*
X1939737Y1818845D02*
Y1813375D01*
X1930205Y1779690D02*
X1943591D01*
Y1773784*
X1930205*
Y1779690*
X1934259Y1776770D02*
X1939094D01*
X1935625Y1778798D02*
Y1774683D01*
X1937682Y1776740*
X1935625Y1778798*
X1937768Y1779475D02*
Y1774005D01*
X1932174Y1838745D02*
X1945559D01*
Y1832840*
X1932174*
Y1838745*
X1936227Y1835825D02*
X1941062D01*
X1937594Y1837853D02*
Y1833738D01*
X1939651Y1835796*
X1937594Y1837853*
X1939737Y1838530D02*
Y1833060D01*
G54D62*
X2101876Y1858181D02*
X2033766D01*
Y1909421*
X2101876*
Y1858181*
X2101206Y1858861D02*
X2034516D01*
Y1908591*
X2101206*
Y1858861*
X2100496Y1894257D02*
X2076016D01*
Y1907901*
X2100496*
Y1894257*
X2076416Y1894291D02*
X2059576D01*
Y1907611*
X2076416*
Y1894291*
X2059376D02*
X2035296D01*
Y1908001*
X2059376*
Y1894291*
X2025481Y1906658D02*
X1942451D01*
Y1845318*
X2025481*
Y1906658*
X1944175Y1335077D02*
X1988905D01*
Y1290487*
X1944175*
Y1335077*
X1943475D02*
X1987795D01*
Y1290487*
X1943475*
Y1335077*
X2015041D02*
X2059771D01*
Y1290487*
X2015041*
Y1335077*
X2014341D02*
X2058661D01*
Y1290487*
X2014341*
Y1335077*
G74*
X0Y0D02*
M02*
